Berangeen-Regular.ufo
<glyph name="exclam" format="2">
  <advance width="158"/>
  <unicode hex="0021"/>
  <outline>
    <contour>
      <point x="50.0" y="812.0" type="line" smooth="yes"/>
      <point x="50.0" y="818.399414062"/>
      <point x="52.44140625" y="824.799804688"/>
      <point x="57.3193359375" y="829.677734375" type="curve" smooth="yes"/>
      <point x="62.197265625" y="834.555664062"/>
      <point x="68.59765625" y="836.995117188"/>
      <point x="74.9970703125" y="836.995117188" type="curve" smooth="yes"/>
      <point x="81.396484375" y="836.995117188"/>
      <point x="87.7958984375" y="834.555664062"/>
      <point x="92.6748046875" y="829.677734375" type="curve" smooth="yes"/>
      <point x="97.474609375" y="824.877929688"/>
      <point x="99.9130859375" y="818.60546875"/>
      <point x="99.990234375" y="812.30859375" type="curve" smooth="yes"/>
      <point x="105.994140625" y="323.0" type="line" smooth="yes"/>
      <point x="105.994140625" y="316.600585938"/>
      <point x="103.552734375" y="310.200195312"/>
      <point x="98.6748046875" y="305.322265625" type="curve" smooth="yes"/>
      <point x="93.7958984375" y="300.444335938"/>
      <point x="87.396484375" y="298.004882812"/>
      <point x="80.9970703125" y="298.004882812" type="curve" smooth="yes"/>
      <point x="74.59765625" y="298.004882812"/>
      <point x="68.197265625" y="300.444335938"/>
      <point x="63.3193359375" y="305.322265625" type="curve" smooth="yes"/>
      <point x="58.51953125" y="310.122070312"/>
      <point x="56.0810546875" y="316.39453125"/>
      <point x="56.00390625" y="322.69140625" type="curve" smooth="yes"/>
    </contour>
    <contour>
      <point x="59.001953125" y="203.0" type="line" smooth="yes"/>
      <point x="59.001953125" y="209.399414062"/>
      <point x="61.44140625" y="215.799804688"/>
      <point x="66.3193359375" y="220.677734375" type="curve" smooth="yes"/>
      <point x="71.197265625" y="225.555664062"/>
      <point x="77.59765625" y="227.995117188"/>
      <point x="83.9970703125" y="227.995117188" type="curve" smooth="yes"/>
      <point x="90.396484375" y="227.995117188"/>
      <point x="96.7958984375" y="225.555664062"/>
      <point x="101.674804688" y="220.677734375" type="curve" smooth="yes"/>
      <point x="106.552734375" y="215.799804688"/>
      <point x="108.9921875" y="209.399414062"/>
      <point x="108.9921875" y="203.0" type="curve" smooth="yes"/>
      <point x="108.9921875" y="137.0" type="line" smooth="yes"/>
      <point x="108.9921875" y="130.600585938"/>
      <point x="106.552734375" y="124.200195312"/>
      <point x="101.674804688" y="119.322265625" type="curve" smooth="yes"/>
      <point x="96.7958984375" y="114.444335938"/>
      <point x="90.396484375" y="112.004882812"/>
      <point x="83.9970703125" y="112.004882812" type="curve" smooth="yes"/>
      <point x="77.59765625" y="112.004882812"/>
      <point x="71.197265625" y="114.444335938"/>
      <point x="66.3193359375" y="119.322265625" type="curve" smooth="yes"/>
      <point x="61.44140625" y="124.200195312"/>
      <point x="59.001953125" y="130.600585938"/>
      <point x="59.001953125" y="137.0" type="curve" smooth="yes"/>
    </contour>
  </outline>
</glyph>
<glyph name="quotedbl" format="2">
  <advance width="242"/>
  <unicode hex="0022"/>
  <outline>
    <contour>
      <point x="50.0" y="737.0" type="curve" smooth="yes"/>
      <point x="50.0" y="743.399414062"/>
      <point x="52.439453125" y="749.799804688"/>
      <point x="57.3173828125" y="754.677734375" type="curve" smooth="yes"/>
      <point x="62.1953125" y="759.555664062"/>
      <point x="68.595703125" y="761.995117188"/>
      <point x="74.9951171875" y="761.995117188" type="curve" smooth="yes"/>
      <point x="81.39453125" y="761.995117188"/>
      <point x="87.794921875" y="759.555664062"/>
      <point x="92.6728515625" y="754.677734375" type="curve" smooth="yes"/>
      <point x="97.2607421875" y="750.08984375"/>
      <point x="99.6904296875" y="744.157226562"/>
      <point x="99.9638671875" y="738.143554688" type="curve" smooth="yes"/>
      <point x="102.963867188" y="672.143554688" type="line" smooth="yes"/>
      <point x="102.981445312" y="671.762695312"/>
      <point x="102.990234375" y="671.380859375"/>
      <point x="102.990234375" y="671.0" type="curve" smooth="yes"/>
      <point x="102.990234375" y="664.600585938"/>
      <point x="100.55078125" y="658.200195312"/>
      <point x="95.6728515625" y="653.322265625" type="curve" smooth="yes"/>
      <point x="90.794921875" y="648.444335938"/>
      <point x="84.39453125" y="646.004882812"/>
      <point x="77.9951171875" y="646.004882812" type="curve" smooth="yes"/>
      <point x="71.595703125" y="646.004882812"/>
      <point x="65.1953125" y="648.444335938"/>
      <point x="60.3173828125" y="653.322265625" type="curve" smooth="yes"/>
      <point x="55.7294921875" y="657.91015625"/>
      <point x="53.298828125" y="663.842773438"/>
      <point x="53.0263671875" y="669.856445312" type="curve" smooth="yes"/>
      <point x="50.0263671875" y="735.856445312" type="line" smooth="yes"/>
      <point x="50.0087890625" y="736.237304688"/>
      <point x="50.0" y="736.619140625"/>
    </contour>
    <contour>
      <point x="140.0" y="740.0" type="curve" smooth="yes"/>
      <point x="140.0" y="746.399414062"/>
      <point x="142.439453125" y="752.799804688"/>
      <point x="147.317382812" y="757.677734375" type="curve" smooth="yes"/>
      <point x="152.1953125" y="762.555664062"/>
      <point x="158.595703125" y="764.995117188"/>
      <point x="164.995117188" y="764.995117188" type="curve" smooth="yes"/>
      <point x="171.39453125" y="764.995117188"/>
      <point x="177.794921875" y="762.555664062"/>
      <point x="182.672851562" y="757.677734375" type="curve" smooth="yes"/>
      <point x="187.260742188" y="753.08984375"/>
      <point x="189.690429688" y="747.157226562"/>
      <point x="189.963867188" y="741.143554688" type="curve" smooth="yes"/>
      <point x="192.963867188" y="675.143554688" type="line" smooth="yes"/>
      <point x="192.981445312" y="674.762695312"/>
      <point x="192.990234375" y="674.380859375"/>
      <point x="192.990234375" y="674.0" type="curve" smooth="yes"/>
      <point x="192.990234375" y="667.600585938"/>
      <point x="190.55078125" y="661.200195312"/>
      <point x="185.672851562" y="656.322265625" type="curve" smooth="yes"/>
      <point x="180.794921875" y="651.444335938"/>
      <point x="174.39453125" y="649.004882812"/>
      <point x="167.995117188" y="649.004882812" type="curve" smooth="yes"/>
      <point x="161.595703125" y="649.004882812"/>
      <point x="155.1953125" y="651.444335938"/>
      <point x="150.317382812" y="656.322265625" type="curve" smooth="yes"/>
      <point x="145.729492188" y="660.91015625"/>
      <point x="143.298828125" y="666.842773438"/>
      <point x="143.026367188" y="672.856445312" type="curve" smooth="yes"/>
      <point x="140.026367188" y="738.856445312" type="line" smooth="yes"/>
      <point x="140.008789062" y="739.237304688"/>
      <point x="140.0" y="739.619140625"/>
    </contour>
  </outline>
</glyph>
<glyph name="numbersign" format="2">
  <advance width="560"/>
  <unicode hex="0023"/>
  <outline>
    <contour>
      <point x="74.9951171875" y="230.004882812" type="curve" smooth="yes"/>
      <point x="68.595703125" y="230.004882812"/>
      <point x="62.1953125" y="232.444335938"/>
      <point x="57.3173828125" y="237.322265625" type="curve" smooth="yes"/>
      <point x="52.439453125" y="242.200195312"/>
      <point x="50.0" y="248.600585938"/>
      <point x="50.0" y="255.0" type="curve" smooth="yes"/>
      <point x="50.0" y="261.399414062"/>
      <point x="52.439453125" y="267.799804688"/>
      <point x="57.3173828125" y="272.677734375" type="curve" smooth="yes"/>
      <point x="62.0556640625" y="277.416015625"/>
      <point x="68.2294921875" y="279.852539062"/>
      <point x="74.443359375" y="279.989257812" type="curve" smooth="yes"/>
      <point x="485.443359375" y="288.989257812" type="line" smooth="yes"/>
      <point x="485.627929688" y="288.993164062"/>
      <point x="485.811523438" y="288.995117188"/>
      <point x="485.995117188" y="288.995117188" type="curve" smooth="yes"/>
      <point x="492.39453125" y="288.995117188"/>
      <point x="498.794921875" y="286.555664062"/>
      <point x="503.672851562" y="281.677734375" type="curve" smooth="yes"/>
      <point x="508.55078125" y="276.799804688"/>
      <point x="510.990234375" y="270.399414062"/>
      <point x="510.990234375" y="264.0" type="curve" smooth="yes"/>
      <point x="510.990234375" y="257.600585938"/>
      <point x="508.55078125" y="251.200195312"/>
      <point x="503.672851562" y="246.322265625" type="curve" smooth="yes"/>
      <point x="498.934570312" y="241.583984375"/>
      <point x="492.760742188" y="239.147460938"/>
      <point x="486.546875" y="239.010742188" type="curve" smooth="yes"/>
      <point x="75.546875" y="230.010742188" type="line" smooth="yes"/>
      <point x="75.3623046875" y="230.006835938"/>
      <point x="75.1787109375" y="230.004882812"/>
    </contour>
    <contour>
      <point x="74.9951171875" y="430.004882812" type="curve" smooth="yes"/>
      <point x="68.595703125" y="430.004882812"/>
      <point x="62.1953125" y="432.444335938"/>
      <point x="57.3173828125" y="437.322265625" type="curve" smooth="yes"/>
      <point x="52.439453125" y="442.200195312"/>
      <point x="50.0" y="448.600585938"/>
      <point x="50.0" y="455.0" type="curve" smooth="yes"/>
      <point x="50.0" y="461.399414062"/>
      <point x="52.439453125" y="467.799804688"/>
      <point x="57.3173828125" y="472.677734375" type="curve" smooth="yes"/>
      <point x="62.0556640625" y="477.416015625"/>
      <point x="68.2294921875" y="479.852539062"/>
      <point x="74.443359375" y="479.989257812" type="curve" smooth="yes"/>
      <point x="485.443359375" y="488.989257812" type="line" smooth="yes"/>
      <point x="485.627929688" y="488.993164062"/>
      <point x="485.811523438" y="488.995117188"/>
      <point x="485.995117188" y="488.995117188" type="curve" smooth="yes"/>
      <point x="492.39453125" y="488.995117188"/>
      <point x="498.794921875" y="486.555664062"/>
      <point x="503.672851562" y="481.677734375" type="curve" smooth="yes"/>
      <point x="508.55078125" y="476.799804688"/>
      <point x="510.990234375" y="470.399414062"/>
      <point x="510.990234375" y="464.0" type="curve" smooth="yes"/>
      <point x="510.990234375" y="457.600585938"/>
      <point x="508.55078125" y="451.200195312"/>
      <point x="503.672851562" y="446.322265625" type="curve" smooth="yes"/>
      <point x="498.934570312" y="441.583984375"/>
      <point x="492.760742188" y="439.147460938"/>
      <point x="486.546875" y="439.010742188" type="curve" smooth="yes"/>
      <point x="75.546875" y="430.010742188" type="line" smooth="yes"/>
      <point x="75.3623046875" y="430.006835938"/>
      <point x="75.1787109375" y="430.004882812"/>
    </contour>
    <contour>
      <point x="398.995117188" y="566.995117188" type="curve" smooth="yes"/>
      <point x="405.39453125" y="566.995117188"/>
      <point x="411.794921875" y="564.555664062"/>
      <point x="416.672851562" y="559.677734375" type="curve" smooth="yes"/>
      <point x="421.55078125" y="554.799804688"/>
      <point x="423.990234375" y="548.399414062"/>
      <point x="423.990234375" y="542.0" type="curve" smooth="yes"/>
      <point x="423.990234375" y="540.720703125"/>
      <point x="423.892578125" y="539.44140625"/>
      <point x="423.698242188" y="538.173828125" type="curve" smooth="yes"/>
      <point x="369.698242188" y="187.173828125" type="line" smooth="yes"/>
      <point x="367.9296875" y="175.68359375"/>
      <point x="357.345703125" y="166.004882812"/>
      <point x="344.995117188" y="166.004882812" type="curve" smooth="yes"/>
      <point x="338.595703125" y="166.004882812"/>
      <point x="332.1953125" y="168.444335938"/>
      <point x="327.317382812" y="173.322265625" type="curve" smooth="yes"/>
      <point x="322.439453125" y="178.200195312"/>
      <point x="320.0" y="184.600585938"/>
      <point x="320.0" y="191.0" type="curve" smooth="yes"/>
      <point x="320.0" y="192.279296875"/>
      <point x="320.09765625" y="193.55859375"/>
      <point x="320.291992188" y="194.826171875" type="curve" smooth="yes"/>
      <point x="374.291992188" y="545.826171875" type="line" smooth="yes"/>
      <point x="376.060546875" y="557.31640625"/>
      <point x="386.64453125" y="566.995117188"/>
    </contour>
    <contour>
      <point x="197.995117188" y="566.995117188" type="curve" smooth="yes"/>
      <point x="204.39453125" y="566.995117188"/>
      <point x="210.794921875" y="564.555664062"/>
      <point x="215.672851562" y="559.677734375" type="curve" smooth="yes"/>
      <point x="220.55078125" y="554.799804688"/>
      <point x="222.990234375" y="548.399414062"/>
      <point x="222.990234375" y="542.0" type="curve" smooth="yes"/>
      <point x="222.990234375" y="540.720703125"/>
      <point x="222.892578125" y="539.44140625"/>
      <point x="222.698242188" y="538.173828125" type="curve" smooth="yes"/>
      <point x="168.698242188" y="187.173828125" type="line" smooth="yes"/>
      <point x="166.9296875" y="175.68359375"/>
      <point x="156.345703125" y="166.004882812"/>
      <point x="143.995117188" y="166.004882812" type="curve" smooth="yes"/>
      <point x="137.595703125" y="166.004882812"/>
      <point x="131.1953125" y="168.444335938"/>
      <point x="126.317382812" y="173.322265625" type="curve" smooth="yes"/>
      <point x="121.439453125" y="178.200195312"/>
      <point x="119.0" y="184.600585938"/>
      <point x="119.0" y="191.0" type="curve" smooth="yes"/>
      <point x="119.0" y="192.279296875"/>
      <point x="119.09765625" y="193.55859375"/>
      <point x="119.291992188" y="194.826171875" type="curve" smooth="yes"/>
      <point x="173.291992188" y="545.826171875" type="line" smooth="yes"/>
      <point x="175.060546875" y="557.31640625"/>
      <point x="185.64453125" y="566.995117188"/>
    </contour>
  </outline>
</glyph>
<glyph name="dollar" format="2">
  <advance width="351"/>
  <unicode hex="0024"/>
  <outline>
    <contour>
      <point x="270.990234375" y="635.0" type="curve" smooth="yes"/>
      <point x="270.990234375" y="628.600585938"/>
      <point x="268.55078125" y="622.200195312"/>
      <point x="263.672851562" y="617.322265625" type="curve" smooth="yes"/>
      <point x="258.794921875" y="612.444335938"/>
      <point x="252.39453125" y="610.004882812"/>
      <point x="245.995117188" y="610.004882812" type="curve" smooth="yes"/>
      <point x="241.821289062" y="610.004882812"/>
      <point x="237.647460938" y="611.041992188"/>
      <point x="233.895507812" y="613.1171875" type="curve" smooth="yes"/>
      <point x="226.137695312" y="617.407226562"/>
      <point x="219.759765625" y="622.267578125"/>
      <point x="213.990234375" y="627.3984375" type="curve"/>
      <point x="213.990234375" y="611.0" type="line" smooth="yes"/>
      <point x="213.990234375" y="604.600585938"/>
      <point x="211.55078125" y="598.200195312"/>
      <point x="206.672851562" y="593.322265625" type="curve" smooth="yes"/>
      <point x="201.794921875" y="588.444335938"/>
      <point x="195.39453125" y="586.004882812"/>
      <point x="188.995117188" y="586.004882812" type="curve" smooth="yes"/>
      <point x="182.595703125" y="586.004882812"/>
      <point x="176.1953125" y="588.444335938"/>
      <point x="171.317382812" y="593.322265625" type="curve" smooth="yes"/>
      <point x="166.439453125" y="598.200195312"/>
      <point x="164.0" y="604.600585938"/>
      <point x="164.0" y="611.0" type="curve" smooth="yes"/>
      <point x="164.0" y="644.233398438" type="line"/>
      <point x="159.234375" y="640.858398438"/>
      <point x="154.756835938" y="637.059570312"/>
      <point x="150.587890625" y="632.891601562" type="curve" smooth="yes"/>
      <point x="128.282226562" y="610.5859375"/>
      <point x="115.62890625" y="578.078125"/>
      <point x="115.62890625" y="546.63671875" type="curve" smooth="yes"/>
      <point x="115.62890625" y="534.9765625"/>
      <point x="117.369140625" y="523.462890625"/>
      <point x="121.001953125" y="512.670898438" type="curve"/>
      <point x="138.208007812" y="492.629882812"/>
      <point x="156.796875" y="477.0625"/>
      <point x="178.588867188" y="458.157226562" type="curve" smooth="yes"/>
      <point x="218.461914062" y="423.565429688"/>
      <point x="262.668945312" y="386.002929688"/>
      <point x="286.109375" y="335.020507812" type="curve" smooth="yes"/>
      <point x="295.80859375" y="313.92578125"/>
      <point x="301.470703125" y="290.58984375"/>
      <point x="301.470703125" y="265.37109375" type="curve" smooth="yes"/>
      <point x="301.470703125" y="247.047851562"/>
      <point x="298.481445312" y="227.73046875"/>
      <point x="291.881835938" y="207.555664062" type="curve"/>
      <point x="290.696289062" y="182.140625"/>
      <point x="279.901367188" y="160.92578125"/>
      <point x="264.505859375" y="145.53125" type="curve" smooth="yes"/>
      <point x="243.697265625" y="124.72265625"/>
      <point x="216.215820312" y="114.252929688"/>
      <point x="190.6484375" y="109.438476562" type="curve" smooth="yes"/>
      <point x="187.348632812" y="108.817382812"/>
      <point x="184.131835938" y="108.291015625"/>
      <point x="180.990234375" y="107.862304688" type="curve" smooth="yes"/>
      <point x="180.990234375" y="-1.0" type="line" smooth="yes"/>
      <point x="180.990234375" y="-7.3994140625"/>
      <point x="178.55078125" y="-13.7998046875"/>
      <point x="173.672851562" y="-18.677734375" type="curve" smooth="yes"/>
      <point x="168.794921875" y="-23.5556640625"/>
      <point x="162.39453125" y="-25.9951171875"/>
      <point x="155.995117188" y="-25.9951171875" type="curve" smooth="yes"/>
      <point x="149.595703125" y="-25.9951171875"/>
      <point x="143.1953125" y="-23.5556640625"/>
      <point x="138.317382812" y="-18.677734375" type="curve" smooth="yes"/>
      <point x="133.439453125" y="-13.7998046875"/>
      <point x="131.0" y="-7.3994140625"/>
      <point x="131.0" y="-1.0" type="curve" smooth="yes"/>
      <point x="131.0" y="111.725585938" type="line"/>
      <point x="113.1484375" y="118.306640625"/>
      <point x="101.137695312" y="129.790039062"/>
      <point x="89.8046875" y="140.0078125" type="curve" smooth="yes"/>
      <point x="84.853515625" y="144.471679688"/>
      <point x="79.818359375" y="149.004882812"/>
      <point x="74.14453125" y="153.665039062" type="curve" smooth="yes"/>
      <point x="70.24609375" y="156.8671875"/>
      <point x="67.2431640625" y="161.498046875"/>
      <point x="65.9150390625" y="166.279296875" type="curve" smooth="yes"/>
      <point x="50.9150390625" y="220.279296875" type="line" smooth="yes"/>
      <point x="50.3046875" y="222.474609375"/>
      <point x="50.0" y="224.737304688"/>
      <point x="50.0" y="227.0" type="curve" smooth="yes"/>
      <point x="50.0" y="233.399414062"/>
      <point x="52.439453125" y="239.799804688"/>
      <point x="57.3173828125" y="244.677734375" type="curve" smooth="yes"/>
      <point x="62.1953125" y="249.555664062"/>
      <point x="68.595703125" y="251.995117188"/>
      <point x="74.9951171875" y="251.995117188" type="curve" smooth="yes"/>
      <point x="86.3349609375" y="251.995117188"/>
      <point x="96.29296875" y="243.736328125"/>
      <point x="99.0751953125" y="233.720703125" type="curve" smooth="yes"/>
      <point x="112.013671875" y="187.142578125" type="line" smooth="yes"/>
      <point x="116.170898438" y="183.5625"/>
      <point x="119.891601562" y="180.204101562"/>
      <point x="123.258789062" y="177.168945312" type="curve" smooth="yes"/>
      <point x="126.122070312" y="174.586914062"/>
      <point x="128.677734375" y="172.3203125"/>
      <point x="131.0" y="170.331054688" type="curve"/>
      <point x="131.0" y="203.0" type="line" smooth="yes"/>
      <point x="131.0" y="209.399414062"/>
      <point x="133.439453125" y="215.799804688"/>
      <point x="138.317382812" y="220.677734375" type="curve" smooth="yes"/>
      <point x="143.1953125" y="225.555664062"/>
      <point x="149.595703125" y="227.995117188"/>
      <point x="155.995117188" y="227.995117188" type="curve" smooth="yes"/>
      <point x="162.39453125" y="227.995117188"/>
      <point x="168.794921875" y="225.555664062"/>
      <point x="173.672851562" y="220.677734375" type="curve" smooth="yes"/>
      <point x="178.55078125" y="215.799804688"/>
      <point x="180.990234375" y="209.399414062"/>
      <point x="180.990234375" y="203.0" type="curve" smooth="yes"/>
      <point x="180.990234375" y="158.49609375" type="line"/>
      <point x="181.107421875" y="158.517578125"/>
      <point x="181.224609375" y="158.5390625"/>
      <point x="181.341796875" y="158.561523438" type="curve" smooth="yes"/>
      <point x="200.26953125" y="162.125"/>
      <point x="218.490234375" y="170.2265625"/>
      <point x="229.150390625" y="180.88671875" type="curve" smooth="yes"/>
      <point x="237.25390625" y="188.990234375"/>
      <point x="241.958007812" y="198.33203125"/>
      <point x="242.0" y="212.077148438" type="curve" smooth="yes"/>
      <point x="242.008789062" y="214.83984375"/>
      <point x="242.471679688" y="217.6015625"/>
      <point x="243.388671875" y="220.239257812" type="curve" smooth="yes"/>
      <point x="249.208984375" y="236.971679688"/>
      <point x="251.776367188" y="251.94140625"/>
      <point x="251.776367188" y="265.749023438" type="curve" smooth="yes"/>
      <point x="251.776367188" y="283.342773438"/>
      <point x="247.607421875" y="299.048828125"/>
      <point x="240.68359375" y="314.106445312" type="curve" smooth="yes"/>
      <point x="221.850585938" y="355.067382812"/>
      <point x="180.348632812" y="390.434570312"/>
      <point x="145.85546875" y="420.358398438" type="curve" smooth="yes"/>
      <point x="122.432617188" y="440.678710938"/>
      <point x="99.1416015625" y="460.44921875"/>
      <point x="79.6650390625" y="484.143554688" type="curve" smooth="yes"/>
      <point x="77.931640625" y="486.252929688"/>
      <point x="76.595703125" y="488.581054688"/>
      <point x="75.6572265625" y="491.026367188" type="curve" smooth="yes"/>
      <point x="68.705078125" y="509.159179688"/>
      <point x="65.4150390625" y="528.231445312"/>
      <point x="65.4150390625" y="547.265625" type="curve" smooth="yes"/>
      <point x="65.4150390625" y="592.0703125"/>
      <point x="83.64453125" y="636.658203125"/>
      <point x="115.232421875" y="668.247070312" type="curve" smooth="yes"/>
      <point x="128.956054688" y="681.969726562"/>
      <point x="145.342773438" y="693.303710938"/>
      <point x="164.0" y="700.97265625" type="curve"/>
      <point x="164.0" y="803.0" type="line" smooth="yes"/>
      <point x="164.0" y="809.399414062"/>
      <point x="166.439453125" y="815.799804688"/>
      <point x="171.317382812" y="820.677734375" type="curve" smooth="yes"/>
      <point x="176.1953125" y="825.555664062"/>
      <point x="182.595703125" y="827.995117188"/>
      <point x="188.995117188" y="827.995117188" type="curve" smooth="yes"/>
      <point x="195.39453125" y="827.995117188"/>
      <point x="201.794921875" y="825.555664062"/>
      <point x="206.672851562" y="820.677734375" type="curve" smooth="yes"/>
      <point x="211.55078125" y="815.799804688"/>
      <point x="213.990234375" y="809.399414062"/>
      <point x="213.990234375" y="803.0" type="curve" smooth="yes"/>
      <point x="213.990234375" y="696.796875" type="line"/>
      <point x="222.827148438" y="689.956054688"/>
      <point x="229.608398438" y="681.951171875"/>
      <point x="237.373046875" y="674.186523438" type="curve" smooth="yes"/>
      <point x="245.162109375" y="666.396484375"/>
      <point x="252.45703125" y="660.0"/>
      <point x="258.094726562" y="656.8828125" type="curve" smooth="yes"/>
      <point x="265.412109375" y="652.834960938"/>
      <point x="270.990234375" y="644.09765625"/>
    </contour>
  </outline>
</glyph>
<glyph name="percent" format="2">
  <advance width="551"/>
  <unicode hex="0025"/>
  <outline>
    <contour>
      <point x="350.0" y="317.0" type="curve" smooth="yes"/>
      <point x="350.0" y="343.064453125"/>
      <point x="359.524414062" y="366.938476562"/>
      <point x="376.234375" y="383.6484375" type="curve" smooth="yes"/>
      <point x="388.999023438" y="396.413085938"/>
      <point x="406.373046875" y="404.995117188"/>
      <point x="425.995117188" y="404.995117188" type="curve" smooth="yes"/>
      <point x="445.616210938" y="404.995117188"/>
      <point x="462.991210938" y="396.413085938"/>
      <point x="475.755859375" y="383.6484375" type="curve" smooth="yes"/>
      <point x="492.465820312" y="366.938476562"/>
      <point x="501.990234375" y="343.064453125"/>
      <point x="501.990234375" y="317.0" type="curve" smooth="yes"/>
      <point x="501.990234375" y="290.935546875"/>
      <point x="492.465820312" y="267.061523438"/>
      <point x="475.755859375" y="250.3515625" type="curve" smooth="yes"/>
      <point x="462.991210938" y="237.586914062"/>
      <point x="445.616210938" y="229.004882812"/>
      <point x="425.995117188" y="229.004882812" type="curve" smooth="yes"/>
      <point x="406.373046875" y="229.004882812"/>
      <point x="388.999023438" y="237.586914062"/>
      <point x="376.234375" y="250.3515625" type="curve" smooth="yes"/>
      <point x="359.524414062" y="267.061523438"/>
      <point x="350.0" y="290.935546875"/>
    </contour>
    <contour>
      <point x="399.990234375" y="317.0" type="curve" smooth="yes"/>
      <point x="399.990234375" y="303.356445312"/>
      <point x="405.266601562" y="292.029296875"/>
      <point x="411.588867188" y="285.70703125" type="curve" smooth="yes"/>
      <point x="416.395507812" y="280.900390625"/>
      <point x="421.3828125" y="278.995117188"/>
      <point x="425.995117188" y="278.995117188" type="curve" smooth="yes"/>
      <point x="430.607421875" y="278.995117188"/>
      <point x="435.594726562" y="280.900390625"/>
      <point x="440.401367188" y="285.70703125" type="curve" smooth="yes"/>
      <point x="446.72265625" y="292.029296875"/>
      <point x="452.0" y="303.356445312"/>
      <point x="452.0" y="317.0" type="curve" smooth="yes"/>
      <point x="452.0" y="330.643554688"/>
      <point x="446.72265625" y="341.970703125"/>
      <point x="440.401367188" y="348.29296875" type="curve" smooth="yes"/>
      <point x="435.594726562" y="353.099609375"/>
      <point x="430.607421875" y="355.004882812"/>
      <point x="425.995117188" y="355.004882812" type="curve" smooth="yes"/>
      <point x="421.3828125" y="355.004882812"/>
      <point x="416.395507812" y="353.099609375"/>
      <point x="411.588867188" y="348.29296875" type="curve" smooth="yes"/>
      <point x="405.266601562" y="341.970703125"/>
      <point x="399.990234375" y="330.643554688"/>
    </contour>
    <contour>
      <point x="50.0" y="617.0" type="curve" smooth="yes"/>
      <point x="50.0" y="643.064453125"/>
      <point x="59.5244140625" y="666.938476562"/>
      <point x="76.234375" y="683.6484375" type="curve" smooth="yes"/>
      <point x="88.9990234375" y="696.413085938"/>
      <point x="106.373046875" y="704.995117188"/>
      <point x="125.995117188" y="704.995117188" type="curve" smooth="yes"/>
      <point x="145.616210938" y="704.995117188"/>
      <point x="162.991210938" y="696.413085938"/>
      <point x="175.755859375" y="683.6484375" type="curve" smooth="yes"/>
      <point x="192.465820312" y="666.938476562"/>
      <point x="201.990234375" y="643.064453125"/>
      <point x="201.990234375" y="617.0" type="curve" smooth="yes"/>
      <point x="201.990234375" y="590.935546875"/>
      <point x="192.465820312" y="567.061523438"/>
      <point x="175.755859375" y="550.3515625" type="curve" smooth="yes"/>
      <point x="162.991210938" y="537.586914062"/>
      <point x="145.616210938" y="529.004882812"/>
      <point x="125.995117188" y="529.004882812" type="curve" smooth="yes"/>
      <point x="106.373046875" y="529.004882812"/>
      <point x="88.9990234375" y="537.586914062"/>
      <point x="76.234375" y="550.3515625" type="curve" smooth="yes"/>
      <point x="59.5244140625" y="567.061523438"/>
      <point x="50.0" y="590.935546875"/>
    </contour>
    <contour>
      <point x="99.990234375" y="617.0" type="curve" smooth="yes"/>
      <point x="99.990234375" y="603.356445312"/>
      <point x="105.266601562" y="592.029296875"/>
      <point x="111.588867188" y="585.70703125" type="curve" smooth="yes"/>
      <point x="116.395507812" y="580.900390625"/>
      <point x="121.3828125" y="578.995117188"/>
      <point x="125.995117188" y="578.995117188" type="curve" smooth="yes"/>
      <point x="130.607421875" y="578.995117188"/>
      <point x="135.594726562" y="580.900390625"/>
      <point x="140.401367188" y="585.70703125" type="curve" smooth="yes"/>
      <point x="146.72265625" y="592.029296875"/>
      <point x="152.0" y="603.356445312"/>
      <point x="152.0" y="617.0" type="curve" smooth="yes"/>
      <point x="152.0" y="630.643554688"/>
      <point x="146.72265625" y="641.970703125"/>
      <point x="140.401367188" y="648.29296875" type="curve" smooth="yes"/>
      <point x="135.594726562" y="653.099609375"/>
      <point x="130.607421875" y="655.004882812"/>
      <point x="125.995117188" y="655.004882812" type="curve" smooth="yes"/>
      <point x="121.3828125" y="655.004882812"/>
      <point x="116.395507812" y="653.099609375"/>
      <point x="111.588867188" y="648.29296875" type="curve" smooth="yes"/>
      <point x="105.266601562" y="641.970703125"/>
      <point x="99.990234375" y="630.643554688"/>
    </contour>
    <contour>
      <point x="416.995117188" y="671.995117188" type="curve" smooth="yes"/>
      <point x="423.39453125" y="671.995117188"/>
      <point x="429.794921875" y="669.555664062"/>
      <point x="434.672851562" y="664.677734375" type="curve" smooth="yes"/>
      <point x="439.55078125" y="659.799804688"/>
      <point x="441.990234375" y="653.399414062"/>
      <point x="441.990234375" y="647.0" type="curve" smooth="yes"/>
      <point x="441.990234375" y="641.930664062"/>
      <point x="440.459960938" y="636.861328125"/>
      <point x="437.3984375" y="632.547851562" type="curve" smooth="yes"/>
      <point x="107.3984375" y="167.547851562" type="line" smooth="yes"/>
      <point x="102.9765625" y="161.31640625"/>
      <point x="94.970703125" y="157.004882812"/>
      <point x="86.9951171875" y="157.004882812" type="curve" smooth="yes"/>
      <point x="80.595703125" y="157.004882812"/>
      <point x="74.1953125" y="159.444335938"/>
      <point x="69.3173828125" y="164.322265625" type="curve" smooth="yes"/>
      <point x="64.439453125" y="169.200195312"/>
      <point x="62.0" y="175.600585938"/>
      <point x="62.0" y="182.0" type="curve" smooth="yes"/>
      <point x="62.0" y="187.069335938"/>
      <point x="63.5302734375" y="192.138671875"/>
      <point x="66.591796875" y="196.452148438" type="curve" smooth="yes"/>
      <point x="396.591796875" y="661.452148438" type="line" smooth="yes"/>
      <point x="401.013671875" y="667.68359375"/>
      <point x="409.01953125" y="671.995117188"/>
    </contour>
  </outline>
</glyph>
<glyph name="ampersand" format="2">
  <advance width="428"/>
  <unicode hex="0026"/>
  <outline>
    <contour>
      <point x="298.793945312" y="546.864257812" type="curve" smooth="yes"/>
      <point x="298.793945312" y="464.100585938"/>
      <point x="242.93359375" y="412.325195312"/>
      <point x="195.90625" y="368.979492188" type="curve"/>
      <point x="214.8984375" y="323.901367188"/>
      <point x="234.604492188" y="266.053710938"/>
      <point x="257.696289062" y="232.0234375" type="curve" smooth="yes"/>
      <point x="294.802734375" y="177.340820312" type="line"/>
      <point x="302.474609375" y="190.216796875"/>
      <point x="309.387695312" y="204.1796875"/>
      <point x="314.86328125" y="217.694335938" type="curve" smooth="yes"/>
      <point x="324.12109375" y="240.546875"/>
      <point x="329.0" y="262.375"/>
      <point x="329.0" y="272.0" type="curve" smooth="yes"/>
      <point x="329.0" y="278.399414062"/>
      <point x="331.439453125" y="284.799804688"/>
      <point x="336.317382812" y="289.677734375" type="curve" smooth="yes"/>
      <point x="341.1953125" y="294.555664062"/>
      <point x="347.595703125" y="296.995117188"/>
      <point x="353.995117188" y="296.995117188" type="curve" smooth="yes"/>
      <point x="360.39453125" y="296.995117188"/>
      <point x="366.794921875" y="294.555664062"/>
      <point x="371.672851562" y="289.677734375" type="curve" smooth="yes"/>
      <point x="376.55078125" y="284.799804688"/>
      <point x="378.990234375" y="278.399414062"/>
      <point x="378.990234375" y="272.0" type="curve" smooth="yes"/>
      <point x="378.990234375" y="250.69140625"/>
      <point x="371.998046875" y="225.544921875"/>
      <point x="361.196289062" y="198.879882812" type="curve" smooth="yes"/>
      <point x="352.077148438" y="176.37109375"/>
      <point x="340.055664062" y="152.965820312"/>
      <point x="325.359375" y="132.30859375" type="curve"/>
      <point x="360.047851562" y="81.1904296875" type="line" smooth="yes"/>
      <point x="362.91015625" y="76.9716796875"/>
      <point x="364.341796875" y="72.0693359375"/>
      <point x="364.341796875" y="67.1669921875" type="curve" smooth="yes"/>
      <point x="364.341796875" y="60.767578125"/>
      <point x="361.90234375" y="54.3671875"/>
      <point x="357.024414062" y="49.4892578125" type="curve" smooth="yes"/>
      <point x="352.146484375" y="44.611328125"/>
      <point x="345.74609375" y="42.171875"/>
      <point x="339.346679688" y="42.171875" type="curve" smooth="yes"/>
      <point x="331.157226562" y="42.171875"/>
      <point x="323.013671875" y="46.7060546875"/>
      <point x="318.645507812" y="53.1435546875" type="curve" smooth="yes"/>
      <point x="290.715820312" y="94.3037109375" type="line"/>
      <point x="275.681640625" y="82.078125"/>
      <point x="257.852539062" y="73.0048828125"/>
      <point x="236.995117188" y="73.0048828125" type="curve" smooth="yes"/>
      <point x="171.807617188" y="73.0048828125"/>
      <point x="118.760742188" y="79.724609375"/>
      <point x="84.7265625" y="113.7578125" type="curve" smooth="yes"/>
      <point x="61.1328125" y="137.352539062"/>
      <point x="50.0" y="171.442382812"/>
      <point x="50.0" y="215.0" type="curve" smooth="yes"/>
      <point x="50.0" y="290.216796875"/>
      <point x="93.10546875" y="340.362304688"/>
      <point x="135.380859375" y="380.911132812" type="curve" smooth="yes"/>
      <point x="133.981445312" y="383.641601562"/>
      <point x="132.575195312" y="386.280273438"/>
      <point x="131.158203125" y="388.817382812" type="curve" smooth="yes"/>
      <point x="120.206054688" y="408.44140625"/>
      <point x="117.559570312" y="428.08984375"/>
      <point x="115.059570312" y="444.181640625" type="curve" smooth="yes"/>
      <point x="112.813476562" y="458.643554688"/>
      <point x="110.71875" y="470.620117188"/>
      <point x="106.17578125" y="480.778320312" type="curve" smooth="yes"/>
      <point x="104.725585938" y="484.021484375"/>
      <point x="104.0" y="487.510742188"/>
      <point x="104.0" y="491.0" type="curve" smooth="yes"/>
      <point x="104.0" y="644.0" type="line" smooth="yes"/>
      <point x="104.0" y="647.1015625"/>
      <point x="104.573242188" y="650.203125"/>
      <point x="105.71875" y="653.131835938" type="curve" smooth="yes"/>
      <point x="132.71875" y="722.131835938" type="line" smooth="yes"/>
      <point x="134.73828125" y="727.29296875"/>
      <point x="138.796875" y="731.961914062"/>
      <point x="143.560546875" y="734.694335938" type="curve" smooth="yes"/>
      <point x="151.395507812" y="739.1875"/>
      <point x="156.892578125" y="746.79296875"/>
      <point x="163.403320312" y="753.303710938" type="curve" smooth="yes"/>
      <point x="169.708007812" y="759.608398438"/>
      <point x="178.715820312" y="766.994140625"/>
      <point x="191.02734375" y="771.5703125" type="curve" smooth="yes"/>
      <point x="200.822265625" y="775.2109375"/>
      <point x="212.0625" y="776.995117188"/>
      <point x="224.995117188" y="776.995117188" type="curve" smooth="yes"/>
      <point x="240.065429688" y="776.995117188"/>
      <point x="253.4609375" y="770.399414062"/>
      <point x="262.838867188" y="761.021484375" type="curve" smooth="yes"/>
      <point x="280.192382812" y="743.66796875"/>
      <point x="287.328125" y="717.692382812"/>
      <point x="291.658203125" y="689.043945312" type="curve" smooth="yes"/>
      <point x="296.715820312" y="655.57421875"/>
      <point x="296.930664062" y="619.092773438"/>
      <point x="297.162109375" y="593.12109375" type="curve" smooth="yes"/>
      <point x="297.276367188" y="580.208007812"/>
      <point x="297.469726562" y="569.537109375"/>
      <point x="297.870117188" y="565.458984375" type="curve" smooth="yes"/>
      <point x="298.494140625" y="559.09375"/>
      <point x="298.793945312" y="552.8984375"/>
    </contour>
    <contour>
      <point x="224.995117188" y="727.004882812" type="curve" smooth="yes"/>
      <point x="216.5625" y="727.004882812"/>
      <point x="211.643554688" y="725.884765625"/>
      <point x="208.49609375" y="724.71484375" type="curve" smooth="yes"/>
      <point x="204.627929688" y="723.276367188"/>
      <point x="202.479492188" y="721.668945312"/>
      <point x="198.758789062" y="717.948242188" type="curve" smooth="yes"/>
      <point x="191.37890625" y="710.568359375"/>
      <point x="185.471679688" y="703.185546875"/>
      <point x="176.388671875" y="696.501953125" type="curve"/>
      <point x="153.990234375" y="639.260742188" type="line"/>
      <point x="153.990234375" y="496.038085938" type="line"/>
      <point x="160.271484375" y="480.056640625"/>
      <point x="162.448242188" y="464.817382812"/>
      <point x="164.454101562" y="451.90625" type="curve" smooth="yes"/>
      <point x="166.756835938" y="437.079101562"/>
      <point x="168.881835938" y="425.520507812"/>
      <point x="173.28515625" y="416.193359375" type="curve"/>
      <point x="179.379882812" y="421.89453125"/>
      <point x="185.309570312" y="427.552734375"/>
      <point x="190.97265625" y="433.216796875" type="curve" smooth="yes"/>
      <point x="225.392578125" y="467.63671875"/>
      <point x="248.833007812" y="500.21875"/>
      <point x="248.833007812" y="546.318359375" type="curve" smooth="yes"/>
      <point x="248.833007812" y="550.918945312"/>
      <point x="248.599609375" y="555.655273438"/>
      <point x="248.120117188" y="560.541015625" type="curve" smooth="yes"/>
      <point x="247.28515625" y="569.049804688"/>
      <point x="247.290039062" y="579.52734375"/>
      <point x="247.173828125" y="592.672851562" type="curve" smooth="yes"/>
      <point x="246.849609375" y="629.133789062"/>
      <point x="245.896484375" y="684.232421875"/>
      <point x="234.475585938" y="713.41015625" type="curve" smooth="yes"/>
      <point x="231.9296875" y="719.915039062"/>
      <point x="229.092773438" y="724.057617188"/>
      <point x="227.484375" y="725.666015625" type="curve" smooth="yes"/>
      <point x="226.283203125" y="726.8671875"/>
      <point x="226.02734375" y="727.025390625"/>
      <point x="225.587890625" y="727.025390625" type="curve" smooth="yes"/>
      <point x="225.430664062" y="727.025390625"/>
      <point x="225.25" y="727.004882812"/>
    </contour>
    <contour>
      <point x="99.990234375" y="215.0" type="curve" smooth="yes"/>
      <point x="99.990234375" y="179.419921875"/>
      <point x="108.564453125" y="160.631835938"/>
      <point x="120.08203125" y="149.11328125" type="curve" smooth="yes"/>
      <point x="128.463867188" y="140.731445312"/>
      <point x="140.37890625" y="134.4296875"/>
      <point x="157.032226562" y="130.135742188" type="curve" smooth="yes"/>
      <point x="177.740234375" y="124.796875"/>
      <point x="205.0859375" y="122.857421875"/>
      <point x="236.791015625" y="122.849609375" type="curve" smooth="yes"/>
      <point x="238.060546875" y="122.82421875"/>
      <point x="252.775390625" y="127.447265625"/>
      <point x="262.45703125" y="135.947265625" type="curve"/>
      <point x="216.293945312" y="203.9765625" type="line" smooth="yes"/>
      <point x="190.651367188" y="241.765625"/>
      <point x="174.6328125" y="288.143554688"/>
      <point x="156.9921875" y="331.9921875" type="curve"/>
      <point x="123.1640625" y="297.451171875"/>
      <point x="99.990234375" y="263.1875"/>
    </contour>
  </outline>
</glyph>
<glyph name="quotesingle" format="2">
  <advance width="152"/>
  <unicode hex="0027"/>
  <outline>
    <contour>
      <point x="77.9951171875" y="752.995117188" type="curve" smooth="yes"/>
      <point x="84.39453125" y="752.995117188"/>
      <point x="90.794921875" y="750.555664062"/>
      <point x="95.6728515625" y="745.677734375" type="curve" smooth="yes"/>
      <point x="100.55078125" y="740.799804688"/>
      <point x="102.990234375" y="734.399414062"/>
      <point x="102.990234375" y="728.0" type="curve" smooth="yes"/>
      <point x="102.990234375" y="727.7734375"/>
      <point x="102.987304688" y="727.545898438"/>
      <point x="102.981445312" y="727.319335938" type="curve" smooth="yes"/>
      <point x="99.9814453125" y="616.319335938" type="line" smooth="yes"/>
      <point x="99.814453125" y="610.1484375"/>
      <point x="97.3779296875" y="604.02734375"/>
      <point x="92.6728515625" y="599.322265625" type="curve" smooth="yes"/>
      <point x="87.794921875" y="594.444335938"/>
      <point x="81.39453125" y="592.004882812"/>
      <point x="74.9951171875" y="592.004882812" type="curve" smooth="yes"/>
      <point x="68.595703125" y="592.004882812"/>
      <point x="62.1953125" y="594.444335938"/>
      <point x="57.3173828125" y="599.322265625" type="curve" smooth="yes"/>
      <point x="52.439453125" y="604.200195312"/>
      <point x="50.0" y="610.600585938"/>
      <point x="50.0" y="617.0" type="curve" smooth="yes"/>
      <point x="50.0" y="617.2265625"/>
      <point x="50.0029296875" y="617.454101562"/>
      <point x="50.0087890625" y="617.680664062" type="curve" smooth="yes"/>
      <point x="53.0087890625" y="728.680664062" type="line" smooth="yes"/>
      <point x="53.17578125" y="734.8515625"/>
      <point x="55.6123046875" y="740.97265625"/>
      <point x="60.3173828125" y="745.677734375" type="curve" smooth="yes"/>
      <point x="65.1953125" y="750.555664062"/>
      <point x="71.595703125" y="752.995117188"/>
    </contour>
  </outline>
</glyph>
<glyph name="parenleft" format="2">
  <advance width="203"/>
  <unicode hex="0028"/>
  <outline>
    <contour>
      <point x="99.990234375" y="467.0" type="curve" smooth="yes"/>
      <point x="99.990234375" y="336.032226562"/>
      <point x="105.1015625" y="216.509765625"/>
      <point x="113.46875" y="126.421875" type="curve" smooth="yes"/>
      <point x="120.143554688" y="54.55859375"/>
      <point x="129.538085938" y="0.6318359375"/>
      <point x="137.805664062" y="-21.3046875" type="curve"/>
      <point x="140.1171875" y="-26.6044921875" type="line"/>
      <point x="147.92578125" y="-30.48046875"/>
      <point x="153.990234375" y="-39.4560546875"/>
      <point x="153.990234375" y="-49.0" type="curve" smooth="yes"/>
      <point x="153.990234375" y="-55.3994140625"/>
      <point x="151.55078125" y="-61.7998046875"/>
      <point x="146.672851562" y="-66.677734375" type="curve" smooth="yes"/>
      <point x="141.794921875" y="-71.5556640625"/>
      <point x="135.39453125" y="-73.9951171875"/>
      <point x="128.995117188" y="-73.9951171875" type="curve" smooth="yes"/>
      <point x="118.189453125" y="-73.9951171875"/>
      <point x="110.260742188" y="-68.5107421875"/>
      <point x="105.575195312" y="-63.8251953125" type="curve" smooth="yes"/>
      <point x="99.4794921875" y="-57.7294921875"/>
      <point x="96.267578125" y="-51.421875"/>
      <point x="93.3056640625" y="-44.615234375" type="curve" smooth="yes"/>
      <point x="89.5908203125" y="-36.0771484375"/>
      <point x="86.5615234375" y="-26.2470703125"/>
      <point x="83.689453125" y="-14.6826171875" type="curve" smooth="yes"/>
      <point x="77.25" y="11.2421875"/>
      <point x="71.78125" y="46.02734375"/>
      <point x="67.068359375" y="88.52734375" type="curve" smooth="yes"/>
      <point x="56.478515625" y="184.01953125"/>
      <point x="50.0" y="318.145507812"/>
      <point x="50.0" y="467.0" type="curve" smooth="yes"/>
      <point x="50.0" y="615.854492188"/>
      <point x="56.478515625" y="749.98046875"/>
      <point x="67.068359375" y="845.47265625" type="curve" smooth="yes"/>
      <point x="71.78125" y="887.97265625"/>
      <point x="77.25" y="922.7578125"/>
      <point x="83.689453125" y="948.682617188" type="curve" smooth="yes"/>
      <point x="86.5615234375" y="960.247070312"/>
      <point x="89.5908203125" y="970.077148438"/>
      <point x="93.3056640625" y="978.615234375" type="curve" smooth="yes"/>
      <point x="96.267578125" y="985.421875"/>
      <point x="99.4794921875" y="991.729492188"/>
      <point x="105.575195312" y="997.825195312" type="curve" smooth="yes"/>
      <point x="110.260742188" y="1002.51074219"/>
      <point x="118.189453125" y="1007.99511719"/>
      <point x="128.995117188" y="1007.99511719" type="curve" smooth="yes"/>
      <point x="135.39453125" y="1007.99511719"/>
      <point x="141.794921875" y="1005.55566406"/>
      <point x="146.672851562" y="1000.67773438" type="curve" smooth="yes"/>
      <point x="151.55078125" y="995.799804688"/>
      <point x="153.990234375" y="989.399414062"/>
      <point x="153.990234375" y="983.0" type="curve" smooth="yes"/>
      <point x="153.990234375" y="973.517578125"/>
      <point x="147.993164062" y="964.571289062"/>
      <point x="140.249023438" y="960.670898438" type="curve" smooth="yes"/>
      <point x="138.48828125" y="956.782226562"/>
      <point x="135.108398438" y="948.284179688"/>
      <point x="132.19921875" y="936.5703125" type="curve" smooth="yes"/>
      <point x="126.681640625" y="914.352539062"/>
      <point x="121.313476562" y="881.065429688"/>
      <point x="116.750976562" y="839.923828125" type="curve" smooth="yes"/>
      <point x="106.471679688" y="747.219726562"/>
      <point x="99.990234375" y="614.325195312"/>
    </contour>
  </outline>
</glyph>
<glyph name="parenright" format="2">
  <advance width="203"/>
  <unicode hex="0029"/>
  <outline>
    <contour>
      <point x="74.9951171875" y="-73.9951171875" type="curve" smooth="yes"/>
      <point x="68.595703125" y="-73.9951171875"/>
      <point x="62.1953125" y="-71.5556640625"/>
      <point x="57.3173828125" y="-66.677734375" type="curve" smooth="yes"/>
      <point x="52.439453125" y="-61.7998046875"/>
      <point x="50.0" y="-55.3994140625"/>
      <point x="50.0" y="-49.0" type="curve" smooth="yes"/>
      <point x="50.0" y="-39.4580078125"/>
      <point x="56.0625" y="-30.4814453125"/>
      <point x="63.873046875" y="-26.6044921875" type="curve"/>
      <point x="66.1845703125" y="-21.3046875" type="line"/>
      <point x="74.4521484375" y="0.6318359375"/>
      <point x="83.8466796875" y="54.55859375"/>
      <point x="90.521484375" y="126.421875" type="curve" smooth="yes"/>
      <point x="98.888671875" y="216.509765625"/>
      <point x="104.0" y="336.032226562"/>
      <point x="104.0" y="467.0" type="curve" smooth="yes"/>
      <point x="104.0" y="614.325195312"/>
      <point x="97.5185546875" y="747.219726562"/>
      <point x="87.23828125" y="839.923828125" type="curve" smooth="yes"/>
      <point x="82.6767578125" y="881.065429688"/>
      <point x="77.30859375" y="914.352539062"/>
      <point x="71.791015625" y="936.5703125" type="curve" smooth="yes"/>
      <point x="68.8818359375" y="948.284179688"/>
      <point x="65.501953125" y="956.782226562"/>
      <point x="63.7412109375" y="960.670898438" type="curve" smooth="yes"/>
      <point x="55.9990234375" y="964.5703125"/>
      <point x="50.0" y="973.515625"/>
      <point x="50.0" y="983.0" type="curve" smooth="yes"/>
      <point x="50.0" y="989.399414062"/>
      <point x="52.439453125" y="995.799804688"/>
      <point x="57.3173828125" y="1000.67773438" type="curve" smooth="yes"/>
      <point x="62.1953125" y="1005.55566406"/>
      <point x="68.595703125" y="1007.99511719"/>
      <point x="74.9951171875" y="1007.99511719" type="curve" smooth="yes"/>
      <point x="85.80078125" y="1007.99511719"/>
      <point x="93.7294921875" y="1002.51074219"/>
      <point x="98.4150390625" y="997.825195312" type="curve" smooth="yes"/>
      <point x="104.510742188" y="991.729492188"/>
      <point x="107.72265625" y="985.421875"/>
      <point x="110.684570312" y="978.615234375" type="curve" smooth="yes"/>
      <point x="114.399414062" y="970.077148438"/>
      <point x="117.428710938" y="960.247070312"/>
      <point x="120.30078125" y="948.682617188" type="curve" smooth="yes"/>
      <point x="126.739257812" y="922.7578125"/>
      <point x="132.208984375" y="887.97265625"/>
      <point x="136.921875" y="845.47265625" type="curve" smooth="yes"/>
      <point x="147.51171875" y="749.98046875"/>
      <point x="153.990234375" y="615.854492188"/>
      <point x="153.990234375" y="467.0" type="curve" smooth="yes"/>
      <point x="153.990234375" y="318.145507812"/>
      <point x="147.51171875" y="184.01953125"/>
      <point x="136.921875" y="88.52734375" type="curve" smooth="yes"/>
      <point x="132.208984375" y="46.02734375"/>
      <point x="126.739257812" y="11.2421875"/>
      <point x="120.30078125" y="-14.6826171875" type="curve" smooth="yes"/>
      <point x="117.428710938" y="-26.2470703125"/>
      <point x="114.399414062" y="-36.0771484375"/>
      <point x="110.684570312" y="-44.615234375" type="curve" smooth="yes"/>
      <point x="107.72265625" y="-51.421875"/>
      <point x="104.510742188" y="-57.7294921875"/>
      <point x="98.4150390625" y="-63.8251953125" type="curve" smooth="yes"/>
      <point x="93.7294921875" y="-68.5107421875"/>
      <point x="85.80078125" y="-73.9951171875"/>
    </contour>
  </outline>
</glyph>
<glyph name="asterisk" format="2">
  <advance width="380"/>
  <unicode hex="002A"/>
  <outline>
    <contour>
      <point x="303.995117188" y="592.995117188" type="curve" smooth="yes"/>
      <point x="310.39453125" y="592.995117188"/>
      <point x="316.794921875" y="590.555664062"/>
      <point x="321.672851562" y="585.677734375" type="curve" smooth="yes"/>
      <point x="326.55078125" y="580.799804688"/>
      <point x="328.990234375" y="574.399414062"/>
      <point x="328.990234375" y="568.0" type="curve" smooth="yes"/>
      <point x="328.990234375" y="561.686523438"/>
      <point x="326.616210938" y="555.372070312"/>
      <point x="321.868164062" y="550.51953125" type="curve" smooth="yes"/>
      <point x="94.673828125" y="318.321289062" type="line" smooth="yes"/>
      <point x="89.7958984375" y="313.443359375"/>
      <point x="83.39453125" y="311.004882812"/>
      <point x="76.9951171875" y="311.004882812" type="curve" smooth="yes"/>
      <point x="70.595703125" y="311.004882812"/>
      <point x="64.1953125" y="313.444335938"/>
      <point x="59.3173828125" y="318.322265625" type="curve" smooth="yes"/>
      <point x="54.439453125" y="323.200195312"/>
      <point x="52.0" y="329.600585938"/>
      <point x="52.0" y="336.0" type="curve" smooth="yes"/>
      <point x="52.0" y="342.313476562"/>
      <point x="54.3740234375" y="348.627929688"/>
      <point x="59.1220703125" y="353.48046875" type="curve" smooth="yes"/>
      <point x="286.31640625" y="585.678710938" type="line" smooth="yes"/>
      <point x="291.194335938" y="590.556640625"/>
      <point x="297.595703125" y="592.995117188"/>
    </contour>
    <contour>
      <point x="50.0" y="565.0" type="curve" smooth="yes"/>
      <point x="50.0" y="571.399414062"/>
      <point x="52.439453125" y="577.799804688"/>
      <point x="57.3173828125" y="582.677734375" type="curve" smooth="yes"/>
      <point x="62.1953125" y="587.555664062"/>
      <point x="68.595703125" y="589.995117188"/>
      <point x="74.9951171875" y="589.995117188" type="curve" smooth="yes"/>
      <point x="81.30859375" y="589.995117188"/>
      <point x="87.6220703125" y="587.62109375"/>
      <point x="92.474609375" y="582.874023438" type="curve" smooth="yes"/>
      <point x="323.673828125" y="356.678710938" type="line" smooth="yes"/>
      <point x="328.551757812" y="351.80078125"/>
      <point x="330.990234375" y="345.399414062"/>
      <point x="330.990234375" y="339.0" type="curve" smooth="yes"/>
      <point x="330.990234375" y="332.600585938"/>
      <point x="328.55078125" y="326.200195312"/>
      <point x="323.672851562" y="321.322265625" type="curve" smooth="yes"/>
      <point x="318.794921875" y="316.444335938"/>
      <point x="312.39453125" y="314.004882812"/>
      <point x="305.995117188" y="314.004882812" type="curve" smooth="yes"/>
      <point x="299.681640625" y="314.004882812"/>
      <point x="293.368164062" y="316.37890625"/>
      <point x="288.515625" y="321.125976562" type="curve" smooth="yes"/>
      <point x="57.31640625" y="547.321289062" type="line" smooth="yes"/>
      <point x="52.4384765625" y="552.19921875"/>
      <point x="50.0" y="558.600585938"/>
    </contour>
    <contour>
      <point x="163.999023438" y="614.0" type="line" smooth="yes"/>
      <point x="163.999023438" y="620.399414062"/>
      <point x="166.439453125" y="626.799804688"/>
      <point x="171.317382812" y="631.677734375" type="curve" smooth="yes"/>
      <point x="176.1953125" y="636.555664062"/>
      <point x="182.595703125" y="638.995117188"/>
      <point x="188.995117188" y="638.995117188" type="curve" smooth="yes"/>
      <point x="195.39453125" y="638.995117188"/>
      <point x="201.794921875" y="636.555664062"/>
      <point x="206.672851562" y="631.677734375" type="curve" smooth="yes"/>
      <point x="211.4921875" y="626.858398438"/>
      <point x="213.930664062" y="620.5546875"/>
      <point x="213.989257812" y="614.233398438" type="curve" smooth="yes"/>
      <point x="216.991210938" y="290.0" type="line" smooth="yes"/>
      <point x="216.991210938" y="283.600585938"/>
      <point x="214.55078125" y="277.200195312"/>
      <point x="209.672851562" y="272.322265625" type="curve" smooth="yes"/>
      <point x="204.794921875" y="267.444335938"/>
      <point x="198.39453125" y="265.004882812"/>
      <point x="191.995117188" y="265.004882812" type="curve" smooth="yes"/>
      <point x="185.595703125" y="265.004882812"/>
      <point x="179.1953125" y="267.444335938"/>
      <point x="174.317382812" y="272.322265625" type="curve" smooth="yes"/>
      <point x="169.498046875" y="277.141601562"/>
      <point x="167.059570312" y="283.4453125"/>
      <point x="167.000976562" y="289.766601562" type="curve" smooth="yes"/>
    </contour>
  </outline>
</glyph>
<glyph name="plus" format="2">
  <advance width="428"/>
  <unicode hex="002B"/>
  <outline>
    <contour>
      <point x="181.0" y="554.0" type="line" smooth="yes"/>
      <point x="181.0" y="560.399414062"/>
      <point x="183.439453125" y="566.799804688"/>
      <point x="188.317382812" y="571.677734375" type="curve" smooth="yes"/>
      <point x="193.1953125" y="576.555664062"/>
      <point x="199.595703125" y="578.995117188"/>
      <point x="205.995117188" y="578.995117188" type="curve" smooth="yes"/>
      <point x="212.39453125" y="578.995117188"/>
      <point x="218.794921875" y="576.555664062"/>
      <point x="223.672851562" y="571.677734375" type="curve" smooth="yes"/>
      <point x="228.55078125" y="566.799804688"/>
      <point x="230.990234375" y="560.399414062"/>
      <point x="230.990234375" y="554.0" type="curve" smooth="yes"/>
      <point x="230.990234375" y="273.0" type="line" smooth="yes"/>
      <point x="230.990234375" y="266.600585938"/>
      <point x="228.55078125" y="260.200195312"/>
      <point x="223.672851562" y="255.322265625" type="curve" smooth="yes"/>
      <point x="218.794921875" y="250.444335938"/>
      <point x="212.39453125" y="248.004882812"/>
      <point x="205.995117188" y="248.004882812" type="curve" smooth="yes"/>
      <point x="199.595703125" y="248.004882812"/>
      <point x="193.1953125" y="250.444335938"/>
      <point x="188.317382812" y="255.322265625" type="curve" smooth="yes"/>
      <point x="183.439453125" y="260.200195312"/>
      <point x="181.0" y="266.600585938"/>
      <point x="181.0" y="273.0" type="curve" smooth="yes"/>
    </contour>
    <contour>
      <point x="74.9951171875" y="386.004882812" type="line" smooth="yes"/>
      <point x="68.595703125" y="386.004882812"/>
      <point x="62.1953125" y="388.444335938"/>
      <point x="57.3173828125" y="393.322265625" type="curve" smooth="yes"/>
      <point x="52.439453125" y="398.200195312"/>
      <point x="50.0" y="404.600585938"/>
      <point x="50.0" y="411.0" type="curve" smooth="yes"/>
      <point x="50.0" y="417.399414062"/>
      <point x="52.439453125" y="423.799804688"/>
      <point x="57.3173828125" y="428.677734375" type="curve" smooth="yes"/>
      <point x="62.1953125" y="433.555664062"/>
      <point x="68.595703125" y="435.995117188"/>
      <point x="74.9951171875" y="435.995117188" type="curve" smooth="yes"/>
      <point x="353.995117188" y="435.995117188" type="line" smooth="yes"/>
      <point x="360.39453125" y="435.995117188"/>
      <point x="366.794921875" y="433.555664062"/>
      <point x="371.672851562" y="428.677734375" type="curve" smooth="yes"/>
      <point x="376.55078125" y="423.799804688"/>
      <point x="378.990234375" y="417.399414062"/>
      <point x="378.990234375" y="411.0" type="curve" smooth="yes"/>
      <point x="378.990234375" y="404.600585938"/>
      <point x="376.55078125" y="398.200195312"/>
      <point x="371.672851562" y="393.322265625" type="curve" smooth="yes"/>
      <point x="366.794921875" y="388.444335938"/>
      <point x="360.39453125" y="386.004882812"/>
      <point x="353.995117188" y="386.004882812" type="curve" smooth="yes"/>
    </contour>
  </outline>
</glyph>
<glyph name="hyphen" format="2">
  <advance width="497"/>
  <unicode hex="002D"/>
  <outline>
    <contour>
      <point x="74.9951171875" y="386.004882812" type="line" smooth="yes"/>
      <point x="68.595703125" y="386.004882812"/>
      <point x="62.1953125" y="388.444335938"/>
      <point x="57.3173828125" y="393.322265625" type="curve" smooth="yes"/>
      <point x="52.439453125" y="398.200195312"/>
      <point x="50.0" y="404.600585938"/>
      <point x="50.0" y="411.0" type="curve" smooth="yes"/>
      <point x="50.0" y="417.399414062"/>
      <point x="52.439453125" y="423.799804688"/>
      <point x="57.3173828125" y="428.677734375" type="curve" smooth="yes"/>
      <point x="62.1953125" y="433.555664062"/>
      <point x="68.595703125" y="435.995117188"/>
      <point x="74.9951171875" y="435.995117188" type="curve" smooth="yes"/>
      <point x="422.995117188" y="435.995117188" type="line" smooth="yes"/>
      <point x="429.39453125" y="435.995117188"/>
      <point x="435.794921875" y="433.555664062"/>
      <point x="440.672851562" y="428.677734375" type="curve" smooth="yes"/>
      <point x="445.55078125" y="423.799804688"/>
      <point x="447.990234375" y="417.399414062"/>
      <point x="447.990234375" y="411.0" type="curve" smooth="yes"/>
      <point x="447.990234375" y="404.600585938"/>
      <point x="445.55078125" y="398.200195312"/>
      <point x="440.672851562" y="393.322265625" type="curve" smooth="yes"/>
      <point x="435.794921875" y="388.444335938"/>
      <point x="429.39453125" y="386.004882812"/>
      <point x="422.995117188" y="386.004882812" type="curve" smooth="yes"/>
    </contour>
  </outline>
</glyph>
<glyph name="slash" format="2">
  <advance width="380"/>
  <unicode hex="002F"/>
  <outline>
    <contour>
      <point x="74.9951171875" y="82.0048828125" type="curve" smooth="yes"/>
      <point x="68.595703125" y="82.0048828125"/>
      <point x="62.1953125" y="84.4443359375"/>
      <point x="57.3173828125" y="89.322265625" type="curve" smooth="yes"/>
      <point x="52.439453125" y="94.2001953125"/>
      <point x="50.0" y="100.600585938"/>
      <point x="50.0" y="107.0" type="curve" smooth="yes"/>
      <point x="50.0" y="110.260742188"/>
      <point x="50.6337890625" y="113.522460938"/>
      <point x="51.900390625" y="116.58203125" type="curve" smooth="yes"/>
      <point x="282.900390625" y="674.58203125" type="line" smooth="yes"/>
      <point x="286.4453125" y="683.146484375"/>
      <point x="295.782226562" y="689.995117188"/>
      <point x="305.995117188" y="689.995117188" type="curve" smooth="yes"/>
      <point x="312.39453125" y="689.995117188"/>
      <point x="318.794921875" y="687.555664062"/>
      <point x="323.672851562" y="682.677734375" type="curve" smooth="yes"/>
      <point x="328.55078125" y="677.799804688"/>
      <point x="330.990234375" y="671.399414062"/>
      <point x="330.990234375" y="665.0" type="curve" smooth="yes"/>
      <point x="330.990234375" y="661.739257812"/>
      <point x="330.356445312" y="658.477539062"/>
      <point x="329.08984375" y="655.41796875" type="curve" smooth="yes"/>
      <point x="98.08984375" y="97.41796875" type="line" smooth="yes"/>
      <point x="94.544921875" y="88.853515625"/>
      <point x="85.2080078125" y="82.0048828125"/>
    </contour>
  </outline>
</glyph>
<glyph name="zero" format="2">
  <advance width="293"/>
  <unicode hex="0030"/>
  <outline>
    <contour>
      <point x="50.0" y="205.0" type="curve" smooth="yes"/>
      <point x="50.0" y="255.54296875"/>
      <point x="56.2587890625" y="302.044921875"/>
      <point x="67.2958984375" y="339.637695312" type="curve" smooth="yes"/>
      <point x="76.0927734375" y="369.594726562"/>
      <point x="87.587890625" y="394.60546875"/>
      <point x="104.901367188" y="411.918945312" type="curve" smooth="yes"/>
      <point x="115.548828125" y="422.56640625"/>
      <point x="129.841796875" y="430.995117188"/>
      <point x="146.995117188" y="430.995117188" type="curve" smooth="yes"/>
      <point x="164.1484375" y="430.995117188"/>
      <point x="178.44140625" y="422.56640625"/>
      <point x="189.088867188" y="411.918945312" type="curve" smooth="yes"/>
      <point x="206.40234375" y="394.60546875"/>
      <point x="217.897460938" y="369.594726562"/>
      <point x="226.694335938" y="339.637695312" type="curve" smooth="yes"/>
      <point x="237.731445312" y="302.044921875"/>
      <point x="243.990234375" y="255.54296875"/>
      <point x="243.990234375" y="205.0" type="curve" smooth="yes"/>
      <point x="243.990234375" y="154.45703125"/>
      <point x="237.731445312" y="107.955078125"/>
      <point x="226.694335938" y="70.3623046875" type="curve" smooth="yes"/>
      <point x="217.897460938" y="40.4052734375"/>
      <point x="206.40234375" y="15.39453125"/>
      <point x="189.088867188" y="-1.9189453125" type="curve" smooth="yes"/>
      <point x="178.44140625" y="-12.56640625"/>
      <point x="164.1484375" y="-20.9951171875"/>
      <point x="146.995117188" y="-20.9951171875" type="curve" smooth="yes"/>
      <point x="129.841796875" y="-20.9951171875"/>
      <point x="115.548828125" y="-12.56640625"/>
      <point x="104.901367188" y="-1.9189453125" type="curve" smooth="yes"/>
      <point x="87.587890625" y="15.39453125"/>
      <point x="76.0927734375" y="40.4052734375"/>
      <point x="67.2958984375" y="70.3623046875" type="curve" smooth="yes"/>
      <point x="56.2587890625" y="107.955078125"/>
      <point x="50.0" y="154.45703125"/>
    </contour>
    <contour>
      <point x="99.990234375" y="205.0" type="curve" smooth="yes"/>
      <point x="99.990234375" y="158.684570312"/>
      <point x="105.915039062" y="116.322265625"/>
      <point x="115.255859375" y="84.5078125" type="curve" smooth="yes"/>
      <point x="122.763671875" y="58.939453125"/>
      <point x="132.817382812" y="40.8759765625"/>
      <point x="140.256835938" y="33.4365234375" type="curve" smooth="yes"/>
      <point x="144.41015625" y="29.283203125"/>
      <point x="146.37890625" y="28.9873046875"/>
      <point x="146.870117188" y="28.9873046875" type="curve" smooth="yes"/>
      <point x="146.951171875" y="28.9873046875"/>
      <point x="146.9921875" y="28.9951171875"/>
      <point x="146.995117188" y="28.9951171875" type="curve" smooth="yes"/>
      <point x="147.014648438" y="28.9951171875"/>
      <point x="149.291992188" y="28.9951171875"/>
      <point x="153.733398438" y="33.4365234375" type="curve" smooth="yes"/>
      <point x="161.172851562" y="40.8759765625"/>
      <point x="171.2265625" y="58.939453125"/>
      <point x="178.734375" y="84.5078125" type="curve" smooth="yes"/>
      <point x="188.075195312" y="116.322265625"/>
      <point x="194.0" y="158.684570312"/>
      <point x="194.0" y="205.0" type="curve" smooth="yes"/>
      <point x="194.0" y="251.315429688"/>
      <point x="188.075195312" y="293.677734375"/>
      <point x="178.734375" y="325.4921875" type="curve" smooth="yes"/>
      <point x="171.2265625" y="351.060546875"/>
      <point x="161.172851562" y="369.124023438"/>
      <point x="153.733398438" y="376.563476562" type="curve" smooth="yes"/>
      <point x="149.580078125" y="380.716796875"/>
      <point x="147.611328125" y="381.012695312"/>
      <point x="147.120117188" y="381.012695312" type="curve" smooth="yes"/>
      <point x="147.0390625" y="381.012695312"/>
      <point x="146.998046875" y="381.004882812"/>
      <point x="146.995117188" y="381.004882812" type="curve" smooth="yes"/>
      <point x="146.975585938" y="381.004882812"/>
      <point x="144.698242188" y="381.004882812"/>
      <point x="140.256835938" y="376.563476562" type="curve" smooth="yes"/>
      <point x="132.817382812" y="369.124023438"/>
      <point x="122.763671875" y="351.060546875"/>
      <point x="115.255859375" y="325.4921875" type="curve" smooth="yes"/>
      <point x="105.915039062" y="293.677734375"/>
      <point x="99.990234375" y="251.315429688"/>
    </contour>
  </outline>
</glyph>
<glyph name="one" format="2">
  <advance width="308"/>
  <unicode hex="0031"/>
  <outline>
    <contour>
      <point x="74.9951171875" y="-24.9951171875" type="line" smooth="yes"/>
      <point x="68.595703125" y="-24.9951171875"/>
      <point x="62.1953125" y="-22.5556640625"/>
      <point x="57.3173828125" y="-17.677734375" type="curve" smooth="yes"/>
      <point x="52.439453125" y="-12.7998046875"/>
      <point x="50.0" y="-6.3994140625"/>
      <point x="50.0" y="0.0" type="curve" smooth="yes"/>
      <point x="50.0" y="6.3994140625"/>
      <point x="52.439453125" y="12.7998046875"/>
      <point x="57.3173828125" y="17.677734375" type="curve" smooth="yes"/>
      <point x="62.1953125" y="22.5556640625"/>
      <point x="68.595703125" y="24.9951171875"/>
      <point x="74.9951171875" y="24.9951171875" type="curve" smooth="yes"/>
      <point x="130.0" y="24.9951171875" type="line"/>
      <point x="130.0" y="351.326171875" type="line"/>
      <point x="109.528320312" y="331.178710938" type="line" smooth="yes"/>
      <point x="104.66796875" y="326.396484375"/>
      <point x="98.33203125" y="324.004882812"/>
      <point x="91.9951171875" y="324.004882812" type="curve" smooth="yes"/>
      <point x="85.595703125" y="324.004882812"/>
      <point x="79.1953125" y="326.444335938"/>
      <point x="74.3173828125" y="331.322265625" type="curve" smooth="yes"/>
      <point x="69.439453125" y="336.200195312"/>
      <point x="67.0" y="342.600585938"/>
      <point x="67.0" y="349.0" type="curve" smooth="yes"/>
      <point x="67.0" y="355.399414062"/>
      <point x="69.3994140625" y="361.838867188"/>
      <point x="74.31640625" y="366.678710938" type="curve" smooth="yes"/>
      <point x="137.461914062" y="428.821289062" type="line" smooth="yes"/>
      <point x="142.322265625" y="433.603515625"/>
      <point x="148.658203125" y="435.995117188"/>
      <point x="154.995117188" y="435.995117188" type="curve" smooth="yes"/>
      <point x="161.39453125" y="435.995117188"/>
      <point x="167.794921875" y="433.555664062"/>
      <point x="172.672851562" y="428.677734375" type="curve" smooth="yes"/>
      <point x="177.55078125" y="423.799804688"/>
      <point x="179.990234375" y="417.399414062"/>
      <point x="179.990234375" y="411.0" type="curve" smooth="yes"/>
      <point x="179.990234375" y="24.9951171875" type="line"/>
      <point x="233.995117188" y="24.9951171875" type="line" smooth="yes"/>
      <point x="240.39453125" y="24.9951171875"/>
      <point x="246.794921875" y="22.5556640625"/>
      <point x="251.672851562" y="17.677734375" type="curve" smooth="yes"/>
      <point x="256.55078125" y="12.7998046875"/>
      <point x="258.990234375" y="6.3994140625"/>
      <point x="258.990234375" y="0.0" type="curve" smooth="yes"/>
      <point x="258.990234375" y="-6.3994140625"/>
      <point x="256.55078125" y="-12.7998046875"/>
      <point x="251.672851562" y="-17.677734375" type="curve" smooth="yes"/>
      <point x="246.794921875" y="-22.5556640625"/>
      <point x="240.39453125" y="-24.9951171875"/>
      <point x="233.995117188" y="-24.9951171875" type="curve" smooth="yes"/>
      <point x="154.995117188" y="-24.9951171875" type="line"/>
    </contour>
  </outline>
</glyph>
<glyph name="two" format="2">
  <advance width="405"/>
  <unicode hex="0032"/>
  <outline>
    <contour>
      <point x="232.110351562" y="436.088867188" type="curve" smooth="yes"/>
      <point x="262.787109375" y="436.088867188"/>
      <point x="289.352539062" y="423.756835938"/>
      <point x="308.940429688" y="404.169921875" type="curve" smooth="yes"/>
      <point x="323.56640625" y="389.543945312"/>
      <point x="334.213867188" y="371.44140625"/>
      <point x="341.466796875" y="351.614257812" type="curve" smooth="yes"/>
      <point x="350.142578125" y="327.4140625"/>
      <point x="355.45703125" y="303.458007812"/>
      <point x="355.45703125" y="279.53125" type="curve" smooth="yes"/>
      <point x="355.45703125" y="245.127929688"/>
      <point x="344.916015625" y="214.583984375"/>
      <point x="323.405273438" y="184.556640625" type="curve" smooth="yes"/>
      <point x="306.995117188" y="161.161132812"/>
      <point x="290.248046875" y="141.5859375"/>
      <point x="273.16796875" y="124.505859375" type="curve" smooth="yes"/>
      <point x="232.171875" y="83.509765625"/>
      <point x="190.733398438" y="57.78515625"/>
      <point x="146.294921875" y="24.9951171875" type="curve"/>
      <point x="329.995117188" y="24.9951171875" type="line" smooth="yes"/>
      <point x="336.39453125" y="24.9951171875"/>
      <point x="342.794921875" y="22.5556640625"/>
      <point x="347.672851562" y="17.677734375" type="curve" smooth="yes"/>
      <point x="352.55078125" y="12.7998046875"/>
      <point x="354.990234375" y="6.3994140625"/>
      <point x="354.990234375" y="0.0" type="curve" smooth="yes"/>
      <point x="354.990234375" y="-6.3994140625"/>
      <point x="352.55078125" y="-12.7998046875"/>
      <point x="347.672851562" y="-17.677734375" type="curve" smooth="yes"/>
      <point x="342.794921875" y="-22.5556640625"/>
      <point x="336.39453125" y="-24.9951171875"/>
      <point x="329.995117188" y="-24.9951171875" type="curve" smooth="yes"/>
      <point x="74.9951171875" y="-24.9951171875" type="line" smooth="yes"/>
      <point x="68.595703125" y="-24.9951171875"/>
      <point x="62.1953125" y="-22.5556640625"/>
      <point x="57.3173828125" y="-17.677734375" type="curve" smooth="yes"/>
      <point x="52.439453125" y="-12.7998046875"/>
      <point x="50.0" y="-6.3994140625"/>
      <point x="50.0" y="0.0" type="curve" smooth="yes"/>
      <point x="50.0" y="6.994140625"/>
      <point x="53.1552734375" y="14.1025390625"/>
      <point x="58.533203125" y="18.81640625" type="curve" smooth="yes"/>
      <point x="91.126953125" y="47.3818359375"/>
      <point x="121.265625" y="68.8359375"/>
      <point x="148.916992188" y="88.5419921875" type="curve" smooth="yes"/>
      <point x="181.497070312" y="111.760742188"/>
      <point x="210.418945312" y="132.467773438"/>
      <point x="237.8125" y="159.861328125" type="curve" smooth="yes"/>
      <point x="253.037109375" y="175.0859375"/>
      <point x="267.568359375" y="192.51171875"/>
      <point x="282.665039062" y="213.555664062" type="curve" smooth="yes"/>
      <point x="299.139648438" y="236.520507812"/>
      <point x="305.467773438" y="256.208007812"/>
      <point x="305.467773438" y="279.56640625" type="curve" smooth="yes"/>
      <point x="305.467773438" y="295.99609375"/>
      <point x="301.870117188" y="313.891601562"/>
      <point x="294.522460938" y="334.385742188" type="curve" smooth="yes"/>
      <point x="289.325195312" y="348.59375"/>
      <point x="282.0078125" y="360.391601562"/>
      <point x="273.584960938" y="368.814453125" type="curve" smooth="yes"/>
      <point x="262.50390625" y="379.89453125"/>
      <point x="249.387695312" y="386.106445312"/>
      <point x="232.416992188" y="386.106445312" type="curve" smooth="yes"/>
      <point x="194.373046875" y="386.106445312"/>
      <point x="174.536132812" y="371.198242188"/>
      <point x="143.998046875" y="348.728515625" type="curve" smooth="yes"/>
      <point x="127.986328125" y="336.947265625"/>
      <point x="109.63671875" y="323.364257812"/>
      <point x="86.1826171875" y="311.637695312" type="curve" smooth="yes"/>
      <point x="82.6728515625" y="309.8828125"/>
      <point x="78.833984375" y="309.004882812"/>
      <point x="74.9951171875" y="309.004882812" type="curve" smooth="yes"/>
      <point x="68.595703125" y="309.004882812"/>
      <point x="62.1953125" y="311.444335938"/>
      <point x="57.3173828125" y="316.322265625" type="curve" smooth="yes"/>
      <point x="52.439453125" y="321.200195312"/>
      <point x="50.0" y="327.600585938"/>
      <point x="50.0" y="334.0" type="curve" smooth="yes"/>
      <point x="50.0" y="343.512695312"/>
      <point x="56.0302734375" y="352.473632812"/>
      <point x="63.8076171875" y="356.362304688" type="curve" smooth="yes"/>
      <point x="82.7802734375" y="365.848632812"/>
      <point x="98.3564453125" y="377.229492188"/>
      <point x="114.401367188" y="389.03515625" type="curve" smooth="yes"/>
      <point x="144.166992188" y="410.9375"/>
      <point x="177.999023438" y="436.088867188"/>
    </contour>
  </outline>
</glyph>
<glyph name="three" format="2">
  <advance width="478"/>
  <unicode hex="0033"/>
  <outline>
    <contour>
      <point x="428.2421875" y="-78.6376953125" type="curve" smooth="yes"/>
      <point x="428.2421875" y="-98.3486328125"/>
      <point x="424.451171875" y="-118.684570312"/>
      <point x="416.202148438" y="-139.305664062" type="curve" smooth="yes"/>
      <point x="410.469726562" y="-153.638671875"/>
      <point x="402.33984375" y="-165.892578125"/>
      <point x="392.369140625" y="-175.864257812" type="curve" smooth="yes"/>
      <point x="358.008789062" y="-210.223632812"/>
      <point x="308.299804688" y="-215.015625"/>
      <point x="263.752929688" y="-215.015625" type="curve" smooth="yes"/>
      <point x="210.0234375" y="-215.015625"/>
      <point x="171.793945312" y="-199.322265625"/>
      <point x="134.671875" y="-184.079101562" type="curve" smooth="yes"/>
      <point x="113.879882812" y="-175.541992188"/>
      <point x="93.0478515625" y="-167.017578125"/>
      <point x="68.224609375" y="-160.06640625" type="curve" smooth="yes"/>
      <point x="58.236328125" y="-157.26953125"/>
      <point x="50.0" y="-147.326171875"/>
      <point x="50.0" y="-136.0" type="curve" smooth="yes"/>
      <point x="50.0" y="-129.600585938"/>
      <point x="52.439453125" y="-123.200195312"/>
      <point x="57.3173828125" y="-118.322265625" type="curve" smooth="yes"/>
      <point x="62.1953125" y="-113.444335938"/>
      <point x="68.595703125" y="-111.004882812"/>
      <point x="74.9951171875" y="-111.004882812" type="curve" smooth="yes"/>
      <point x="77.275390625" y="-111.004882812"/>
      <point x="79.5546875" y="-111.314453125"/>
      <point x="81.765625" y="-111.93359375" type="curve" smooth="yes"/>
      <point x="109.829101562" y="-119.791015625"/>
      <point x="132.93359375" y="-129.306640625"/>
      <point x="153.703125" y="-137.834960938" type="curve" smooth="yes"/>
      <point x="191.184570312" y="-153.224609375"/>
      <point x="219.921875" y="-165.02734375"/>
      <point x="263.5234375" y="-165.02734375" type="curve" smooth="yes"/>
      <point x="305.268554688" y="-165.02734375"/>
      <point x="339.590820312" y="-157.931640625"/>
      <point x="357.013671875" y="-140.508789062" type="curve" smooth="yes"/>
      <point x="362.095703125" y="-135.42578125"/>
      <point x="366.405273438" y="-129.150390625"/>
      <point x="369.788085938" y="-120.694335938" type="curve" smooth="yes"/>
      <point x="375.782226562" y="-105.70703125"/>
      <point x="378.486328125" y="-92.013671875"/>
      <point x="378.486328125" y="-78.8125" type="curve" smooth="yes"/>
      <point x="378.486328125" y="-67.236328125"/>
      <point x="376.407226562" y="-56.0380859375"/>
      <point x="372.64453125" y="-44.6787109375" type="curve" smooth="yes"/>
      <point x="366.146484375" y="-25.0615234375"/>
      <point x="354.002929688" y="-4.6982421875"/>
      <point x="337.305664062" y="16.5908203125" type="curve" smooth="yes"/>
      <point x="329.986328125" y="25.798828125"/>
      <point x="322.790039062" y="33.8056640625"/>
      <point x="315.45703125" y="41.138671875" type="curve" smooth="yes"/>
      <point x="285.19921875" y="71.396484375"/>
      <point x="253.611328125" y="88.759765625"/>
      <point x="215.58203125" y="109.462890625" type="curve" smooth="yes"/>
      <point x="190.723632812" y="122.995117188"/>
      <point x="163.383789062" y="137.852539062"/>
      <point x="133.741210938" y="158.45703125" type="curve" smooth="yes"/>
      <point x="127.416992188" y="162.853515625"/>
      <point x="123.0" y="170.92578125"/>
      <point x="123.0" y="179.0" type="curve" smooth="yes"/>
      <point x="123.0" y="185.118164062"/>
      <point x="125.229492188" y="191.236328125"/>
      <point x="129.6875" y="196.025390625" type="curve" smooth="yes"/>
      <point x="306.565429688" y="386.004882812" type="line"/>
      <point x="75.9951171875" y="386.004882812" type="line" smooth="yes"/>
      <point x="69.595703125" y="386.004882812"/>
      <point x="63.1953125" y="388.444335938"/>
      <point x="58.3173828125" y="393.322265625" type="curve" smooth="yes"/>
      <point x="53.439453125" y="398.200195312"/>
      <point x="51.0" y="404.600585938"/>
      <point x="51.0" y="411.0" type="curve" smooth="yes"/>
      <point x="51.0" y="417.399414062"/>
      <point x="53.439453125" y="423.799804688"/>
      <point x="58.3173828125" y="428.677734375" type="curve" smooth="yes"/>
      <point x="63.1953125" y="433.555664062"/>
      <point x="69.595703125" y="435.995117188"/>
      <point x="75.9951171875" y="435.995117188" type="curve" smooth="yes"/>
      <point x="363.995117188" y="435.995117188" type="line" smooth="yes"/>
      <point x="370.39453125" y="435.995117188"/>
      <point x="376.794921875" y="433.555664062"/>
      <point x="381.672851562" y="428.677734375" type="curve" smooth="yes"/>
      <point x="386.55078125" y="423.799804688"/>
      <point x="388.990234375" y="417.399414062"/>
      <point x="388.990234375" y="411.0" type="curve" smooth="yes"/>
      <point x="388.990234375" y="404.881835938"/>
      <point x="386.760742188" y="398.763671875"/>
      <point x="382.302734375" y="393.974609375" type="curve" smooth="yes"/>
      <point x="186.4765625" y="183.643554688" type="line"/>
      <point x="245.774414062" y="146.849609375"/>
      <point x="298.2890625" y="129.017578125"/>
      <point x="350.8125" y="76.494140625" type="curve" smooth="yes"/>
      <point x="378.637695312" y="48.66796875"/>
      <point x="407.28125" y="9.7822265625"/>
      <point x="420.094726562" y="-28.9013671875" type="curve" smooth="yes"/>
      <point x="425.380859375" y="-44.8603515625"/>
      <point x="428.2421875" y="-61.513671875"/>
    </contour>
  </outline>
</glyph>
<glyph name="four" format="2">
  <advance width="469"/>
  <unicode hex="0034"/>
  <outline>
    <contour>
      <point x="290.995117188" y="435.995117188" type="curve" smooth="yes"/>
      <point x="297.39453125" y="435.995117188"/>
      <point x="303.794921875" y="433.555664062"/>
      <point x="308.672851562" y="428.677734375" type="curve" smooth="yes"/>
      <point x="313.55078125" y="423.799804688"/>
      <point x="315.990234375" y="417.399414062"/>
      <point x="315.990234375" y="411.0" type="curve" smooth="yes"/>
      <point x="315.990234375" y="406.998046875"/>
      <point x="315.036132812" y="402.99609375"/>
      <point x="313.12890625" y="399.366210938" type="curve" smooth="yes"/>
      <point x="116.37890625" y="24.9951171875" type="line"/>
      <point x="394.995117188" y="24.9951171875" type="line" smooth="yes"/>
      <point x="401.39453125" y="24.9951171875"/>
      <point x="407.794921875" y="22.5556640625"/>
      <point x="412.672851562" y="17.677734375" type="curve" smooth="yes"/>
      <point x="417.55078125" y="12.7998046875"/>
      <point x="419.990234375" y="6.3994140625"/>
      <point x="419.990234375" y="0.0" type="curve" smooth="yes"/>
      <point x="419.990234375" y="-6.3994140625"/>
      <point x="417.55078125" y="-12.7998046875"/>
      <point x="412.672851562" y="-17.677734375" type="curve" smooth="yes"/>
      <point x="407.794921875" y="-22.5556640625"/>
      <point x="401.39453125" y="-24.9951171875"/>
      <point x="394.995117188" y="-24.9951171875" type="curve" smooth="yes"/>
      <point x="74.9951171875" y="-24.9951171875" type="line" smooth="yes"/>
      <point x="68.595703125" y="-24.9951171875"/>
      <point x="62.1953125" y="-22.5556640625"/>
      <point x="57.3173828125" y="-17.677734375" type="curve" smooth="yes"/>
      <point x="52.439453125" y="-12.7998046875"/>
      <point x="50.0" y="-6.3994140625"/>
      <point x="50.0" y="0.0" type="curve" smooth="yes"/>
      <point x="50.0" y="4.001953125"/>
      <point x="50.9541015625" y="8.00390625"/>
      <point x="52.861328125" y="11.6337890625" type="curve" smooth="yes"/>
      <point x="268.861328125" y="422.633789062" type="line" smooth="yes"/>
      <point x="272.830078125" y="430.184570312"/>
      <point x="281.682617188" y="435.995117188"/>
    </contour>
    <contour>
      <point x="315.990234375" y="-205.0" type="line" smooth="yes"/>
      <point x="315.990234375" y="-211.399414062"/>
      <point x="313.55078125" y="-217.799804688"/>
      <point x="308.672851562" y="-222.677734375" type="curve" smooth="yes"/>
      <point x="303.794921875" y="-227.555664062"/>
      <point x="297.39453125" y="-229.995117188"/>
      <point x="290.995117188" y="-229.995117188" type="curve" smooth="yes"/>
      <point x="284.595703125" y="-229.995117188"/>
      <point x="278.1953125" y="-227.555664062"/>
      <point x="273.317382812" y="-222.677734375" type="curve" smooth="yes"/>
      <point x="268.439453125" y="-217.799804688"/>
      <point x="266.0" y="-211.399414062"/>
      <point x="266.0" y="-205.0" type="curve" smooth="yes"/>
      <point x="266.0" y="411.0" type="line" smooth="yes"/>
      <point x="266.0" y="417.399414062"/>
      <point x="268.439453125" y="423.799804688"/>
      <point x="273.317382812" y="428.677734375" type="curve" smooth="yes"/>
      <point x="278.1953125" y="433.555664062"/>
      <point x="284.595703125" y="435.995117188"/>
      <point x="290.995117188" y="435.995117188" type="curve" smooth="yes"/>
      <point x="297.39453125" y="435.995117188"/>
      <point x="303.794921875" y="433.555664062"/>
      <point x="308.672851562" y="428.677734375" type="curve" smooth="yes"/>
      <point x="313.55078125" y="423.799804688"/>
      <point x="315.990234375" y="417.399414062"/>
      <point x="315.990234375" y="411.0" type="curve" smooth="yes"/>
    </contour>
    <contour>
      <point x="314.0" y="-199.0" type="curve" smooth="yes"/>
      <point x="314.0" y="-192.600585938"/>
      <point x="316.439453125" y="-186.200195312"/>
      <point x="321.317382812" y="-181.322265625" type="curve" smooth="yes"/>
      <point x="326.1953125" y="-176.444335938"/>
      <point x="332.595703125" y="-174.004882812"/>
      <point x="338.995117188" y="-174.004882812" type="curve" smooth="yes"/>
      <point x="345.39453125" y="-174.004882812"/>
      <point x="351.794921875" y="-176.444335938"/>
      <point x="356.672851562" y="-181.322265625" type="curve" smooth="yes"/>
      <point x="361.55078125" y="-186.200195312"/>
      <point x="363.990234375" y="-192.600585938"/>
      <point x="363.990234375" y="-199.0" type="curve" smooth="yes"/>
      <point x="363.990234375" y="-205.399414062"/>
      <point x="361.55078125" y="-211.799804688"/>
      <point x="356.672851562" y="-216.677734375" type="curve" smooth="yes"/>
      <point x="351.794921875" y="-221.555664062"/>
      <point x="345.39453125" y="-223.995117188"/>
      <point x="338.995117188" y="-223.995117188" type="curve" smooth="yes"/>
      <point x="332.595703125" y="-223.995117188"/>
      <point x="326.1953125" y="-221.555664062"/>
      <point x="321.317382812" y="-216.677734375" type="curve" smooth="yes"/>
      <point x="316.439453125" y="-211.799804688"/>
      <point x="314.0" y="-205.399414062"/>
    </contour>
  </outline>
</glyph>
<glyph name="five" format="2">
  <advance width="509"/>
  <unicode hex="0035"/>
  <outline>
    <contour>
      <point x="135.267578125" y="212.568359375" type="line"/>
      <point x="173.098632812" y="218.157226562"/>
      <point x="208.389648438" y="231.377929688"/>
      <point x="250.53515625" y="231.377929688" type="curve" smooth="yes"/>
      <point x="272.015625" y="231.377929688"/>
      <point x="294.768554688" y="227.647460938"/>
      <point x="319.092773438" y="216.875" type="curve" smooth="yes"/>
      <point x="337.981445312" y="208.55078125"/>
      <point x="353.676757812" y="197.719726562"/>
      <point x="366.517578125" y="184.87890625" type="curve" smooth="yes"/>
      <point x="400.03125" y="151.364257812"/>
      <point x="412.872070312" y="107.478515625"/>
      <point x="425.965820312" y="63.10546875" type="curve" smooth="yes"/>
      <point x="435.41015625" y="31.09765625"/>
      <point x="442.0" y="2.115234375"/>
      <point x="442.0" y="-27.7998046875" type="curve" smooth="yes"/>
      <point x="442.0" y="-59.4208984375"/>
      <point x="435.673828125" y="-85.3056640625"/>
      <point x="421.799804688" y="-116.254882812" type="curve" smooth="yes"/>
      <point x="413.251953125" y="-135.293945312"/>
      <point x="402.397460938" y="-150.956054688"/>
      <point x="389.54296875" y="-163.809570312" type="curve" smooth="yes"/>
      <point x="364.352539062" y="-189.000976562"/>
      <point x="333.87890625" y="-202.108398438"/>
      <point x="300.737304688" y="-216.028320312" type="curve" smooth="yes"/>
      <point x="279.236328125" y="-225.106445312"/>
      <point x="259.227539062" y="-230.981445312"/>
      <point x="238.9296875" y="-233.578125" type="curve" smooth="yes"/>
      <point x="230.532226562" y="-234.651367188"/>
      <point x="222.17578125" y="-235.153320312"/>
      <point x="213.735351562" y="-235.153320312" type="curve" smooth="yes"/>
      <point x="196.62109375" y="-235.153320312"/>
      <point x="178.823242188" y="-233.258789062"/>
      <point x="160.063476562" y="-229.506835938" type="curve" smooth="yes"/>
      <point x="128.04296875" y="-223.103515625"/>
      <point x="107.771484375" y="-206.806640625"/>
      <point x="90.7919921875" y="-193.211914062" type="curve" smooth="yes"/>
      <point x="81.4794921875" y="-185.754882812"/>
      <point x="72.7421875" y="-178.80859375"/>
      <point x="62.138671875" y="-172.446289062" type="curve" smooth="yes"/>
      <point x="55.1669921875" y="-168.263671875"/>
      <point x="50.0" y="-159.74609375"/>
      <point x="50.0" y="-151.0" type="curve" smooth="yes"/>
      <point x="50.0" y="-144.600585938"/>
      <point x="52.439453125" y="-138.200195312"/>
      <point x="57.3173828125" y="-133.322265625" type="curve" smooth="yes"/>
      <point x="62.1953125" y="-128.444335938"/>
      <point x="68.595703125" y="-126.004882812"/>
      <point x="74.9951171875" y="-126.004882812" type="curve" smooth="yes"/>
      <point x="79.4521484375" y="-126.004882812"/>
      <point x="83.908203125" y="-127.1875"/>
      <point x="87.8515625" y="-129.553710938" type="curve" smooth="yes"/>
      <point x="101.8125" y="-137.930664062"/>
      <point x="112.71484375" y="-146.708007812"/>
      <point x="122.004882812" y="-154.145507812" type="curve" smooth="yes"/>
      <point x="139.389648438" y="-168.065429688"/>
      <point x="149.970703125" y="-176.471679688"/>
      <point x="169.784179688" y="-180.463867188" type="curve" smooth="yes"/>
      <point x="186.553710938" y="-183.602539062"/>
      <point x="200.581054688" y="-185.18359375"/>
      <point x="213.5859375" y="-185.18359375" type="curve" smooth="yes"/>
      <point x="220.088867188" y="-185.18359375"/>
      <point x="226.3359375" y="-184.788085938"/>
      <point x="232.541992188" y="-183.994140625" type="curve" smooth="yes"/>
      <point x="247.502929688" y="-182.080078125"/>
      <point x="262.75390625" y="-177.782226562"/>
      <point x="281.251953125" y="-169.971679688" type="curve" smooth="yes"/>
      <point x="314.286132812" y="-156.09765625"/>
      <point x="337.7265625" y="-144.915039062"/>
      <point x="354.1875" y="-128.454101562" type="curve" smooth="yes"/>
      <point x="362.624023438" y="-120.018554688"/>
      <point x="369.85546875" y="-109.854492188"/>
      <point x="376.190429688" y="-95.7451171875" type="curve" smooth="yes"/>
      <point x="387.704101562" y="-70.0615234375"/>
      <point x="392.006835938" y="-51.57421875"/>
      <point x="392.006835938" y="-27.9267578125" type="curve" smooth="yes"/>
      <point x="392.006835938" y="-5.474609375"/>
      <point x="386.959960938" y="19.732421875"/>
      <point x="377.744140625" y="49.8076171875" type="curve" smooth="yes"/>
      <point x="363.985351562" y="94.7099609375"/>
      <point x="352.807617188" y="127.877929688"/>
      <point x="331.162109375" y="149.5234375" type="curve" smooth="yes"/>
      <point x="322.809570312" y="157.875976562"/>
      <point x="312.616210938" y="165.079101562"/>
      <point x="298.897460938" y="171.125" type="curve" smooth="yes"/>
      <point x="281.7578125" y="178.715820312"/>
      <point x="266.375976562" y="181.591796875"/>
      <point x="250.73046875" y="181.591796875" type="curve" smooth="yes"/>
      <point x="231.745117188" y="181.591796875"/>
      <point x="212.372070312" y="177.356445312"/>
      <point x="189.000976562" y="172.168945312" type="curve" smooth="yes"/>
      <point x="166.708007812" y="167.221679688"/>
      <point x="141.5078125" y="161.555664062"/>
      <point x="112.301757812" y="160.0390625" type="curve" smooth="yes"/>
      <point x="111.866210938" y="160.016601562"/>
      <point x="111.430664062" y="160.004882812"/>
      <point x="110.995117188" y="160.004882812" type="curve" smooth="yes"/>
      <point x="104.595703125" y="160.004882812"/>
      <point x="98.1953125" y="162.444335938"/>
      <point x="93.3173828125" y="167.322265625" type="curve" smooth="yes"/>
      <point x="88.609375" y="172.030273438"/>
      <point x="86.1728515625" y="178.15625"/>
      <point x="86.0087890625" y="184.33203125" type="curve" smooth="yes"/>
      <point x="80.0087890625" y="410.33203125" type="line" smooth="yes"/>
      <point x="80.0029296875" y="410.5546875"/>
      <point x="80.0" y="410.77734375"/>
      <point x="80.0" y="411.0" type="curve" smooth="yes"/>
      <point x="80.0" y="417.399414062"/>
      <point x="82.439453125" y="423.799804688"/>
      <point x="87.3173828125" y="428.677734375" type="curve" smooth="yes"/>
      <point x="92.1953125" y="433.555664062"/>
      <point x="98.595703125" y="435.995117188"/>
      <point x="104.995117188" y="435.995117188" type="curve" smooth="yes"/>
      <point x="434.995117188" y="435.995117188" type="line" smooth="yes"/>
      <point x="441.39453125" y="435.995117188"/>
      <point x="447.794921875" y="433.555664062"/>
      <point x="452.672851562" y="428.677734375" type="curve" smooth="yes"/>
      <point x="457.55078125" y="423.799804688"/>
      <point x="459.990234375" y="417.399414062"/>
      <point x="459.990234375" y="411.0" type="curve" smooth="yes"/>
      <point x="459.990234375" y="404.600585938"/>
      <point x="457.55078125" y="398.200195312"/>
      <point x="452.672851562" y="393.322265625" type="curve" smooth="yes"/>
      <point x="447.794921875" y="388.444335938"/>
      <point x="441.39453125" y="386.004882812"/>
      <point x="434.995117188" y="386.004882812" type="curve" smooth="yes"/>
      <point x="130.663085938" y="386.004882812" type="line"/>
    </contour>
  </outline>
</glyph>
<glyph name="six" format="2">
  <advance width="325"/>
  <unicode hex="0036"/>
  <outline>
    <contour>
      <point x="123.728515625" y="330.0" type="curve" smooth="yes"/>
      <point x="123.728515625" y="336.399414062"/>
      <point x="126.16796875" y="342.799804688"/>
      <point x="131.045898438" y="347.677734375" type="curve" smooth="yes"/>
      <point x="135.924804688" y="352.555664062"/>
      <point x="142.32421875" y="354.995117188"/>
      <point x="148.723632812" y="354.995117188" type="curve" smooth="yes"/>
      <point x="150.890625" y="354.995117188"/>
      <point x="153.057617188" y="354.715820312"/>
      <point x="155.166015625" y="354.15625" type="curve" smooth="yes"/>
      <point x="172.306640625" y="349.608398438"/>
      <point x="194.5" y="342.984375"/>
      <point x="213.272460938" y="324.2109375" type="curve" smooth="yes"/>
      <point x="237.80078125" y="299.68359375"/>
      <point x="250.71875" y="260.412109375"/>
      <point x="250.71875" y="197.0" type="curve" smooth="yes"/>
      <point x="250.71875" y="145.126953125"/>
      <point x="244.07421875" y="97.3154296875"/>
      <point x="232.52734375" y="58.6767578125" type="curve" smooth="yes"/>
      <point x="223.322265625" y="27.8740234375"/>
      <point x="211.33203125" y="2.2275390625"/>
      <point x="193.65625" y="-15.447265625" type="curve" smooth="yes"/>
      <point x="182.752929688" y="-26.3515625"/>
      <point x="168.211914062" y="-34.9951171875"/>
      <point x="150.723632812" y="-34.9951171875" type="curve" smooth="yes"/>
      <point x="134.055664062" y="-34.9951171875"/>
      <point x="120.02734375" y="-26.9365234375"/>
      <point x="109.723632812" y="-16.6318359375" type="curve" smooth="yes"/>
      <point x="92.0107421875" y="1.080078125"/>
      <point x="81.0478515625" y="26.7890625"/>
      <point x="72.185546875" y="57.45703125" type="curve" smooth="yes"/>
      <point x="61.0498046875" y="95.9970703125"/>
      <point x="53.93359375" y="143.76171875"/>
      <point x="50.775390625" y="195.46484375" type="curve" smooth="yes"/>
      <point x="50.2529296875" y="204.026367188"/>
      <point x="50.0" y="212.5234375"/>
      <point x="50.0" y="220.956054688" type="curve" smooth="yes"/>
      <point x="50.0" y="350.041015625"/>
      <point x="109.161132812" y="464.139648438"/>
      <point x="162.517578125" y="568.734375" type="curve" smooth="yes"/>
      <point x="186.864257812" y="616.459960938"/>
      <point x="210.275390625" y="662.473632812"/>
      <point x="227.39453125" y="706.995117188" type="curve" smooth="yes"/>
      <point x="230.803710938" y="715.861328125"/>
      <point x="240.26953125" y="722.995117188"/>
      <point x="250.723632812" y="722.995117188" type="curve" smooth="yes"/>
      <point x="257.123046875" y="722.995117188"/>
      <point x="263.5234375" y="720.555664062"/>
      <point x="268.401367188" y="715.677734375" type="curve" smooth="yes"/>
      <point x="273.279296875" y="710.799804688"/>
      <point x="275.71875" y="704.399414062"/>
      <point x="275.71875" y="698.0" type="curve" smooth="yes"/>
      <point x="275.71875" y="694.946289062"/>
      <point x="275.1640625" y="691.892578125"/>
      <point x="274.052734375" y="689.004882812" type="curve" smooth="yes"/>
      <point x="255.625976562" y="641.081054688"/>
      <point x="231.41015625" y="593.73046875"/>
      <point x="207.0625" y="546.000976562" type="curve" smooth="yes"/>
      <point x="153.211914062" y="440.438476562"/>
      <point x="100.006835938" y="334.260742188"/>
      <point x="100.006835938" y="220.448242188" type="curve" smooth="yes"/>
      <point x="100.006835938" y="213.17578125"/>
      <point x="100.223632812" y="205.872070312"/>
      <point x="100.671875" y="198.53515625" type="curve" smooth="yes"/>
      <point x="103.66015625" y="149.62890625"/>
      <point x="110.545898438" y="104.828125"/>
      <point x="120.206054688" y="71.396484375" type="curve" smooth="yes"/>
      <point x="127.98046875" y="44.4873046875"/>
      <point x="138.001953125" y="25.7998046875"/>
      <point x="145.078125" y="18.7236328125" type="curve" smooth="yes"/>
      <point x="148.806640625" y="14.9951171875"/>
      <point x="150.64453125" y="14.9951171875"/>
      <point x="150.731445312" y="14.9951171875" type="curve" smooth="yes"/>
      <point x="150.962890625" y="14.9951171875"/>
      <point x="153.418945312" y="15.025390625"/>
      <point x="158.30078125" y="19.908203125" type="curve" smooth="yes"/>
      <point x="166.241210938" y="27.84765625"/>
      <point x="176.749023438" y="46.6591796875"/>
      <point x="184.635742188" y="73.052734375" type="curve" smooth="yes"/>
      <point x="194.455078125" y="105.909179688"/>
      <point x="200.728515625" y="149.495117188"/>
      <point x="200.728515625" y="197.0" type="curve" smooth="yes"/>
      <point x="200.728515625" y="254.610351562"/>
      <point x="188.690429688" y="278.083007812"/>
      <point x="177.91796875" y="288.856445312" type="curve" smooth="yes"/>
      <point x="169.37890625" y="297.39453125"/>
      <point x="158.068359375" y="301.655273438"/>
      <point x="142.282226562" y="305.84375" type="curve" smooth="yes"/>
      <point x="132.123046875" y="308.5390625"/>
      <point x="123.728515625" y="318.553710938"/>
    </contour>
  </outline>
</glyph>
<glyph name="seven" format="2">
  <advance width="333"/>
  <unicode hex="0037"/>
  <outline>
    <contour>
      <point x="74.9951171875" y="386.004882812" type="line" smooth="yes"/>
      <point x="68.595703125" y="386.004882812"/>
      <point x="62.1953125" y="388.444335938"/>
      <point x="57.3173828125" y="393.322265625" type="curve" smooth="yes"/>
      <point x="52.439453125" y="398.200195312"/>
      <point x="50.0" y="404.600585938"/>
      <point x="50.0" y="411.0" type="curve" smooth="yes"/>
      <point x="50.0" y="417.399414062"/>
      <point x="52.439453125" y="423.799804688"/>
      <point x="57.3173828125" y="428.677734375" type="curve" smooth="yes"/>
      <point x="62.1953125" y="433.555664062"/>
      <point x="68.595703125" y="435.995117188"/>
      <point x="74.9951171875" y="435.995117188" type="curve" smooth="yes"/>
      <point x="258.995117188" y="435.995117188" type="line" smooth="yes"/>
      <point x="265.39453125" y="435.995117188"/>
      <point x="271.794921875" y="433.555664062"/>
      <point x="276.672851562" y="428.677734375" type="curve" smooth="yes"/>
      <point x="281.55078125" y="423.799804688"/>
      <point x="283.990234375" y="417.399414062"/>
      <point x="283.990234375" y="411.0" type="curve" smooth="yes"/>
      <point x="283.990234375" y="408.551757812"/>
      <point x="283.6328125" y="406.103515625"/>
      <point x="282.918945312" y="403.740234375" type="curve" smooth="yes"/>
      <point x="98.9189453125" y="-205.259765625" type="line" smooth="yes"/>
      <point x="95.978515625" y="-214.994140625"/>
      <point x="86.1396484375" y="-222.995117188"/>
      <point x="74.9951171875" y="-222.995117188" type="curve" smooth="yes"/>
      <point x="68.595703125" y="-222.995117188"/>
      <point x="62.1953125" y="-220.555664062"/>
      <point x="57.3173828125" y="-215.677734375" type="curve" smooth="yes"/>
      <point x="52.439453125" y="-210.799804688"/>
      <point x="50.0" y="-204.399414062"/>
      <point x="50.0" y="-198.0" type="curve" smooth="yes"/>
      <point x="50.0" y="-195.551757812"/>
      <point x="50.357421875" y="-193.103515625"/>
      <point x="51.0712890625" y="-190.740234375" type="curve" smooth="yes"/>
      <point x="225.325195312" y="386.004882812" type="line"/>
    </contour>
  </outline>
</glyph>
<glyph name="eight" format="2">
  <advance width="265"/>
  <unicode hex="0038"/>
  <outline>
    <contour>
      <point x="99.990234375" y="194.0" type="curve" smooth="yes"/>
      <point x="99.990234375" y="147.138671875"/>
      <point x="105.2734375" y="104.333984375"/>
      <point x="113.466796875" y="72.9248046875" type="curve" smooth="yes"/>
      <point x="119.611328125" y="49.3642578125"/>
      <point x="127.961914062" y="33.021484375"/>
      <point x="132.995117188" y="26.9560546875" type="curve"/>
      <point x="138.028320312" y="33.021484375"/>
      <point x="146.37890625" y="49.3642578125"/>
      <point x="152.5234375" y="72.9248046875" type="curve" smooth="yes"/>
      <point x="160.716796875" y="104.333984375"/>
      <point x="166.0" y="147.138671875"/>
      <point x="166.0" y="194.0" type="curve" smooth="yes"/>
      <point x="166.0" y="240.861328125"/>
      <point x="160.716796875" y="283.666015625"/>
      <point x="152.5234375" y="315.075195312" type="curve" smooth="yes"/>
      <point x="146.37890625" y="338.635742188"/>
      <point x="138.028320312" y="354.978515625"/>
      <point x="132.995117188" y="361.043945312" type="curve"/>
      <point x="127.961914062" y="354.978515625"/>
      <point x="119.611328125" y="338.635742188"/>
      <point x="113.466796875" y="315.075195312" type="curve" smooth="yes"/>
      <point x="105.2734375" y="283.666015625"/>
      <point x="99.990234375" y="240.861328125"/>
    </contour>
    <contour>
      <point x="99.990234375" y="582.0" type="curve" smooth="yes"/>
      <point x="99.990234375" y="535.138671875"/>
      <point x="105.2734375" y="492.333984375"/>
      <point x="113.466796875" y="460.924804688" type="curve" smooth="yes"/>
      <point x="119.611328125" y="437.364257812"/>
      <point x="127.961914062" y="421.021484375"/>
      <point x="132.995117188" y="414.956054688" type="curve"/>
      <point x="138.028320312" y="421.021484375"/>
      <point x="146.37890625" y="437.364257812"/>
      <point x="152.5234375" y="460.924804688" type="curve" smooth="yes"/>
      <point x="160.716796875" y="492.333984375"/>
      <point x="166.0" y="535.138671875"/>
      <point x="166.0" y="582.0" type="curve" smooth="yes"/>
      <point x="166.0" y="628.861328125"/>
      <point x="160.716796875" y="671.666015625"/>
      <point x="152.5234375" y="703.075195312" type="curve" smooth="yes"/>
      <point x="146.37890625" y="726.635742188"/>
      <point x="138.028320312" y="742.978515625"/>
      <point x="132.995117188" y="749.043945312" type="curve"/>
      <point x="127.961914062" y="742.978515625"/>
      <point x="119.611328125" y="726.635742188"/>
      <point x="113.466796875" y="703.075195312" type="curve" smooth="yes"/>
      <point x="105.2734375" y="671.666015625"/>
      <point x="99.990234375" y="628.861328125"/>
    </contour>
    <contour>
      <point x="50.0" y="194.0" type="curve" smooth="yes"/>
      <point x="50.0" y="244.59765625"/>
      <point x="55.501953125" y="290.955078125"/>
      <point x="65.1005859375" y="327.755859375" type="curve" smooth="yes"/>
      <point x="71.3564453125" y="351.740234375"/>
      <point x="78.9150390625" y="372.313476562"/>
      <point x="90.49609375" y="388.0" type="curve"/>
      <point x="78.9150390625" y="403.686523438"/>
      <point x="71.3564453125" y="424.259765625"/>
      <point x="65.1005859375" y="448.244140625" type="curve" smooth="yes"/>
      <point x="55.501953125" y="485.044921875"/>
      <point x="50.0" y="531.40234375"/>
      <point x="50.0" y="582.0" type="curve" smooth="yes"/>
      <point x="50.0" y="632.59765625"/>
      <point x="55.501953125" y="678.955078125"/>
      <point x="65.1005859375" y="715.755859375" type="curve" smooth="yes"/>
      <point x="72.7265625" y="744.994140625"/>
      <point x="82.2890625" y="769.1640625"/>
      <point x="98.71484375" y="785.58984375" type="curve" smooth="yes"/>
      <point x="106.915039062" y="793.790039062"/>
      <point x="118.529296875" y="800.995117188"/>
      <point x="132.995117188" y="800.995117188" type="curve" smooth="yes"/>
      <point x="147.4609375" y="800.995117188"/>
      <point x="159.075195312" y="793.790039062"/>
      <point x="167.275390625" y="785.58984375" type="curve" smooth="yes"/>
      <point x="183.701171875" y="769.1640625"/>
      <point x="193.263671875" y="744.994140625"/>
      <point x="200.889648438" y="715.755859375" type="curve" smooth="yes"/>
      <point x="210.48828125" y="678.955078125"/>
      <point x="215.990234375" y="632.59765625"/>
      <point x="215.990234375" y="582.0" type="curve" smooth="yes"/>
      <point x="215.990234375" y="531.40234375"/>
      <point x="210.48828125" y="485.044921875"/>
      <point x="200.889648438" y="448.244140625" type="curve" smooth="yes"/>
      <point x="194.633789062" y="424.259765625"/>
      <point x="187.075195312" y="403.686523438"/>
      <point x="175.494140625" y="388.0" type="curve"/>
      <point x="187.075195312" y="372.313476562"/>
      <point x="194.633789062" y="351.740234375"/>
      <point x="200.889648438" y="327.755859375" type="curve" smooth="yes"/>
      <point x="210.48828125" y="290.955078125"/>
      <point x="215.990234375" y="244.59765625"/>
      <point x="215.990234375" y="194.0" type="curve" smooth="yes"/>
      <point x="215.990234375" y="143.40234375"/>
      <point x="210.48828125" y="97.044921875"/>
      <point x="200.889648438" y="60.244140625" type="curve" smooth="yes"/>
      <point x="193.263671875" y="31.005859375"/>
      <point x="183.701171875" y="6.8359375"/>
      <point x="167.275390625" y="-9.58984375" type="curve" smooth="yes"/>
      <point x="159.075195312" y="-17.7900390625"/>
      <point x="147.4609375" y="-24.9951171875"/>
      <point x="132.995117188" y="-24.9951171875" type="curve" smooth="yes"/>
      <point x="118.529296875" y="-24.9951171875"/>
      <point x="106.915039062" y="-17.7900390625"/>
      <point x="98.71484375" y="-9.58984375" type="curve" smooth="yes"/>
      <point x="82.2890625" y="6.8359375"/>
      <point x="72.7265625" y="31.005859375"/>
      <point x="65.1005859375" y="60.244140625" type="curve" smooth="yes"/>
      <point x="55.501953125" y="97.044921875"/>
      <point x="50.0" y="143.40234375"/>
    </contour>
  </outline>
</glyph>
<glyph name="nine" format="2">
  <advance width="307"/>
  <unicode hex="0039"/>
  <outline>
    <contour>
      <point x="50.0" y="198.151367188" type="curve" smooth="yes"/>
      <point x="50.0" y="250.024414062"/>
      <point x="56.64453125" y="297.8359375"/>
      <point x="68.19140625" y="336.474609375" type="curve" smooth="yes"/>
      <point x="77.396484375" y="367.27734375"/>
      <point x="89.38671875" y="392.923828125"/>
      <point x="107.0625" y="410.598632812" type="curve" smooth="yes"/>
      <point x="117.966796875" y="421.502929688"/>
      <point x="132.506835938" y="430.146484375"/>
      <point x="149.995117188" y="430.146484375" type="curve" smooth="yes"/>
      <point x="166.987304688" y="430.146484375"/>
      <point x="181.018554688" y="421.737304688"/>
      <point x="191.40234375" y="411.353515625" type="curve" smooth="yes"/>
      <point x="209.366210938" y="393.388671875"/>
      <point x="221.16015625" y="367.169921875"/>
      <point x="230.9609375" y="335.826171875" type="curve" smooth="yes"/>
      <point x="243.260742188" y="296.487304688"/>
      <point x="251.719726562" y="247.920898438"/>
      <point x="255.908203125" y="196.182617188" type="curve" smooth="yes"/>
      <point x="256.818359375" y="184.935546875"/>
      <point x="257.250976562" y="173.984375"/>
      <point x="257.250976562" y="163.307617188" type="curve" smooth="yes"/>
      <point x="257.250976562" y="56.7470703125"/>
      <point x="214.225585938" y="-22.51953125"/>
      <point x="174.423828125" y="-96.2783203125" type="curve" smooth="yes"/>
      <point x="154.21875" y="-133.721679688"/>
      <point x="134.677734375" y="-170.09375"/>
      <point x="120.444335938" y="-208.676757812" type="curve" smooth="yes"/>
      <point x="117.11328125" y="-217.70703125"/>
      <point x="107.578125" y="-224.995117188"/>
      <point x="96.9951171875" y="-224.995117188" type="curve" smooth="yes"/>
      <point x="90.595703125" y="-224.995117188"/>
      <point x="84.1953125" y="-222.555664062"/>
      <point x="79.3173828125" y="-217.677734375" type="curve" smooth="yes"/>
      <point x="74.439453125" y="-212.799804688"/>
      <point x="72.0" y="-206.399414062"/>
      <point x="72.0" y="-200.0" type="curve" smooth="yes"/>
      <point x="72.0" y="-197.05859375"/>
      <point x="72.515625" y="-194.1171875"/>
      <point x="73.5458984375" y="-191.323242188" type="curve" smooth="yes"/>
      <point x="89.369140625" y="-148.431640625"/>
      <point x="110.22265625" y="-109.9453125"/>
      <point x="130.413085938" y="-72.5302734375" type="curve" smooth="yes"/>
      <point x="158.26171875" y="-20.9208984375"/>
      <point x="184.55859375" y="28.03515625"/>
      <point x="197.98828125" y="84.1875" type="curve"/>
      <point x="193.325195312" y="85.0556640625"/>
      <point x="184.284179688" y="85.6806640625"/>
      <point x="173.4921875" y="86.064453125" type="curve" smooth="yes"/>
      <point x="158.795898438" y="86.5869140625"/>
      <point x="140.698242188" y="87.01953125"/>
      <point x="122.020507812" y="91.85546875" type="curve" smooth="yes"/>
      <point x="107.10546875" y="95.7177734375"/>
      <point x="91.3583984375" y="102.681640625"/>
      <point x="78.2421875" y="115.797851562" type="curve" smooth="yes"/>
      <point x="59.6845703125" y="134.35546875"/>
      <point x="50.0" y="161.953125"/>
    </contour>
    <contour>
      <point x="99.990234375" y="198.151367188" type="curve" smooth="yes"/>
      <point x="99.990234375" y="170.352539062"/>
      <point x="106.883789062" y="157.8671875"/>
      <point x="113.59765625" y="151.153320312" type="curve" smooth="yes"/>
      <point x="119.799804688" y="144.951171875"/>
      <point x="129.06640625" y="140.932617188"/>
      <point x="141.825195312" y="138.69921875" type="curve" smooth="yes"/>
      <point x="161.916015625" y="135.182617188"/>
      <point x="185.11328125" y="137.53125"/>
      <point x="206.025390625" y="133.602539062" type="curve"/>
      <point x="206.84765625" y="143.106445312"/>
      <point x="207.280273438" y="152.853515625"/>
      <point x="207.280273438" y="162.879882812" type="curve" smooth="yes"/>
      <point x="207.280273438" y="172.366210938"/>
      <point x="206.892578125" y="182.1015625"/>
      <point x="206.08203125" y="192.120117188" type="curve" smooth="yes"/>
      <point x="202.135742188" y="240.87109375"/>
      <point x="194.012695312" y="286.436523438"/>
      <point x="183.252929688" y="320.84765625" type="curve" smooth="yes"/>
      <point x="174.606445312" y="348.501953125"/>
      <point x="163.80859375" y="368.236328125"/>
      <point x="156.046875" y="375.998046875" type="curve" smooth="yes"/>
      <point x="152.16796875" y="379.876953125"/>
      <point x="150.506835938" y="380.165039062"/>
      <point x="150.098632812" y="380.165039062" type="curve" smooth="yes"/>
      <point x="150.028320312" y="380.165039062"/>
      <point x="149.995117188" y="380.15625"/>
      <point x="149.995117188" y="380.15625" type="curve" smooth="yes"/>
      <point x="149.755859375" y="380.15625"/>
      <point x="147.30078125" y="380.125976562"/>
      <point x="142.41796875" y="375.243164062" type="curve" smooth="yes"/>
      <point x="134.478515625" y="367.303710938"/>
      <point x="123.970703125" y="348.4921875"/>
      <point x="116.083007812" y="322.098632812" type="curve" smooth="yes"/>
      <point x="106.263671875" y="289.2421875"/>
      <point x="99.990234375" y="245.65625"/>
    </contour>
  </outline>
</glyph>
<glyph name="colon" format="2">
  <advance width="149"/>
  <unicode hex="003A"/>
  <outline>
    <contour>
      <point x="50.0" y="439.0" type="curve" smooth="yes"/>
      <point x="50.0" y="445.399414062"/>
      <point x="52.439453125" y="451.799804688"/>
      <point x="57.3173828125" y="456.677734375" type="curve" smooth="yes"/>
      <point x="62.1953125" y="461.555664062"/>
      <point x="68.595703125" y="463.995117188"/>
      <point x="74.9951171875" y="463.995117188" type="curve" smooth="yes"/>
      <point x="81.39453125" y="463.995117188"/>
      <point x="87.794921875" y="461.555664062"/>
      <point x="92.6728515625" y="456.677734375" type="curve" smooth="yes"/>
      <point x="97.55078125" y="451.799804688"/>
      <point x="99.990234375" y="445.399414062"/>
      <point x="99.990234375" y="439.0" type="curve" smooth="yes"/>
      <point x="99.990234375" y="432.600585938"/>
      <point x="97.55078125" y="426.200195312"/>
      <point x="92.6728515625" y="421.322265625" type="curve" smooth="yes"/>
      <point x="87.794921875" y="416.444335938"/>
      <point x="81.39453125" y="414.004882812"/>
      <point x="74.9951171875" y="414.004882812" type="curve" smooth="yes"/>
      <point x="68.595703125" y="414.004882812"/>
      <point x="62.1953125" y="416.444335938"/>
      <point x="57.3173828125" y="421.322265625" type="curve" smooth="yes"/>
      <point x="52.439453125" y="426.200195312"/>
      <point x="50.0" y="432.600585938"/>
    </contour>
    <contour>
      <point x="50.0" y="29.0" type="curve" smooth="yes"/>
      <point x="50.0" y="35.3994140625"/>
      <point x="52.439453125" y="41.7998046875"/>
      <point x="57.3173828125" y="46.677734375" type="curve" smooth="yes"/>
      <point x="62.1953125" y="51.5556640625"/>
      <point x="68.595703125" y="53.9951171875"/>
      <point x="74.9951171875" y="53.9951171875" type="curve" smooth="yes"/>
      <point x="81.39453125" y="53.9951171875"/>
      <point x="87.794921875" y="51.5556640625"/>
      <point x="92.6728515625" y="46.677734375" type="curve" smooth="yes"/>
      <point x="97.55078125" y="41.7998046875"/>
      <point x="99.990234375" y="35.3994140625"/>
      <point x="99.990234375" y="29.0" type="curve" smooth="yes"/>
      <point x="99.990234375" y="22.6005859375"/>
      <point x="97.55078125" y="16.2001953125"/>
      <point x="92.6728515625" y="11.322265625" type="curve" smooth="yes"/>
      <point x="87.794921875" y="6.4443359375"/>
      <point x="81.39453125" y="4.0048828125"/>
      <point x="74.9951171875" y="4.0048828125" type="curve" smooth="yes"/>
      <point x="68.595703125" y="4.0048828125"/>
      <point x="62.1953125" y="6.4443359375"/>
      <point x="57.3173828125" y="11.322265625" type="curve" smooth="yes"/>
      <point x="52.439453125" y="16.2001953125"/>
      <point x="50.0" y="22.6005859375"/>
    </contour>
  </outline>
</glyph>
<glyph name="semicolon" format="2">
  <advance width="185"/>
  <unicode hex="003B"/>
  <outline>
    <contour>
      <point x="77.0" y="26.0" type="curve" smooth="yes"/>
      <point x="77.0" y="32.3994140625"/>
      <point x="79.439453125" y="38.7998046875"/>
      <point x="84.3173828125" y="43.677734375" type="curve" smooth="yes"/>
      <point x="89.1953125" y="48.5556640625"/>
      <point x="95.595703125" y="50.9951171875"/>
      <point x="101.995117188" y="50.9951171875" type="curve" smooth="yes"/>
      <point x="111.91015625" y="50.9951171875"/>
      <point x="121.095703125" y="44.4853515625"/>
      <point x="124.791015625" y="36.2734375" type="curve" smooth="yes"/>
      <point x="128.103515625" y="28.9130859375"/>
      <point x="135.990234375" y="8.0693359375"/>
      <point x="135.990234375" y="-7.0" type="curve" smooth="yes"/>
      <point x="135.990234375" y="-22.73046875"/>
      <point x="129.782226562" y="-35.359375"/>
      <point x="123.55078125" y="-45.486328125" type="curve" smooth="yes"/>
      <point x="115.6171875" y="-58.3779296875"/>
      <point x="106.098632812" y="-68.6376953125"/>
      <point x="99.462890625" y="-75.2734375" type="curve" smooth="yes"/>
      <point x="94.875" y="-79.861328125"/>
      <point x="91.6591796875" y="-82.6435546875"/>
      <point x="91.2919921875" y="-82.9599609375" type="curve" smooth="yes"/>
      <point x="86.619140625" y="-86.9833984375"/>
      <point x="80.806640625" y="-88.9951171875"/>
      <point x="74.9951171875" y="-88.9951171875" type="curve" smooth="yes"/>
      <point x="68.595703125" y="-88.9951171875"/>
      <point x="62.1953125" y="-86.5556640625"/>
      <point x="57.3173828125" y="-81.677734375" type="curve" smooth="yes"/>
      <point x="52.439453125" y="-76.7998046875"/>
      <point x="50.0" y="-70.3994140625"/>
      <point x="50.0" y="-64.0" type="curve" smooth="yes"/>
      <point x="50.0" y="-56.9228515625"/>
      <point x="53.25" y="-49.732421875"/>
      <point x="58.6982421875" y="-45.0400390625" type="curve" smooth="yes"/>
      <point x="65.583984375" y="-39.111328125"/>
      <point x="75.0224609375" y="-28.9248046875"/>
      <point x="80.947265625" y="-19.2978515625" type="curve" smooth="yes"/>
      <point x="84.7890625" y="-13.0537109375"/>
      <point x="86.0" y="-7.9609375"/>
      <point x="86.0" y="-7.0" type="curve" smooth="yes"/>
      <point x="86.0" y="-6.1142578125"/>
      <point x="85.0302734375" y="-0.51171875"/>
      <point x="83.4384765625" y="4.462890625" type="curve" smooth="yes"/>
      <point x="81.3056640625" y="11.1279296875"/>
      <point x="79.19921875" y="15.7265625"/>
      <point x="79.19921875" y="15.7265625" type="curve" smooth="yes"/>
      <point x="77.7333984375" y="18.9833984375"/>
      <point x="77.0" y="22.4921875"/>
    </contour>
    <contour>
      <point x="51.5" y="388.0" type="curve" smooth="yes"/>
      <point x="51.5" y="394.399414062"/>
      <point x="53.939453125" y="400.799804688"/>
      <point x="58.8173828125" y="405.677734375" type="curve" smooth="yes"/>
      <point x="63.6953125" y="410.555664062"/>
      <point x="70.095703125" y="412.995117188"/>
      <point x="76.4951171875" y="412.995117188" type="curve" smooth="yes"/>
      <point x="82.89453125" y="412.995117188"/>
      <point x="89.294921875" y="410.555664062"/>
      <point x="94.1728515625" y="405.677734375" type="curve" smooth="yes"/>
      <point x="99.05078125" y="400.799804688"/>
      <point x="101.490234375" y="394.399414062"/>
      <point x="101.490234375" y="388.0" type="curve" smooth="yes"/>
      <point x="101.490234375" y="381.600585938"/>
      <point x="99.05078125" y="375.200195312"/>
      <point x="94.1728515625" y="370.322265625" type="curve" smooth="yes"/>
      <point x="89.294921875" y="365.444335938"/>
      <point x="82.89453125" y="363.004882812"/>
      <point x="76.4951171875" y="363.004882812" type="curve" smooth="yes"/>
      <point x="70.095703125" y="363.004882812"/>
      <point x="63.6953125" y="365.444335938"/>
      <point x="58.8173828125" y="370.322265625" type="curve" smooth="yes"/>
      <point x="53.939453125" y="375.200195312"/>
      <point x="51.5" y="381.600585938"/>
    </contour>
  </outline>
</glyph>
<glyph name="less" format="2">
  <advance width="383"/>
  <unicode hex="003C"/>
  <outline>
    <contour>
      <point x="308.995117188" y="659.995117188" type="curve" smooth="yes"/>
      <point x="315.39453125" y="659.995117188"/>
      <point x="321.794921875" y="657.555664062"/>
      <point x="326.672851562" y="652.677734375" type="curve" smooth="yes"/>
      <point x="331.55078125" y="647.799804688"/>
      <point x="333.990234375" y="641.399414062"/>
      <point x="333.990234375" y="635.0" type="curve" smooth="yes"/>
      <point x="333.990234375" y="628.407226562"/>
      <point x="331.31640625" y="621.758789062"/>
      <point x="326.276367188" y="616.93359375" type="curve" smooth="yes"/>
      <point x="110.223632812" y="410.114257812" type="line"/>
      <point x="315.176757812" y="193.159179688" type="line" smooth="yes"/>
      <point x="319.71875" y="188.350585938"/>
      <point x="321.990234375" y="182.17578125"/>
      <point x="321.990234375" y="176.0" type="curve" smooth="yes"/>
      <point x="321.990234375" y="169.600585938"/>
      <point x="319.55078125" y="163.200195312"/>
      <point x="314.672851562" y="158.322265625" type="curve" smooth="yes"/>
      <point x="309.794921875" y="153.444335938"/>
      <point x="303.39453125" y="151.004882812"/>
      <point x="296.995117188" y="151.004882812" type="curve" smooth="yes"/>
      <point x="290.342773438" y="151.004882812"/>
      <point x="283.62109375" y="153.750976562"/>
      <point x="278.813476562" y="158.840820312" type="curve" smooth="yes"/>
      <point x="56.8134765625" y="393.840820312" type="line" smooth="yes"/>
      <point x="52.271484375" y="398.649414062"/>
      <point x="50.0" y="404.82421875"/>
      <point x="50.0" y="411.0" type="curve" smooth="yes"/>
      <point x="50.0" y="417.592773438"/>
      <point x="52.673828125" y="424.241210938"/>
      <point x="57.7138671875" y="429.06640625" type="curve" smooth="yes"/>
      <point x="291.713867188" y="653.06640625" type="line" smooth="yes"/>
      <point x="296.540039062" y="657.685546875"/>
      <point x="302.767578125" y="659.995117188"/>
    </contour>
  </outline>
</glyph>
<glyph name="equal" format="2">
  <advance width="497"/>
  <unicode hex="003D"/>
  <outline>
    <contour>
      <point x="74.9951171875" y="347.004882812" type="line" smooth="yes"/>
      <point x="68.595703125" y="347.004882812"/>
      <point x="62.1953125" y="349.444335938"/>
      <point x="57.3173828125" y="354.322265625" type="curve" smooth="yes"/>
      <point x="52.439453125" y="359.200195312"/>
      <point x="50.0" y="365.600585938"/>
      <point x="50.0" y="372.0" type="curve" smooth="yes"/>
      <point x="50.0" y="378.399414062"/>
      <point x="52.439453125" y="384.799804688"/>
      <point x="57.3173828125" y="389.677734375" type="curve" smooth="yes"/>
      <point x="62.1953125" y="394.555664062"/>
      <point x="68.595703125" y="396.995117188"/>
      <point x="74.9951171875" y="396.995117188" type="curve" smooth="yes"/>
      <point x="422.995117188" y="396.995117188" type="line" smooth="yes"/>
      <point x="429.39453125" y="396.995117188"/>
      <point x="435.794921875" y="394.555664062"/>
      <point x="440.672851562" y="389.677734375" type="curve" smooth="yes"/>
      <point x="445.55078125" y="384.799804688"/>
      <point x="447.990234375" y="378.399414062"/>
      <point x="447.990234375" y="372.0" type="curve" smooth="yes"/>
      <point x="447.990234375" y="365.600585938"/>
      <point x="445.55078125" y="359.200195312"/>
      <point x="440.672851562" y="354.322265625" type="curve" smooth="yes"/>
      <point x="435.794921875" y="349.444335938"/>
      <point x="429.39453125" y="347.004882812"/>
      <point x="422.995117188" y="347.004882812" type="curve" smooth="yes"/>
    </contour>
    <contour>
      <point x="74.9951171875" y="447.004882812" type="line" smooth="yes"/>
      <point x="68.595703125" y="447.004882812"/>
      <point x="62.1953125" y="449.444335938"/>
      <point x="57.3173828125" y="454.322265625" type="curve" smooth="yes"/>
      <point x="52.439453125" y="459.200195312"/>
      <point x="50.0" y="465.600585938"/>
      <point x="50.0" y="472.0" type="curve" smooth="yes"/>
      <point x="50.0" y="478.399414062"/>
      <point x="52.439453125" y="484.799804688"/>
      <point x="57.3173828125" y="489.677734375" type="curve" smooth="yes"/>
      <point x="62.1953125" y="494.555664062"/>
      <point x="68.595703125" y="496.995117188"/>
      <point x="74.9951171875" y="496.995117188" type="curve" smooth="yes"/>
      <point x="422.995117188" y="496.995117188" type="line" smooth="yes"/>
      <point x="429.39453125" y="496.995117188"/>
      <point x="435.794921875" y="494.555664062"/>
      <point x="440.672851562" y="489.677734375" type="curve" smooth="yes"/>
      <point x="445.55078125" y="484.799804688"/>
      <point x="447.990234375" y="478.399414062"/>
      <point x="447.990234375" y="472.0" type="curve" smooth="yes"/>
      <point x="447.990234375" y="465.600585938"/>
      <point x="445.55078125" y="459.200195312"/>
      <point x="440.672851562" y="454.322265625" type="curve" smooth="yes"/>
      <point x="435.794921875" y="449.444335938"/>
      <point x="429.39453125" y="447.004882812"/>
      <point x="422.995117188" y="447.004882812" type="curve" smooth="yes"/>
    </contour>
  </outline>
</glyph>
<glyph name="greater" format="2">
  <advance width="383"/>
  <unicode hex="003E"/>
  <outline>
    <contour>
      <point x="50.0" y="635.0" type="curve" smooth="yes"/>
      <point x="50.0" y="641.399414062"/>
      <point x="52.439453125" y="647.799804688"/>
      <point x="57.3173828125" y="652.677734375" type="curve" smooth="yes"/>
      <point x="62.1953125" y="657.555664062"/>
      <point x="68.595703125" y="659.995117188"/>
      <point x="74.9951171875" y="659.995117188" type="curve" smooth="yes"/>
      <point x="81.22265625" y="659.995117188"/>
      <point x="87.4501953125" y="657.685546875"/>
      <point x="92.2763671875" y="653.06640625" type="curve" smooth="yes"/>
      <point x="326.276367188" y="429.06640625" type="line" smooth="yes"/>
      <point x="331.314453125" y="424.2421875"/>
      <point x="333.990234375" y="417.591796875"/>
      <point x="333.990234375" y="411.0" type="curve" smooth="yes"/>
      <point x="333.990234375" y="404.82421875"/>
      <point x="331.71875" y="398.649414062"/>
      <point x="327.176757812" y="393.840820312" type="curve" smooth="yes"/>
      <point x="105.176757812" y="158.840820312" type="line" smooth="yes"/>
      <point x="100.370117188" y="153.752929688"/>
      <point x="93.6455078125" y="151.004882812"/>
      <point x="86.9951171875" y="151.004882812" type="curve" smooth="yes"/>
      <point x="80.595703125" y="151.004882812"/>
      <point x="74.1953125" y="153.444335938"/>
      <point x="69.3173828125" y="158.322265625" type="curve" smooth="yes"/>
      <point x="64.439453125" y="163.200195312"/>
      <point x="62.0" y="169.600585938"/>
      <point x="62.0" y="176.0" type="curve" smooth="yes"/>
      <point x="62.0" y="182.17578125"/>
      <point x="64.271484375" y="188.350585938"/>
      <point x="68.8134765625" y="193.159179688" type="curve" smooth="yes"/>
      <point x="273.766601562" y="410.114257812" type="line"/>
      <point x="57.7138671875" y="616.93359375" type="line" smooth="yes"/>
      <point x="52.67578125" y="621.7578125"/>
      <point x="50.0" y="628.408203125"/>
    </contour>
  </outline>
</glyph>
<glyph name="question" format="2">
  <advance height="1000" width="355"/>
  <unicode hex="003F"/>
  <outline>
    <contour>
      <point x="173.990234375" y="375.004882812" type="line"/>
      <point x="173.990234375" y="212.0" type="line" smooth="yes"/>
      <point x="173.990234375" y="205.600585938"/>
      <point x="171.55078125" y="199.200195312"/>
      <point x="166.672851562" y="194.322265625" type="curve" smooth="yes"/>
      <point x="161.794921875" y="189.444335938"/>
      <point x="155.39453125" y="187.004882812"/>
      <point x="148.995117188" y="187.004882812" type="curve" smooth="yes"/>
      <point x="142.595703125" y="187.004882812"/>
      <point x="136.1953125" y="189.444335938"/>
      <point x="131.317382812" y="194.322265625" type="curve" smooth="yes"/>
      <point x="126.439453125" y="199.200195312"/>
      <point x="124.0" y="205.600585938"/>
      <point x="124.0" y="212.0" type="curve" smooth="yes"/>
      <point x="124.0" y="400.0" type="line" smooth="yes"/>
      <point x="124.0" y="406.399414062"/>
      <point x="126.439453125" y="412.799804688"/>
      <point x="131.317382812" y="417.677734375" type="curve" smooth="yes"/>
      <point x="136.1953125" y="422.555664062"/>
      <point x="142.595703125" y="424.995117188"/>
      <point x="148.995117188" y="424.995117188" type="curve" smooth="yes"/>
      <point x="229.211914062" y="424.995117188" type="line"/>
      <point x="248.64453125" y="457.34765625"/>
      <point x="256.03125" y="484.2734375"/>
      <point x="256.03125" y="507.517578125" type="curve" smooth="yes"/>
      <point x="256.03125" y="512.389648438"/>
      <point x="255.706054688" y="517.100585938"/>
      <point x="255.099609375" y="521.666015625" type="curve" smooth="yes"/>
      <point x="252.09765625" y="544.271484375"/>
      <point x="241.8203125" y="565.4296875"/>
      <point x="225.064453125" y="586.409179688" type="curve"/>
      <point x="202.431640625" y="605.1640625"/>
      <point x="181.6328125" y="613.012695312"/>
      <point x="161.173828125" y="613.012695312" type="curve" smooth="yes"/>
      <point x="158.739257812" y="613.012695312"/>
      <point x="156.309570312" y="612.901367188"/>
      <point x="153.881835938" y="612.684570312" type="curve" smooth="yes"/>
      <point x="137.5546875" y="611.223632812"/>
      <point x="119.610351562" y="604.615234375"/>
      <point x="99.990234375" y="591.26953125" type="curve"/>
      <point x="99.990234375" y="570.0" type="line" smooth="yes"/>
      <point x="99.990234375" y="563.600585938"/>
      <point x="97.55078125" y="557.200195312"/>
      <point x="92.6728515625" y="552.322265625" type="curve" smooth="yes"/>
      <point x="87.794921875" y="547.444335938"/>
      <point x="81.39453125" y="545.004882812"/>
      <point x="74.9951171875" y="545.004882812" type="curve" smooth="yes"/>
      <point x="68.595703125" y="545.004882812"/>
      <point x="62.1953125" y="547.444335938"/>
      <point x="57.3173828125" y="552.322265625" type="curve" smooth="yes"/>
      <point x="52.439453125" y="557.200195312"/>
      <point x="50.0" y="563.600585938"/>
      <point x="50.0" y="570.0" type="curve" smooth="yes"/>
      <point x="50.0" y="604.0" type="line" smooth="yes"/>
      <point x="50.0" y="611.58203125"/>
      <point x="53.84375" y="619.252929688"/>
      <point x="59.728515625" y="623.799804688" type="curve" smooth="yes"/>
      <point x="88.421875" y="645.971679688"/>
      <point x="118.340820312" y="659.696289062"/>
      <point x="149.39453125" y="662.474609375" type="curve" smooth="yes"/>
      <point x="153.224609375" y="662.81640625"/>
      <point x="157.036132812" y="662.986328125"/>
      <point x="160.829101562" y="662.986328125" type="curve" smooth="yes"/>
      <point x="195.850585938" y="662.986328125"/>
      <point x="229.178710938" y="648.555664062"/>
      <point x="259.168945312" y="623.064453125" type="curve" smooth="yes"/>
      <point x="260.321289062" y="622.0859375"/>
      <point x="261.421875" y="620.962890625"/>
      <point x="262.375976562" y="619.793945312" type="curve" smooth="yes"/>
      <point x="284.00390625" y="593.310546875"/>
      <point x="300.036132812" y="563.053710938"/>
      <point x="304.65234375" y="528.29296875" type="curve" smooth="yes"/>
      <point x="305.546875" y="521.553710938"/>
      <point x="305.999023438" y="514.728515625"/>
      <point x="305.999023438" y="507.817382812" type="curve" smooth="yes"/>
      <point x="305.999023438" y="469.905273438"/>
      <point x="292.41015625" y="429.390625"/>
      <point x="263.860351562" y="386.22265625" type="curve" smooth="yes"/>
      <point x="259.528320312" y="379.671875"/>
      <point x="251.302734375" y="375.004882812"/>
      <point x="242.995117188" y="375.004882812" type="curve" smooth="yes"/>
    </contour>
    <contour>
      <point x="128.0" y="152.0" type="line" smooth="yes"/>
      <point x="128.0" y="158.399414062"/>
      <point x="130.439453125" y="164.799804688"/>
      <point x="135.317382812" y="169.677734375" type="curve" smooth="yes"/>
      <point x="140.1953125" y="174.555664062"/>
      <point x="146.595703125" y="176.995117188"/>
      <point x="152.995117188" y="176.995117188" type="curve" smooth="yes"/>
      <point x="159.39453125" y="176.995117188"/>
      <point x="165.794921875" y="174.555664062"/>
      <point x="170.672851562" y="169.677734375" type="curve" smooth="yes"/>
      <point x="175.55078125" y="164.799804688"/>
      <point x="177.990234375" y="158.399414062"/>
      <point x="177.990234375" y="152.0" type="curve" smooth="yes"/>
      <point x="177.990234375" y="108.0" type="line" smooth="yes"/>
      <point x="177.990234375" y="101.600585938"/>
      <point x="175.55078125" y="95.2001953125"/>
      <point x="170.672851562" y="90.322265625" type="curve" smooth="yes"/>
      <point x="165.794921875" y="85.4443359375"/>
      <point x="159.39453125" y="83.0048828125"/>
      <point x="152.995117188" y="83.0048828125" type="curve" smooth="yes"/>
      <point x="146.595703125" y="83.0048828125"/>
      <point x="140.1953125" y="85.4443359375"/>
      <point x="135.317382812" y="90.322265625" type="curve" smooth="yes"/>
      <point x="130.439453125" y="95.2001953125"/>
      <point x="128.0" y="101.600585938"/>
      <point x="128.0" y="108.0" type="curve" smooth="yes"/>
    </contour>
  </outline>
</glyph>
<glyph name="at" format="2">
  <advance width="767"/>
  <unicode hex="0040"/>
  <outline>
    <contour>
      <point x="170.0" y="176.0" type="curve" smooth="yes"/>
      <point x="170.0" y="182.735351562"/>
      <point x="169.955078125" y="189.41796875"/>
      <point x="169.955078125" y="196.383789062" type="curve" smooth="yes"/>
      <point x="169.955078125" y="256.869140625"/>
      <point x="175.091796875" y="314.752929688"/>
      <point x="209.284179688" y="348.9453125" type="curve" smooth="yes"/>
      <point x="225.6484375" y="365.309570312"/>
      <point x="248.651367188" y="374.995117188"/>
      <point x="275.995117188" y="374.995117188" type="curve" smooth="yes"/>
      <point x="313.946289062" y="374.995117188"/>
      <point x="342.443359375" y="356.572265625"/>
      <point x="364.815429688" y="342.85546875" type="curve" smooth="yes"/>
      <point x="386.547851562" y="329.53125"/>
      <point x="402.560546875" y="320.995117188"/>
      <point x="416.995117188" y="320.995117188" type="curve" smooth="yes"/>
      <point x="423.39453125" y="320.995117188"/>
      <point x="429.794921875" y="318.555664062"/>
      <point x="434.672851562" y="313.677734375" type="curve" smooth="yes"/>
      <point x="439.55078125" y="308.799804688"/>
      <point x="441.990234375" y="302.399414062"/>
      <point x="441.990234375" y="296.0" type="curve" smooth="yes"/>
      <point x="441.990234375" y="289.600585938"/>
      <point x="439.55078125" y="283.200195312"/>
      <point x="434.672851562" y="278.322265625" type="curve" smooth="yes"/>
      <point x="429.794921875" y="273.444335938"/>
      <point x="423.39453125" y="271.004882812"/>
      <point x="416.995117188" y="271.004882812" type="curve" smooth="yes"/>
      <point x="384.23828125" y="271.004882812"/>
      <point x="359.348632812" y="287.546875"/>
      <point x="338.696289062" y="300.209960938" type="curve" smooth="yes"/>
      <point x="315.495117188" y="314.434570312"/>
      <point x="296.706054688" y="325.004882812"/>
      <point x="275.995117188" y="325.004882812" type="curve" smooth="yes"/>
      <point x="260.208984375" y="325.004882812"/>
      <point x="251.534179688" y="320.483398438"/>
      <point x="244.639648438" y="313.58984375" type="curve" smooth="yes"/>
      <point x="235.8046875" y="304.754882812"/>
      <point x="228.766601562" y="288.590820312"/>
      <point x="224.836914062" y="267.659179688" type="curve" smooth="yes"/>
      <point x="220.461914062" y="244.350585938"/>
      <point x="219.958007812" y="216.944335938"/>
      <point x="219.958007812" y="192.748046875" type="curve" smooth="yes"/>
      <point x="219.958007812" y="187.146484375"/>
      <point x="219.990234375" y="181.50390625"/>
      <point x="219.990234375" y="176.0" type="curve" smooth="yes"/>
      <point x="219.990234375" y="133.256835938"/>
      <point x="234.625976562" y="102.618164062"/>
      <point x="257.541992188" y="79.703125" type="curve" smooth="yes"/>
      <point x="292.6015625" y="44.6435546875"/>
      <point x="350.623046875" y="26.9951171875"/>
      <point x="407.995117188" y="26.9951171875" type="curve" smooth="yes"/>
      <point x="419.766601562" y="26.9951171875"/>
      <point x="427.01953125" y="30.642578125"/>
      <point x="433.4296875" y="37.0537109375" type="curve" smooth="yes"/>
      <point x="447.536132812" y="51.16015625"/>
      <point x="455.0" y="81.5634765625"/>
      <point x="455.0" y="110.0" type="curve" smooth="yes"/>
      <point x="455.0" y="123.7734375"/>
      <point x="455.625976562" y="134.396484375"/>
      <point x="457.53515625" y="143.756835938" type="curve" smooth="yes"/>
      <point x="458.997070312" y="150.924804688"/>
      <point x="460.860351562" y="158.9765625"/>
      <point x="468.700195312" y="166.815429688" type="curve" smooth="yes"/>
      <point x="473.534179688" y="171.650390625"/>
      <point x="480.758789062" y="175.830078125"/>
      <point x="490.249023438" y="175.830078125" type="curve" smooth="yes"/>
      <point x="503.877929688" y="175.830078125"/>
      <point x="512.734375" y="168.008789062"/>
      <point x="518.954101562" y="161.7890625" type="curve" smooth="yes"/>
      <point x="528.598632812" y="152.14453125"/>
      <point x="537.02734375" y="139.931640625"/>
      <point x="546.600585938" y="126.584960938" type="curve" smooth="yes"/>
      <point x="558.716796875" y="109.692382812"/>
      <point x="572.092773438" y="91.3193359375"/>
      <point x="584.581054688" y="78.830078125" type="curve" smooth="yes"/>
      <point x="596.751953125" y="66.6591796875"/>
      <point x="606.142578125" y="62.9951171875"/>
      <point x="608.995117188" y="62.9951171875" type="curve" smooth="yes"/>
      <point x="627.611328125" y="62.9951171875"/>
      <point x="637.467773438" y="68.0263671875"/>
      <point x="644.6953125" y="75.2529296875" type="curve" smooth="yes"/>
      <point x="664.999023438" y="95.556640625"/>
      <point x="668.0" y="140.874023438"/>
      <point x="668.0" y="185.0" type="curve" smooth="yes"/>
      <point x="668.0" y="246.803710938"/>
      <point x="639.997070312" y="306.090820312"/>
      <point x="595.077148438" y="351.010742188" type="curve" smooth="yes"/>
      <point x="546.814453125" y="399.2734375"/>
      <point x="479.806640625" y="430.004882812"/>
      <point x="410.995117188" y="430.004882812" type="curve" smooth="yes"/>
      <point x="297.4375" y="430.004882812"/>
      <point x="212.420898438" y="404.608398438"/>
      <point x="161.290039062" y="353.477539062" type="curve" smooth="yes"/>
      <point x="122.552734375" y="314.740234375"/>
      <point x="99.990234375" y="259.02734375"/>
      <point x="99.990234375" y="179.0" type="curve" smooth="yes"/>
      <point x="99.990234375" y="84.2265625"/>
      <point x="137.635742188" y="-13.4833984375"/>
      <point x="199.756835938" y="-75.603515625" type="curve" smooth="yes"/>
      <point x="242.232421875" y="-118.079101562"/>
      <point x="295.422851562" y="-144.004882812"/>
      <point x="356.995117188" y="-144.004882812" type="curve" smooth="yes"/>
      <point x="357.4921875" y="-144.004882812"/>
      <point x="526.858398438" y="-147.004882812"/>
      <point x="635.995117188" y="-147.004882812" type="curve" smooth="yes"/>
      <point x="648.390625" y="-147.004882812"/>
      <point x="659.0" y="-139.133789062"/>
      <point x="659.0" y="-127.0" type="curve" smooth="yes"/>
      <point x="659.0" y="-114.307617188"/>
      <point x="665.923828125" y="-105.713867188"/>
      <point x="668.87890625" y="-102.41015625" type="curve" smooth="yes"/>
      <point x="671.620117188" y="-92.328125"/>
      <point x="681.602539062" y="-84.0048828125"/>
      <point x="692.995117188" y="-84.0048828125" type="curve" smooth="yes"/>
      <point x="699.39453125" y="-84.0048828125"/>
      <point x="705.794921875" y="-86.4443359375"/>
      <point x="710.672851562" y="-91.322265625" type="curve" smooth="yes"/>
      <point x="715.55078125" y="-96.2001953125"/>
      <point x="717.990234375" y="-102.600585938"/>
      <point x="717.990234375" y="-109.0" type="curve" smooth="yes"/>
      <point x="717.990234375" y="-120.856445312"/>
      <point x="711.948242188" y="-129.137695312"/>
      <point x="708.743164062" y="-132.869140625" type="curve" smooth="yes"/>
      <point x="705.640625" y="-169.608398438"/>
      <point x="673.735351562" y="-196.995117188"/>
      <point x="635.995117188" y="-196.995117188" type="curve" smooth="yes"/>
      <point x="528.84765625" y="-196.995117188"/>
      <point x="363.579101562" y="-194.114257812"/>
      <point x="356.768554688" y="-193.995117188" type="curve" smooth="yes"/>
      <point x="280.325195312" y="-193.9296875"/>
      <point x="214.536132812" y="-161.09375"/>
      <point x="164.401367188" y="-110.958984375" type="curve" smooth="yes"/>
      <point x="91.3466796875" y="-37.904296875"/>
      <point x="50.0" y="71.669921875"/>
      <point x="50.0" y="179.0" type="curve" smooth="yes"/>
      <point x="50.0" y="268.666992188"/>
      <point x="76.1650390625" y="339.063476562"/>
      <point x="125.934570312" y="388.833007812" type="curve" smooth="yes"/>
      <point x="191.123046875" y="454.021484375"/>
      <point x="291.1328125" y="479.995117188"/>
      <point x="410.995117188" y="479.995117188" type="curve" smooth="yes"/>
      <point x="494.756835938" y="479.995117188"/>
      <point x="573.5625" y="443.235351562"/>
      <point x="630.432617188" y="386.366210938" type="curve" smooth="yes"/>
      <point x="683.37890625" y="333.419921875"/>
      <point x="717.990234375" y="262.221679688"/>
      <point x="717.990234375" y="185.0" type="curve" smooth="yes"/>
      <point x="717.990234375" y="124.98046875"/>
      <point x="712.104492188" y="71.9521484375"/>
      <point x="680.05078125" y="39.8984375" type="curve" smooth="yes"/>
      <point x="662.5703125" y="22.41796875"/>
      <point x="638.048828125" y="13.0048828125"/>
      <point x="608.995117188" y="13.0048828125" type="curve" smooth="yes"/>
      <point x="583.344726562" y="13.0048828125"/>
      <point x="564.205078125" y="28.49609375"/>
      <point x="549.2265625" y="43.474609375" type="curve" smooth="yes"/>
      <point x="531.83203125" y="60.8681640625"/>
      <point x="517.465820312" y="81.458984375"/>
      <point x="504.743164062" y="99.1416015625" type="curve"/>
      <point x="502.908203125" y="59.21875"/>
      <point x="491.55859375" y="24.4716796875"/>
      <point x="468.78515625" y="1.6982421875" type="curve" smooth="yes"/>
      <point x="453.71875" y="-13.369140625"/>
      <point x="432.67578125" y="-22.9951171875"/>
      <point x="407.995117188" y="-22.9951171875" type="curve" smooth="yes"/>
      <point x="341.59375" y="-22.9951171875"/>
      <point x="270.33984375" y="-3.8056640625"/>
      <point x="222.186523438" y="44.34765625" type="curve" smooth="yes"/>
      <point x="190.2109375" y="76.3232421875"/>
      <point x="170.0" y="120.755859375"/>
    </contour>
  </outline>
</glyph>
<glyph name="A" format="2">
  <advance width="506"/>
  <unicode hex="0041"/>
  <outline>
    <contour>
      <point x="149.377929688" y="457.811523438" type="curve"/>
      <point x="148.998046875" y="468.625976562"/>
      <point x="148.7890625" y="479.791015625"/>
      <point x="148.7890625" y="490.704101562" type="curve" smooth="yes"/>
      <point x="148.7890625" y="593.673828125"/>
      <point x="194.08203125" y="693.57421875"/>
      <point x="260.375976562" y="768.685546875" type="curve" smooth="yes"/>
      <point x="268.01953125" y="777.345703125"/>
      <point x="284.669921875" y="795.35546875"/>
      <point x="296.509765625" y="803.806640625" type="curve" smooth="yes"/>
      <point x="302.750976562" y="808.260742188"/>
      <point x="309.571289062" y="812.995117188"/>
      <point x="320.995117188" y="812.995117188" type="curve" smooth="yes"/>
      <point x="328.538085938" y="812.995117188"/>
      <point x="335.849609375" y="809.40625"/>
      <point x="340.248046875" y="805.008789062" type="curve" smooth="yes"/>
      <point x="345.943359375" y="799.313476562"/>
      <point x="347.208007812" y="794.23828125"/>
      <point x="348.040039062" y="790.98046875" type="curve" smooth="yes"/>
      <point x="349.375" y="785.75390625"/>
      <point x="349.373046875" y="783.088867188"/>
      <point x="349.373046875" y="778.913085938" type="curve" smooth="yes"/>
      <point x="349.373046875" y="776.895507812"/>
      <point x="349.291015625" y="775.126953125"/>
      <point x="349.1875" y="773.690429688" type="curve" smooth="yes"/>
      <point x="361.451171875" y="690.374023438"/>
      <point x="376.287109375" y="609.630859375"/>
      <point x="390.607421875" y="528.37109375" type="curve" smooth="yes"/>
      <point x="390.663085938" y="528.055664062"/>
      <point x="390.712890625" y="527.739257812"/>
      <point x="390.756835938" y="527.421875" type="curve" smooth="yes"/>
      <point x="411.756835938" y="374.421875" type="line" smooth="yes"/>
      <point x="411.86328125" y="373.641601562"/>
      <point x="411.93359375" y="372.856445312"/>
      <point x="411.967773438" y="372.0703125" type="curve" smooth="yes"/>
      <point x="417.943359375" y="231.6328125" type="line"/>
      <point x="421.534179688" y="190.39453125"/>
      <point x="421.772460938" y="148.889648438"/>
      <point x="426.555664062" y="109.091796875" type="curve" smooth="yes"/>
      <point x="432.9921875" y="87.08203125"/>
      <point x="439.024414062" y="65.1171875"/>
      <point x="444.110351562" y="41.7568359375" type="curve" smooth="yes"/>
      <point x="449.829101562" y="25.0556640625"/>
      <point x="453.24609375" y="13.505859375"/>
      <point x="455.12890625" y="4.93359375" type="curve" smooth="yes"/>
      <point x="456.11328125" y="0.4521484375"/>
      <point x="456.817382812" y="-3.1923828125"/>
      <point x="456.817382812" y="-8.2861328125" type="curve" smooth="yes"/>
      <point x="456.817382812" y="-9.912109375"/>
      <point x="456.689453125" y="-11.861328125"/>
      <point x="456.083007812" y="-14.5556640625" type="curve" smooth="yes"/>
      <point x="455.461914062" y="-17.3134765625"/>
      <point x="454.362304688" y="-22.0859375"/>
      <point x="449.071289062" y="-27.376953125" type="curve" smooth="yes"/>
      <point x="444.58984375" y="-31.859375"/>
      <point x="437.427734375" y="-34.849609375"/>
      <point x="430.854492188" y="-34.849609375" type="curve" smooth="yes"/>
      <point x="415.481445312" y="-34.849609375"/>
      <point x="408.491210938" y="-23.5634765625"/>
      <point x="403.95703125" y="-15.029296875" type="curve" smooth="yes"/>
      <point x="401.439453125" y="-10.2900390625"/>
      <point x="398.977539062" y="-4.76953125"/>
      <point x="396.505859375" y="1.5927734375" type="curve" smooth="yes"/>
      <point x="391.340820312" y="14.8896484375"/>
      <point x="386.202148438" y="31.658203125"/>
      <point x="383.68359375" y="49.1826171875" type="curve"/>
      <point x="366.459960938" y="89.6552734375"/>
      <point x="367.61328125" y="127.068359375"/>
      <point x="357.260742188" y="167.922851562" type="curve"/>
      <point x="338.459960938" y="212.622070312"/>
      <point x="329.033203125" y="266.443359375"/>
      <point x="305.765625" y="303.7890625" type="curve" smooth="yes"/>
      <point x="305.286132812" y="304.55859375"/>
      <point x="304.852539062" y="305.34765625"/>
      <point x="304.46484375" y="306.154296875" type="curve" smooth="yes"/>
      <point x="285.357421875" y="345.8828125"/>
      <point x="248.060546875" y="369.267578125"/>
      <point x="205.618164062" y="386.659179688" type="curve"/>
      <point x="209.671875" y="353.838867188"/>
      <point x="214.37890625" y="321.095703125"/>
      <point x="218.588867188" y="287.805664062" type="curve" smooth="yes"/>
      <point x="222.192382812" y="259.318359375"/>
      <point x="226.295898438" y="228.469726562"/>
      <point x="226.295898438" y="197.379882812" type="curve" smooth="yes"/>
      <point x="226.295898438" y="182.381835938"/>
      <point x="225.340820312" y="167.328125"/>
      <point x="222.9140625" y="152.456054688" type="curve"/>
      <point x="220.704101562" y="96.4482421875"/>
      <point x="202.24609375" y="34.94140625"/>
      <point x="159.041015625" y="-8.2626953125" type="curve" smooth="yes"/>
      <point x="153.458007812" y="-13.8466796875"/>
      <point x="147.471679688" y="-19.0947265625"/>
      <point x="141.076171875" y="-23.94140625" type="curve" smooth="yes"/>
      <point x="136.631835938" y="-27.310546875"/>
      <point x="131.313476562" y="-28.9951171875"/>
      <point x="125.995117188" y="-28.9951171875" type="curve" smooth="yes"/>
      <point x="119.995117188" y="-28.9951171875" type="line" smooth="yes"/>
      <point x="113.595703125" y="-28.9951171875"/>
      <point x="107.1953125" y="-26.5556640625"/>
      <point x="102.317382812" y="-21.677734375" type="curve" smooth="yes"/>
      <point x="97.439453125" y="-16.7998046875"/>
      <point x="95.0" y="-10.3994140625"/>
      <point x="95.0" y="-4.0" type="curve" smooth="yes"/>
      <point x="95.0" y="8.5771484375"/>
      <point x="105.036132812" y="19.3466796875"/>
      <point x="116.924804688" y="20.8076171875" type="curve"/>
      <point x="152.162109375" y="51.21875"/>
      <point x="171.299804688" y="104.951171875"/>
      <point x="173.014648438" y="155.84765625" type="curve" smooth="yes"/>
      <point x="173.052734375" y="156.983398438"/>
      <point x="173.16796875" y="158.116210938"/>
      <point x="173.359375" y="159.23828125" type="curve" smooth="yes"/>
      <point x="175.345703125" y="170.856445312"/>
      <point x="176.153320312" y="183.299804688"/>
      <point x="176.153320312" y="196.2734375" type="curve" smooth="yes"/>
      <point x="176.153320312" y="227.639648438"/>
      <point x="171.138671875" y="263.7578125"/>
      <point x="167.1875" y="295.931640625" type="curve" smooth="yes"/>
      <point x="162.734375" y="332.1953125"/>
      <point x="157.07421875" y="367.708984375"/>
      <point x="153.234375" y="404.513671875" type="curve"/>
      <point x="142.041992188" y="407.811523438"/>
      <point x="128.861328125" y="412.004882812"/>
      <point x="119.995117188" y="412.004882812" type="curve" smooth="yes"/>
      <point x="113.547851562" y="412.004882812"/>
      <point x="110.455078125" y="413.7578125"/>
      <point x="108.595703125" y="414.672851562" type="curve" smooth="yes"/>
      <point x="103.712890625" y="417.075195312"/>
      <point x="101.17578125" y="419.731445312"/>
      <point x="98.2392578125" y="422.783203125" type="curve"/>
      <point x="70.859375" y="427.346679688" type="line" smooth="yes"/>
      <point x="59.529296875" y="429.235351562"/>
      <point x="50.0" y="439.748046875"/>
      <point x="50.0" y="452.0" type="curve" smooth="yes"/>
      <point x="50.0" y="458.399414062"/>
      <point x="52.439453125" y="464.799804688"/>
      <point x="57.3173828125" y="469.677734375" type="curve" smooth="yes"/>
      <point x="62.1953125" y="474.555664062"/>
      <point x="68.595703125" y="476.995117188"/>
      <point x="74.9951171875" y="476.995117188" type="curve" smooth="yes"/>
      <point x="76.37890625" y="476.995117188"/>
      <point x="77.7626953125" y="476.880859375"/>
      <point x="79.130859375" y="476.653320312" type="curve" smooth="yes"/>
      <point x="115.130859375" y="470.653320312" type="line" smooth="yes"/>
      <point x="121.295898438" y="469.625"/>
      <point x="126.6640625" y="466.08203125"/>
      <point x="130.72265625" y="461.416992188" type="curve"/>
      <point x="137.524414062" y="460.685546875"/>
      <point x="143.692382812" y="459.336914062"/>
    </contour>
    <contour>
      <point x="198.990234375" y="479.0" type="curve" smooth="yes"/>
      <point x="198.990234375" y="466.629882812"/>
      <point x="199.43359375" y="454.401367188"/>
      <point x="200.206054688" y="442.2265625" type="curve"/>
      <point x="240.387695312" y="428.4765625"/>
      <point x="282.327148438" y="408.833984375"/>
      <point x="314.896484375" y="376.264648438" type="curve" smooth="yes"/>
      <point x="328.334960938" y="362.825195312"/>
      <point x="340.041992188" y="347.17578125"/>
      <point x="348.9296875" y="329.0703125" type="curve" smooth="yes"/>
      <point x="355.266601562" y="318.751953125"/>
      <point x="360.536132812" y="308.145507812"/>
      <point x="365.107421875" y="297.442382812" type="curve"/>
      <point x="362.073242188" y="368.748046875" type="line"/>
      <point x="341.298828125" y="520.1015625" type="line" smooth="yes"/>
      <point x="331.123046875" y="594.237304688"/>
      <point x="314.681640625" y="666.551757812"/>
      <point x="303.545898438" y="741.950195312" type="curve"/>
      <point x="301.212890625" y="739.388671875"/>
      <point x="299.247070312" y="737.1640625"/>
      <point x="297.892578125" y="735.629882812" type="curve" smooth="yes"/>
      <point x="238.345703125" y="668.163085938"/>
      <point x="198.783203125" y="578.698242188"/>
      <point x="198.783203125" y="490.469726562" type="curve" smooth="yes"/>
      <point x="198.783203125" y="486.642578125"/>
      <point x="198.990234375" y="482.821289062"/>
    </contour>
  </outline>
</glyph>
<glyph name="B" format="2">
  <advance width="542"/>
  <unicode hex="0042"/>
  <outline>
    <contour>
      <point x="274.995117188" y="739.42578125" type="curve" smooth="yes"/>
      <point x="273.31640625" y="739.42578125"/>
      <point x="271.6796875" y="739.004882812"/>
      <point x="269.995117188" y="739.004882812" type="curve" smooth="yes"/>
      <point x="251.030273438" y="739.004882812"/>
      <point x="229.459960938" y="745.6171875"/>
      <point x="212.140625" y="748.301757812" type="curve" smooth="yes"/>
      <point x="209.87890625" y="748.65234375"/>
      <point x="207.639648438" y="748.825195312"/>
      <point x="205.426757812" y="748.825195312" type="curve" smooth="yes"/>
      <point x="176.682617188" y="748.825195312"/>
      <point x="154.2109375" y="718.443359375"/>
      <point x="147.875" y="694.486328125" type="curve" smooth="yes"/>
      <point x="147.14453125" y="683.850585938"/>
      <point x="143.3828125" y="674.1484375"/>
      <point x="141.350585938" y="665.345703125" type="curve" smooth="yes"/>
      <point x="126.497070312" y="605.9296875" type="line"/>
      <point x="108.90234375" y="497.4296875" type="line"/>
      <point x="100.044921875" y="293.709960938" type="line"/>
      <point x="111.647460938" y="177.6796875" type="line"/>
      <point x="127.416015625" y="121.487304688"/>
      <point x="143.465820312" y="67.580078125"/>
      <point x="164.287109375" y="14.0908203125" type="curve" smooth="yes"/>
      <point x="165.422851562" y="11.1748046875"/>
      <point x="165.990234375" y="8.0869140625"/>
      <point x="165.990234375" y="5.0" type="curve" smooth="yes"/>
      <point x="165.990234375" y="-1.3994140625"/>
      <point x="163.55078125" y="-7.7998046875"/>
      <point x="158.672851562" y="-12.677734375" type="curve" smooth="yes"/>
      <point x="153.794921875" y="-17.5556640625"/>
      <point x="147.39453125" y="-19.9951171875"/>
      <point x="140.995117188" y="-19.9951171875" type="curve" smooth="yes"/>
      <point x="130.583007812" y="-19.9951171875"/>
      <point x="121.135742188" y="-12.9091796875"/>
      <point x="117.703125" y="-4.0908203125" type="curve" smooth="yes"/>
      <point x="95.64453125" y="52.5751953125"/>
      <point x="79.01171875" y="108.834960938"/>
      <point x="62.9296875" y="166.224609375" type="curve" smooth="yes"/>
      <point x="62.537109375" y="167.625976562"/>
      <point x="62.2685546875" y="169.055664062"/>
      <point x="62.125" y="170.495117188" type="curve" smooth="yes"/>
      <point x="50.125" y="290.495117188" type="line" smooth="yes"/>
      <point x="50.0419921875" y="291.328125"/>
      <point x="50.0" y="292.1640625"/>
      <point x="50.0" y="293.0" type="curve" smooth="yes"/>
      <point x="50.0" y="293.364257812"/>
      <point x="50.0078125" y="293.729492188"/>
      <point x="50.0234375" y="294.09375" type="curve" smooth="yes"/>
      <point x="59.0234375" y="501.09375" type="line" smooth="yes"/>
      <point x="59.06640625" y="502.075195312"/>
      <point x="59.1669921875" y="503.0546875"/>
      <point x="59.32421875" y="504.02734375" type="curve" smooth="yes"/>
      <point x="77.32421875" y="615.02734375" type="line" smooth="yes"/>
      <point x="77.4365234375" y="615.720703125"/>
      <point x="77.578125" y="616.41015625"/>
      <point x="77.7490234375" y="617.09375" type="curve" smooth="yes"/>
      <point x="83.2509765625" y="639.102539062"/>
      <point x="88.4873046875" y="661.272460938"/>
      <point x="94.3125" y="683.149414062" type="curve" smooth="yes"/>
      <point x="95.8134765625" y="688.783203125"/>
      <point x="97.7685546875" y="697.265625"/>
      <point x="98.0107421875" y="698.741210938" type="curve" smooth="yes"/>
      <point x="98.0595703125" y="700.37890625"/>
      <point x="98.267578125" y="702.013671875"/>
      <point x="98.6357421875" y="703.618164062" type="curve" smooth="yes"/>
      <point x="103.926757812" y="726.690429688"/>
      <point x="116.109375" y="749.407226562"/>
      <point x="134.126953125" y="767.424804688" type="curve" smooth="yes"/>
      <point x="151.926757812" y="785.224609375"/>
      <point x="176.721679688" y="798.810546875"/>
      <point x="205.526367188" y="798.810546875" type="curve" smooth="yes"/>
      <point x="225.178710938" y="798.810546875"/>
      <point x="252.534179688" y="790.276367188"/>
      <point x="268.633789062" y="789.056640625" type="curve" smooth="yes"/>
      <point x="271.036132812" y="789.348632812"/>
      <point x="273.372070312" y="789.483398438"/>
      <point x="275.639648438" y="789.483398438" type="curve" smooth="yes"/>
      <point x="294.201171875" y="789.483398438"/>
      <point x="308.23046875" y="780.502929688"/>
      <point x="316.985351562" y="775.559570312" type="curve" smooth="yes"/>
      <point x="325.114257812" y="770.967773438"/>
      <point x="330.813476562" y="768.254882812"/>
      <point x="334.469726562" y="767.59375" type="curve" smooth="yes"/>
      <point x="371.192382812" y="760.955078125"/>
      <point x="402.772460938" y="743.36328125"/>
      <point x="427.190429688" y="718.944335938" type="curve" smooth="yes"/>
      <point x="463.62109375" y="682.514648438"/>
      <point x="483.990234375" y="631.473632812"/>
      <point x="483.990234375" y="578.0" type="curve" smooth="yes"/>
      <point x="483.990234375" y="575.751953125"/>
      <point x="483.689453125" y="573.50390625"/>
      <point x="483.086914062" y="571.321289062" type="curve" smooth="yes"/>
      <point x="474.670898438" y="540.814453125"/>
      <point x="457.119140625" y="513.7890625"/>
      <point x="434.737304688" y="491.407226562" type="curve" smooth="yes"/>
      <point x="399.576171875" y="456.24609375"/>
      <point x="351.498046875" y="431.2421875"/>
      <point x="302.419921875" y="424.903320312" type="curve"/>
      <point x="338.377929688" y="402.224609375"/>
      <point x="386.321289062" y="372.758789062"/>
      <point x="426.340820312" y="332.73828125" type="curve" smooth="yes"/>
      <point x="462.516601562" y="296.5625"/>
      <point x="492.990234375" y="250.504882812"/>
      <point x="492.990234375" y="194.0" type="curve" smooth="yes"/>
      <point x="492.990234375" y="136.438476562"/>
      <point x="476.37890625" y="88.8779296875"/>
      <point x="443.403320312" y="55.90234375" type="curve" smooth="yes"/>
      <point x="410.073242188" y="22.572265625"/>
      <point x="362.971679688" y="7.0048828125"/>
      <point x="308.995117188" y="7.0048828125" type="curve" smooth="yes"/>
      <point x="264.69921875" y="7.0048828125"/>
      <point x="235.760742188" y="32.634765625"/>
      <point x="204.112304688" y="44.6279296875" type="curve" smooth="yes"/>
      <point x="197.55078125" y="47.1142578125"/>
      <point x="191.94921875" y="52.7685546875"/>
      <point x="189.529296875" y="59.369140625" type="curve" smooth="yes"/>
      <point x="156.529296875" y="149.369140625" type="line" smooth="yes"/>
      <point x="155.63671875" y="151.802734375"/>
      <point x="155.134765625" y="154.34765625"/>
      <point x="155.0234375" y="156.90625" type="curve" smooth="yes"/>
      <point x="152.0234375" y="225.90625" type="line" smooth="yes"/>
      <point x="152.0078125" y="226.270507812"/>
      <point x="152.0" y="226.635742188"/>
      <point x="152.0" y="227.0" type="curve" smooth="yes"/>
      <point x="152.0" y="233.399414062"/>
      <point x="154.439453125" y="239.799804688"/>
      <point x="159.317382812" y="244.677734375" type="curve" smooth="yes"/>
      <point x="164.1953125" y="249.555664062"/>
      <point x="170.595703125" y="251.995117188"/>
      <point x="176.995117188" y="251.995117188" type="curve" smooth="yes"/>
      <point x="183.39453125" y="251.995117188"/>
      <point x="189.794921875" y="249.555664062"/>
      <point x="194.672851562" y="244.677734375" type="curve" smooth="yes"/>
      <point x="199.2734375" y="240.077148438"/>
      <point x="201.704101562" y="234.124023438"/>
      <point x="201.966796875" y="228.09375" type="curve" smooth="yes"/>
      <point x="204.796875" y="162.987304688" type="line"/>
      <point x="232.708984375" y="86.865234375" type="line"/>
      <point x="240.215820312" y="83.486328125"/>
      <point x="247.33203125" y="79.8046875"/>
      <point x="254.208984375" y="76.2783203125" type="curve" smooth="yes"/>
      <point x="275.630859375" y="65.2958984375"/>
      <point x="293.875" y="56.9951171875"/>
      <point x="308.995117188" y="56.9951171875" type="curve" smooth="yes"/>
      <point x="353.625" y="56.9951171875"/>
      <point x="386.361328125" y="69.5712890625"/>
      <point x="408.047851562" y="91.2578125" type="curve" smooth="yes"/>
      <point x="429.479492188" y="112.689453125"/>
      <point x="443.0" y="145.819335938"/>
      <point x="443.0" y="194.0" type="curve" smooth="yes"/>
      <point x="443.0" y="231.265625"/>
      <point x="422.5859375" y="265.783203125"/>
      <point x="390.986328125" y="297.3828125" type="curve" smooth="yes"/>
      <point x="357.25390625" y="331.115234375"/>
      <point x="312.602539062" y="359.440429688"/>
      <point x="277.837890625" y="381.28515625" type="curve" smooth="yes"/>
      <point x="256.59375" y="394.633789062"/>
      <point x="239.522460938" y="404.609375"/>
      <point x="227.442382812" y="416.689453125" type="curve" smooth="yes"/>
      <point x="222.713867188" y="421.41796875"/>
      <point x="217.538085938" y="427.83984375"/>
      <point x="215.680664062" y="436.515625" type="curve"/>
      <point x="209.662109375" y="441.28515625"/>
      <point x="203.834960938" y="448.780273438"/>
      <point x="203.834960938" y="459.897460938" type="curve" smooth="yes"/>
      <point x="203.834960938" y="477.03515625"/>
      <point x="217.241210938" y="485.6640625"/>
      <point x="226.3828125" y="490.106445312" type="curve" smooth="yes"/>
      <point x="230.877929688" y="492.291992188"/>
      <point x="234.262695312" y="493.436523438"/>
      <point x="234.848632812" y="493.637695312" type="curve" smooth="yes"/>
      <point x="237.483398438" y="494.54296875"/>
      <point x="240.239257812" y="494.995117188"/>
      <point x="242.995117188" y="494.995117188" type="curve" smooth="yes"/>
      <point x="255.359375" y="494.995117188"/>
      <point x="265.963867188" y="485.290039062"/>
      <point x="267.70703125" y="473.762695312" type="curve"/>
      <point x="270.912109375" y="473.494140625"/>
      <point x="274.16796875" y="473.361328125"/>
      <point x="277.46484375" y="473.361328125" type="curve" smooth="yes"/>
      <point x="318.91796875" y="473.361328125"/>
      <point x="366.853515625" y="494.234375"/>
      <point x="399.381835938" y="526.762695312" type="curve" smooth="yes"/>
      <point x="415.803710938" y="543.185546875"/>
      <point x="427.9296875" y="562.108398438"/>
      <point x="433.961914062" y="581.473632812" type="curve"/>
      <point x="432.458984375" y="649.454101562"/>
      <point x="388.321289062" y="707.051757812"/>
      <point x="325.520507812" y="718.40625" type="curve" smooth="yes"/>
      <point x="310.916015625" y="721.045898438"/>
      <point x="300.293945312" y="727.551757812"/>
      <point x="292.400390625" y="732.009765625" type="curve" smooth="yes"/>
      <point x="281.741210938" y="738.029296875"/>
      <point x="277.245117188" y="739.42578125"/>
    </contour>
  </outline>
</glyph>
<glyph name="C" format="2">
  <advance width="485"/>
  <unicode hex="0043"/>
  <outline>
    <contour>
      <point x="417.990234375" y="686.0" type="curve" smooth="yes"/>
      <point x="417.990234375" y="679.600585938"/>
      <point x="415.55078125" y="673.200195312"/>
      <point x="410.672851562" y="668.322265625" type="curve" smooth="yes"/>
      <point x="405.794921875" y="663.444335938"/>
      <point x="399.39453125" y="661.004882812"/>
      <point x="392.995117188" y="661.004882812" type="curve" smooth="yes"/>
      <point x="380.405273438" y="661.004882812"/>
      <point x="369.625976562" y="671.061523438"/>
      <point x="368.182617188" y="682.97265625" type="curve" smooth="yes"/>
      <point x="366.0703125" y="700.40625"/>
      <point x="359.465820312" y="717.591796875"/>
      <point x="352.10546875" y="724.952148438" type="curve" smooth="yes"/>
      <point x="349.428710938" y="727.62890625"/>
      <point x="346.8671875" y="729.15625"/>
      <point x="343.931640625" y="730.017578125" type="curve" smooth="yes"/>
      <point x="325.05859375" y="735.55078125"/>
      <point x="311.234375" y="747.072265625"/>
      <point x="295.671875" y="753.2265625" type="curve" smooth="yes"/>
      <point x="291.958007812" y="754.6953125"/>
      <point x="289.586914062" y="755.004882812"/>
      <point x="288.995117188" y="755.004882812" type="curve" smooth="yes"/>
      <point x="251.071289062" y="755.004882812"/>
      <point x="228.616210938" y="743.751953125"/>
      <point x="211.522460938" y="726.658203125" type="curve" smooth="yes"/>
      <point x="187.2421875" y="702.377929688"/>
      <point x="172.7421875" y="661.309570312"/>
      <point x="158.068359375" y="616.208984375" type="curve" smooth="yes"/>
      <point x="146.603515625" y="580.971679688"/>
      <point x="135.0546875" y="543.649414062"/>
      <point x="113.1484375" y="512.631835938" type="curve"/>
      <point x="100.02734375" y="387.041992188" type="line"/>
      <point x="103.939453125" y="248.141601562" type="line"/>
      <point x="111.59375" y="194.567382812" type="line"/>
      <point x="115.333984375" y="178.041015625"/>
      <point x="118.58203125" y="163.669921875"/>
      <point x="124.959960938" y="151.950195312" type="curve" smooth="yes"/>
      <point x="130.065429688" y="142.567382812"/>
      <point x="134.27734375" y="131.569335938"/>
      <point x="139.15625" y="119.274414062" type="curve" smooth="yes"/>
      <point x="148.380859375" y="96.02734375"/>
      <point x="160.620117188" y="63.9384765625"/>
      <point x="176.004882812" y="48.5546875" type="curve" smooth="yes"/>
      <point x="181.223632812" y="43.3349609375"/>
      <point x="184.0234375" y="42.9951171875"/>
      <point x="184.995117188" y="42.9951171875" type="curve" smooth="yes"/>
      <point x="198.995117188" y="42.9951171875" type="line" smooth="yes"/>
      <point x="202.345703125" y="42.9951171875"/>
      <point x="205.696289062" y="42.326171875"/>
      <point x="208.829101562" y="40.9892578125" type="curve" smooth="yes"/>
      <point x="235.647460938" y="29.5400390625"/>
      <point x="264.153320312" y="22.912109375"/>
      <point x="294.706054688" y="22.912109375" type="curve" smooth="yes"/>
      <point x="310.643554688" y="22.912109375"/>
      <point x="322.897460938" y="25.427734375"/>
      <point x="331.333007812" y="29.3642578125" type="curve" smooth="yes"/>
      <point x="340.934570312" y="33.8447265625"/>
      <point x="349.814453125" y="41.2705078125"/>
      <point x="362.705078125" y="52.5791015625" type="curve" smooth="yes"/>
      <point x="364.967773438" y="54.5654296875"/>
      <point x="367.342773438" y="56.6494140625"/>
      <point x="369.846679688" y="58.8134765625" type="curve"/>
      <point x="384.151367188" y="96.958984375" type="line"/>
      <point x="386.013671875" y="152.838867188" type="line" smooth="yes"/>
      <point x="386.217773438" y="158.956054688"/>
      <point x="388.65234375" y="165.012695312"/>
      <point x="393.317382812" y="169.677734375" type="curve" smooth="yes"/>
      <point x="398.1953125" y="174.555664062"/>
      <point x="404.595703125" y="176.995117188"/>
      <point x="410.995117188" y="176.995117188" type="curve" smooth="yes"/>
      <point x="417.39453125" y="176.995117188"/>
      <point x="423.794921875" y="174.555664062"/>
      <point x="428.672851562" y="169.677734375" type="curve" smooth="yes"/>
      <point x="433.55078125" y="164.799804688"/>
      <point x="435.990234375" y="158.399414062"/>
      <point x="435.990234375" y="152.0" type="curve" smooth="yes"/>
      <point x="435.990234375" y="151.720703125"/>
      <point x="435.985351562" y="151.440429688"/>
      <point x="435.9765625" y="151.161132812" type="curve" smooth="yes"/>
      <point x="433.9765625" y="91.1611328125" type="line" smooth="yes"/>
      <point x="433.885742188" y="88.4560546875"/>
      <point x="433.360351562" y="85.763671875"/>
      <point x="432.397460938" y="83.1982421875" type="curve" smooth="yes"/>
      <point x="414.397460938" y="35.1982421875" type="line" smooth="yes"/>
      <point x="412.9453125" y="31.32421875"/>
      <point x="410.33203125" y="27.603515625"/>
      <point x="407.09765625" y="24.875" type="curve" smooth="yes"/>
      <point x="389.739257812" y="10.2314453125"/>
      <point x="375.572265625" y="-5.177734375"/>
      <point x="352.501953125" y="-15.943359375" type="curve" smooth="yes"/>
      <point x="336.517578125" y="-23.4033203125"/>
      <point x="317.859375" y="-27.0771484375"/>
      <point x="294.780273438" y="-27.0771484375" type="curve" smooth="yes"/>
      <point x="258.69921875" y="-27.0771484375"/>
      <point x="224.89453125" y="-19.5478515625"/>
      <point x="193.978515625" y="-6.9951171875" type="curve"/>
      <point x="184.995117188" y="-6.9951171875" type="line" smooth="yes"/>
      <point x="166.200195312" y="-6.9951171875"/>
      <point x="151.322265625" y="2.525390625"/>
      <point x="140.649414062" y="13.19921875" type="curve" smooth="yes"/>
      <point x="118.583007812" y="35.265625"/>
      <point x="104.422851562" y="71.2255859375"/>
      <point x="92.6904296875" y="100.790039062" type="curve" smooth="yes"/>
      <point x="87.873046875" y="112.9296875"/>
      <point x="83.58203125" y="123.361328125"/>
      <point x="81.0302734375" y="128.049804688" type="curve" smooth="yes"/>
      <point x="69.982421875" y="148.353515625"/>
      <point x="66.69921875" y="166.502929688"/>
      <point x="62.625" y="184.428710938" type="curve" smooth="yes"/>
      <point x="62.47265625" y="185.095703125"/>
      <point x="62.349609375" y="185.766601562"/>
      <point x="62.2529296875" y="186.44140625" type="curve" smooth="yes"/>
      <point x="54.2529296875" y="242.44140625" type="line" smooth="yes"/>
      <point x="54.1181640625" y="243.38671875"/>
      <point x="54.037109375" y="244.337890625"/>
      <point x="54.009765625" y="245.291015625" type="curve" smooth="yes"/>
      <point x="50.009765625" y="387.291015625" type="line" smooth="yes"/>
      <point x="50.0029296875" y="387.52734375"/>
      <point x="50.0" y="387.763671875"/>
      <point x="50.0" y="388.0" type="curve" smooth="yes"/>
      <point x="50.0" y="388.873046875"/>
      <point x="50.0458984375" y="389.74609375"/>
      <point x="50.13671875" y="390.616210938" type="curve" smooth="yes"/>
      <point x="64.13671875" y="524.616210938" type="line" smooth="yes"/>
      <point x="64.60546875" y="529.108398438"/>
      <point x="66.287109375" y="533.497070312"/>
      <point x="69.181640625" y="537.25" type="curve" smooth="yes"/>
      <point x="86.373046875" y="559.538085938"/>
      <point x="98.2490234375" y="593.971679688"/>
      <point x="110.536132812" y="631.734375" type="curve" smooth="yes"/>
      <point x="124.971679688" y="676.104492188"/>
      <point x="140.028320312" y="725.875976562"/>
      <point x="176.166992188" y="762.013671875" type="curve" smooth="yes"/>
      <point x="202.649414062" y="788.49609375"/>
      <point x="239.823242188" y="804.995117188"/>
      <point x="288.995117188" y="804.995117188" type="curve" smooth="yes"/>
      <point x="309.265625" y="804.995117188"/>
      <point x="324.985351562" y="794.9921875"/>
      <point x="337.716796875" y="787.880859375" type="curve" smooth="yes"/>
      <point x="346.377929688" y="783.043945312"/>
      <point x="353.85546875" y="779.21484375"/>
      <point x="358.05859375" y="777.982421875" type="curve" smooth="yes"/>
      <point x="369.795898438" y="774.541015625"/>
      <point x="379.673828125" y="768.094726562"/>
      <point x="387.4609375" y="760.306640625" type="curve" smooth="yes"/>
      <point x="407.727539062" y="740.041015625"/>
      <point x="414.99609375" y="712.23828125"/>
      <point x="417.807617188" y="689.02734375" type="curve" smooth="yes"/>
      <point x="417.9296875" y="688.022460938"/>
      <point x="417.990234375" y="687.010742188"/>
    </contour>
  </outline>
</glyph>
<glyph name="D" format="2">
  <advance width="503"/>
  <unicode hex="0044"/>
  <outline>
    <contour>
      <point x="190.64453125" y="103.125" type="curve"/>
      <point x="210.80078125" y="101.685546875"/>
      <point x="236.333007812" y="98.9951171875"/>
      <point x="254.995117188" y="98.9951171875" type="curve" smooth="yes"/>
      <point x="278.442382812" y="98.9951171875"/>
      <point x="295.096679688" y="107.369140625"/>
      <point x="310.275390625" y="122.547851562" type="curve" smooth="yes"/>
      <point x="336.168945312" y="148.442382812"/>
      <point x="354.98828125" y="196.25390625"/>
      <point x="372.668945312" y="244.225585938" type="curve" smooth="yes"/>
      <point x="378.643554688" y="260.4375"/>
      <point x="384.568359375" y="276.553710938"/>
      <point x="391.014648438" y="291.802734375" type="curve"/>
      <point x="402.874023438" y="423.412109375" type="line"/>
      <point x="322.458984375" y="658.91015625" type="line" smooth="yes"/>
      <point x="305.1953125" y="709.470703125"/>
      <point x="252.115234375" y="737.004882812"/>
      <point x="188.995117188" y="737.004882812" type="curve" smooth="yes"/>
      <point x="154.796875" y="737.004882812"/>
      <point x="133.524414062" y="727.724609375"/>
      <point x="120.059570312" y="714.259765625" type="curve" smooth="yes"/>
      <point x="110.2265625" y="704.426757812"/>
      <point x="103.173828125" y="690.930664062"/>
      <point x="99.4755859375" y="672.938476562" type="curve" smooth="yes"/>
      <point x="97.24609375" y="662.090820312"/>
      <point x="86.9423828125" y="653.004882812"/>
      <point x="74.9951171875" y="653.004882812" type="curve" smooth="yes"/>
      <point x="68.595703125" y="653.004882812"/>
      <point x="62.1953125" y="655.444335938"/>
      <point x="57.3173828125" y="660.322265625" type="curve" smooth="yes"/>
      <point x="52.439453125" y="665.200195312"/>
      <point x="50.0" y="671.600585938"/>
      <point x="50.0" y="678.0" type="curve" smooth="yes"/>
      <point x="50.0" y="679.696289062"/>
      <point x="50.171875" y="681.393554688"/>
      <point x="50.5146484375" y="683.061523438" type="curve" smooth="yes"/>
      <point x="55.7626953125" y="708.594726562"/>
      <point x="66.75" y="731.661132812"/>
      <point x="84.7041015625" y="749.615234375" type="curve" smooth="yes"/>
      <point x="109.716796875" y="774.627929688"/>
      <point x="145.609375" y="786.995117188"/>
      <point x="188.995117188" y="786.995117188" type="curve" smooth="yes"/>
      <point x="242.193359375" y="786.995117188"/>
      <point x="295.958007812" y="770.971679688"/>
      <point x="333.485351562" y="733.443359375" type="curve" smooth="yes"/>
      <point x="349.348632812" y="717.580078125"/>
      <point x="361.940429688" y="698.032226562"/>
      <point x="369.763671875" y="675.12109375" type="curve" smooth="yes"/>
      <point x="451.899414062" y="434.58203125" type="line" smooth="yes"/>
      <point x="452.794921875" y="431.959960938"/>
      <point x="453.2421875" y="429.21875"/>
      <point x="453.2421875" y="426.4765625" type="curve" smooth="yes"/>
      <point x="453.2421875" y="425.72265625"/>
      <point x="453.208007812" y="424.96875"/>
      <point x="453.140625" y="424.216796875" type="curve" smooth="yes"/>
      <point x="440.4453125" y="283.330078125" type="line" smooth="yes"/>
      <point x="440.208007812" y="280.702148438"/>
      <point x="439.557617188" y="278.104492188"/>
      <point x="438.4921875" y="275.643554688" type="curve" smooth="yes"/>
      <point x="432.201171875" y="261.106445312"/>
      <point x="426.033203125" y="244.416992188"/>
      <point x="419.572265625" y="226.885742188" type="curve" smooth="yes"/>
      <point x="402.0625" y="179.377929688"/>
      <point x="383.092773438" y="124.655273438"/>
      <point x="345.630859375" y="87.193359375" type="curve" smooth="yes"/>
      <point x="322.940429688" y="64.501953125"/>
      <point x="292.58984375" y="49.0048828125"/>
      <point x="254.995117188" y="49.0048828125" type="curve" smooth="yes"/>
      <point x="231.849609375" y="49.0048828125"/>
      <point x="207.701171875" y="51.8740234375"/>
      <point x="185.129882812" y="53.3251953125" type="curve"/>
      <point x="180.530273438" y="29.423828125"/>
      <point x="172.830078125" y="6.5322265625"/>
      <point x="160.637695312" y="-14.5244140625" type="curve" smooth="yes"/>
      <point x="156.505859375" y="-21.6591796875"/>
      <point x="147.8984375" y="-26.9951171875"/>
      <point x="138.995117188" y="-26.9951171875" type="curve" smooth="yes"/>
      <point x="136.1953125" y="-26.9951171875"/>
      <point x="133.395507812" y="-26.5283203125"/>
      <point x="130.72265625" y="-25.5947265625" type="curve" smooth="yes"/>
      <point x="119.318359375" y="-21.609375"/>
      <point x="105.965820312" y="-19.9072265625"/>
      <point x="93.234375" y="-14.919921875" type="curve" smooth="yes"/>
      <point x="86.6181640625" y="-12.328125"/>
      <point x="79.2900390625" y="-8.7900390625"/>
      <point x="72.50390625" y="-2.00390625" type="curve" smooth="yes"/>
      <point x="64.935546875" y="5.564453125"/>
      <point x="59.9599609375" y="16.8740234375"/>
      <point x="59.9599609375" y="28.8173828125" type="curve" smooth="yes"/>
      <point x="59.9599609375" y="29.984375"/>
      <point x="60.00390625" y="31.2177734375"/>
      <point x="60.109375" y="32.3447265625" type="curve" smooth="yes"/>
      <point x="61.8603515625" y="51.060546875"/>
      <point x="68.8388671875" y="67.5224609375"/>
      <point x="80.853515625" y="79.537109375" type="curve" smooth="yes"/>
      <point x="97.666015625" y="96.349609375"/>
      <point x="118.6875" y="101.524414062"/>
      <point x="140.622070312" y="103.500976562" type="curve"/>
      <point x="140.901367188" y="109.5234375"/>
      <point x="141.033203125" y="115.711914062"/>
      <point x="141.033203125" y="121.978515625" type="curve" smooth="yes"/>
      <point x="141.033203125" y="209.862304688"/>
      <point x="115.96875" y="313.192382812"/>
      <point x="115.96875" y="402.655273438" type="curve" smooth="yes"/>
      <point x="115.96875" y="404.489257812"/>
      <point x="115.979492188" y="406.319335938"/>
      <point x="116.0" y="408.146484375" type="curve" smooth="yes"/>
      <point x="116.0" y="676.0" type="line" smooth="yes"/>
      <point x="116.0" y="682.399414062"/>
      <point x="118.439453125" y="688.799804688"/>
      <point x="123.317382812" y="693.677734375" type="curve" smooth="yes"/>
      <point x="128.1953125" y="698.555664062"/>
      <point x="134.595703125" y="700.995117188"/>
      <point x="140.995117188" y="700.995117188" type="curve" smooth="yes"/>
      <point x="147.39453125" y="700.995117188"/>
      <point x="153.794921875" y="698.555664062"/>
      <point x="158.672851562" y="693.677734375" type="curve" smooth="yes"/>
      <point x="163.55078125" y="688.799804688"/>
      <point x="165.990234375" y="682.399414062"/>
      <point x="165.990234375" y="676.0" type="curve" smooth="yes"/>
      <point x="165.990234375" y="407.703125" type="line" smooth="yes"/>
      <point x="165.971679688" y="406.096679688"/>
      <point x="165.959960938" y="404.48046875"/>
      <point x="165.959960938" y="402.857421875" type="curve" smooth="yes"/>
      <point x="165.959960938" y="315.553710938"/>
      <point x="191.03515625" y="212.33984375"/>
      <point x="191.03515625" y="122.555664062" type="curve" smooth="yes"/>
      <point x="191.03515625" y="116.043945312"/>
      <point x="190.91015625" y="109.526367188"/>
    </contour>
    <contour>
      <point x="125.686523438" y="27.509765625" type="curve"/>
      <point x="128.872070312" y="35.240234375"/>
      <point x="131.505859375" y="43.42578125"/>
      <point x="133.637695312" y="52.0380859375" type="curve"/>
      <point x="124.728515625" y="50.11328125"/>
      <point x="119.166015625" y="47.138671875"/>
      <point x="116.208984375" y="44.181640625" type="curve" smooth="yes"/>
      <point x="113.904296875" y="41.876953125"/>
      <point x="111.678710938" y="38.634765625"/>
      <point x="110.4765625" y="32.068359375" type="curve"/>
      <point x="114.848632812" y="30.1484375"/>
      <point x="119.376953125" y="29.072265625"/>
    </contour>
  </outline>
</glyph>
<glyph name="E" format="2">
  <advance width="472"/>
  <unicode hex="0045"/>
  <outline>
    <contour>
      <point x="53.685546875" y="578.26171875" type="curve" smooth="yes"/>
      <point x="53.685546875" y="584.250976562"/>
      <point x="52.9296875" y="589.110351562"/>
      <point x="52.9296875" y="594.541015625" type="curve" smooth="yes"/>
      <point x="52.9296875" y="643.33984375"/>
      <point x="73.099609375" y="690.069335938"/>
      <point x="100.823242188" y="727.525390625" type="curve" smooth="yes"/>
      <point x="106.455078125" y="737.629882812"/>
      <point x="113.4609375" y="746.747070312"/>
      <point x="121.5078125" y="754.79296875" type="curve" smooth="yes"/>
      <point x="143.678710938" y="776.963867188"/>
      <point x="173.254882812" y="790.764648438"/>
      <point x="204.731445312" y="794.791992188" type="curve" smooth="yes"/>
      <point x="205.791992188" y="794.927734375"/>
      <point x="206.858398438" y="794.995117188"/>
      <point x="207.92578125" y="794.995117188" type="curve" smooth="yes"/>
      <point x="239.7265625" y="794.995117188"/>
      <point x="269.8671875" y="789.4609375"/>
      <point x="300.3125" y="788.9921875" type="curve" smooth="yes"/>
      <point x="320.5390625" y="788.681640625"/>
      <point x="335.122070312" y="779.223632812"/>
      <point x="345.540039062" y="773.387695312" type="curve" smooth="yes"/>
      <point x="355.456054688" y="767.83203125"/>
      <point x="362.337890625" y="765.060546875"/>
      <point x="364.189453125" y="764.893554688" type="curve" smooth="yes"/>
      <point x="376.462890625" y="763.78515625"/>
      <point x="386.920898438" y="752.8515625"/>
      <point x="386.920898438" y="740.0" type="curve" smooth="yes"/>
      <point x="386.920898438" y="733.600585938"/>
      <point x="384.481445312" y="727.200195312"/>
      <point x="379.603515625" y="722.322265625" type="curve" smooth="yes"/>
      <point x="374.724609375" y="717.444335938"/>
      <point x="368.325195312" y="715.004882812"/>
      <point x="361.92578125" y="715.004882812" type="curve" smooth="yes"/>
      <point x="361.169921875" y="715.004882812"/>
      <point x="360.4140625" y="715.0390625"/>
      <point x="359.661132812" y="715.106445312" type="curve" smooth="yes"/>
      <point x="342.557617188" y="716.651367188"/>
      <point x="330.4921875" y="724.494140625"/>
      <point x="321.104492188" y="729.75390625" type="curve" smooth="yes"/>
      <point x="309.876953125" y="736.043945312"/>
      <point x="302.366210938" y="738.96484375"/>
      <point x="299.538085938" y="739.0078125" type="curve" smooth="yes"/>
      <point x="268.861328125" y="739.479492188"/>
      <point x="238.913085938" y="744.782226562"/>
      <point x="209.579101562" y="744.999023438" type="curve"/>
      <point x="181.100585938" y="740.892578125"/>
      <point x="156.052734375" y="724.736328125"/>
      <point x="143.962890625" y="702.185546875" type="curve" smooth="yes"/>
      <point x="143.375976562" y="701.090820312"/>
      <point x="142.702148438" y="700.030273438"/>
      <point x="141.940429688" y="699.015625" type="curve" smooth="yes"/>
      <point x="118.663085938" y="667.989257812"/>
      <point x="103.1484375" y="630.15234375"/>
      <point x="102.921875" y="595.283203125" type="curve" smooth="yes"/>
      <point x="103.509765625" y="589.338867188"/>
      <point x="103.733398438" y="583.475585938"/>
      <point x="103.733398438" y="577.71875" type="curve" smooth="yes"/>
      <point x="103.733398438" y="559.190429688"/>
      <point x="101.314453125" y="539.463867188"/>
      <point x="101.314453125" y="521.907226562" type="curve" smooth="yes"/>
      <point x="101.314453125" y="497.126953125"/>
      <point x="105.931640625" y="482.341796875"/>
      <point x="120.076171875" y="472.614257812" type="curve" smooth="yes"/>
      <point x="127.064453125" y="467.80859375"/>
      <point x="130.407226562" y="462.703125"/>
      <point x="136.010742188" y="457.338867188" type="curve" smooth="yes"/>
      <point x="136.099609375" y="457.33984375"/>
      <point x="136.189453125" y="457.33984375"/>
      <point x="136.278320312" y="457.33984375" type="curve" smooth="yes"/>
      <point x="150.771484375" y="457.33984375"/>
      <point x="157.919921875" y="452.186523438"/>
      <point x="167.678710938" y="450.713867188" type="curve" smooth="yes"/>
      <point x="179.15625" y="448.982421875"/>
      <point x="187.755859375" y="444.8125"/>
      <point x="193.817382812" y="442.044921875" type="curve" smooth="yes"/>
      <point x="201.999023438" y="438.309570312"/>
      <point x="205.528320312" y="436.995117188"/>
      <point x="209.92578125" y="436.995117188" type="curve" smooth="yes"/>
      <point x="237.92578125" y="436.995117188" type="line" smooth="yes"/>
      <point x="244.325195312" y="436.995117188"/>
      <point x="250.724609375" y="434.555664062"/>
      <point x="255.603515625" y="429.677734375" type="curve" smooth="yes"/>
      <point x="260.481445312" y="424.799804688"/>
      <point x="262.920898438" y="418.399414062"/>
      <point x="262.920898438" y="412.0" type="curve" smooth="yes"/>
      <point x="262.920898438" y="400.4453125"/>
      <point x="254.376953125" y="390.357421875"/>
      <point x="244.05078125" y="387.76171875" type="curve" smooth="yes"/>
      <point x="221.403320312" y="382.069335938"/>
      <point x="186.435546875" y="362.53515625"/>
      <point x="162.407226562" y="338.506835938" type="curve" smooth="yes"/>
      <point x="156.27734375" y="332.376953125"/>
      <point x="150.84765625" y="326.005859375"/>
      <point x="146.426757812" y="319.686523438" type="curve" smooth="yes"/>
      <point x="144.986328125" y="317.626953125"/>
      <point x="143.129882812" y="315.6875"/>
      <point x="141.129882812" y="314.15234375" type="curve" smooth="yes"/>
      <point x="136.727539062" y="310.772460938"/>
      <point x="132.784179688" y="307.310546875"/>
      <point x="129.255859375" y="303.783203125" type="curve" smooth="yes"/>
      <point x="109.092773438" y="283.619140625"/>
      <point x="100.17578125" y="259.723632812"/>
      <point x="100.17578125" y="229.108398438" type="curve" smooth="yes"/>
      <point x="100.17578125" y="223.643554688"/>
      <point x="100.920898438" y="217.787109375"/>
      <point x="100.920898438" y="212.0" type="curve" smooth="yes"/>
      <point x="100.920898438" y="202.759765625"/>
      <point x="100.198242188" y="192.806640625"/>
      <point x="100.198242188" y="184.1796875" type="curve" smooth="yes"/>
      <point x="100.198242188" y="161.994140625"/>
      <point x="102.415039062" y="143.661132812"/>
      <point x="111.325195312" y="128.93359375" type="curve" smooth="yes"/>
      <point x="112.41015625" y="127.140625"/>
      <point x="113.249023438" y="125.240234375"/>
      <point x="113.84375" y="123.28125" type="curve" smooth="yes"/>
      <point x="119.373046875" y="105.038085938"/>
      <point x="129.35546875" y="89.279296875"/>
      <point x="142.587890625" y="76.046875" type="curve" smooth="yes"/>
      <point x="170.495117188" y="48.1396484375"/>
      <point x="213.58984375" y="31.7421875"/>
      <point x="254.389648438" y="30.9912109375" type="curve" smooth="yes"/>
      <point x="256.657226562" y="30.94921875"/>
      <point x="258.920898438" y="30.6005859375"/>
      <point x="261.111328125" y="29.9462890625" type="curve" smooth="yes"/>
      <point x="267.762695312" y="27.958984375"/>
      <point x="274.342773438" y="27.00390625"/>
      <point x="280.817382812" y="27.00390625" type="curve" smooth="yes"/>
      <point x="301.952148438" y="27.00390625"/>
      <point x="321.965820312" y="37.18359375"/>
      <point x="339.670898438" y="54.888671875" type="curve" smooth="yes"/>
      <point x="344.001953125" y="59.2197265625"/>
      <point x="348.2578125" y="64.1494140625"/>
      <point x="352.092773438" y="69.2236328125" type="curve" smooth="yes"/>
      <point x="370.631835938" y="93.3251953125" type="line"/>
      <point x="373.513671875" y="99.08984375"/>
      <point x="375.833984375" y="105.263671875"/>
      <point x="380.248046875" y="109.677734375" type="curve" smooth="yes"/>
      <point x="385.125976562" y="114.555664062"/>
      <point x="391.526367188" y="116.995117188"/>
      <point x="397.92578125" y="116.995117188" type="curve" smooth="yes"/>
      <point x="404.325195312" y="116.995117188"/>
      <point x="410.724609375" y="114.555664062"/>
      <point x="415.603515625" y="109.677734375" type="curve" smooth="yes"/>
      <point x="420.481445312" y="104.799804688"/>
      <point x="422.920898438" y="98.3994140625"/>
      <point x="422.920898438" y="92.0" type="curve" smooth="yes"/>
      <point x="422.920898438" y="88.1611328125"/>
      <point x="422.04296875" y="84.322265625"/>
      <point x="420.288085938" y="80.8125" type="curve" smooth="yes"/>
      <point x="417.627929688" y="75.4912109375"/>
      <point x="415.290039062" y="69.3671875"/>
      <point x="411.758789062" y="64.7763671875" type="curve" smooth="yes"/>
      <point x="399.900390625" y="49.3603515625"/>
      <point x="388.706054688" y="33.212890625"/>
      <point x="375.026367188" y="19.533203125" type="curve" smooth="yes"/>
      <point x="350.596679688" y="-4.896484375"/>
      <point x="317.526367188" y="-22.953125"/>
      <point x="280.452148438" y="-22.953125" type="curve" smooth="yes"/>
      <point x="270.594726562" y="-22.953125"/>
      <point x="260.453125" y="-21.6767578125"/>
      <point x="250.1171875" y="-18.9033203125" type="curve"/>
      <point x="198.474609375" y="-17.1650390625"/>
      <point x="145.109375" y="2.814453125"/>
      <point x="107.232421875" y="40.69140625" type="curve" smooth="yes"/>
      <point x="89.4130859375" y="58.5107421875"/>
      <point x="75.181640625" y="80.3447265625"/>
      <point x="66.9248046875" y="105.794921875" type="curve"/>
      <point x="52.7841796875" y="130.674804688"/>
      <point x="50.0" y="156.983398438"/>
      <point x="50.0" y="181.1171875" type="curve" smooth="yes"/>
      <point x="50.0" y="191.790039062"/>
      <point x="50.5146484375" y="201.73046875"/>
      <point x="50.8916015625" y="211.47265625" type="curve" smooth="yes"/>
      <point x="50.466796875" y="216.994140625"/>
      <point x="50.248046875" y="222.48046875"/>
      <point x="50.248046875" y="227.920898438" type="curve" smooth="yes"/>
      <point x="50.248046875" y="269.397460938"/>
      <point x="62.958984375" y="308.196289062"/>
      <point x="93.9013671875" y="339.138671875" type="curve" smooth="yes"/>
      <point x="98.1943359375" y="343.431640625"/>
      <point x="102.7890625" y="347.5390625"/>
      <point x="107.68359375" y="351.46484375" type="curve" smooth="yes"/>
      <point x="121.844726562" y="370.744140625"/>
      <point x="140.21875" y="387.5234375"/>
      <point x="159.680664062" y="401.362304688" type="curve"/>
      <point x="153.34765625" y="402.360351562"/>
      <point x="148.31640625" y="403.9765625"/>
      <point x="144.4765625" y="405.146484375" type="curve" smooth="yes"/>
      <point x="139.193359375" y="406.754882812"/>
      <point x="136.295898438" y="407.291992188"/>
      <point x="135.862304688" y="407.314453125" type="curve" smooth="yes"/>
      <point x="134.559570312" y="407.108398438"/>
      <point x="133.2421875" y="407.004882812"/>
      <point x="131.92578125" y="407.004882812" type="curve" smooth="yes"/>
      <point x="110.530273438" y="407.004882812"/>
      <point x="101.61328125" y="422.05078125"/>
      <point x="91.2802734375" y="431.728515625" type="curve" smooth="yes"/>
      <point x="86.6083984375" y="434.982421875"/>
      <point x="82.333984375" y="438.548828125"/>
      <point x="78.4765625" y="442.405273438" type="curve" smooth="yes"/>
      <point x="55.58203125" y="465.30078125"/>
      <point x="50.9443359375" y="493.685546875"/>
      <point x="50.9443359375" y="519.330078125" type="curve" smooth="yes"/>
      <point x="50.9443359375" y="539.8984375"/>
      <point x="53.685546875" y="559.0078125"/>
    </contour>
  </outline>
</glyph>
